<?xml version="1.0" encoding="utf-8"?>
<svg xmlns="http://www.w3.org/2000/svg" viewBox="0 0 500 500" xmlns:bx="https://boxy-svg.com">
  <defs>
    <bx:export>
      <bx:file format="svg"/>
    </bx:export>
  </defs>
  <g id="Layer_1" transform="matrix(0.872247, 0, 0, 0.788559, -979.763306, -545.585388)" style=""/>
  <g id="Layer_2" transform="matrix(0.910073, 0, 0, 0.849892, -1036.984741, -580.149353)" style="">
    <g>
      <g transform="matrix(0.154033, 0, 0, 0.147512, 797.224487, 808.420349)" style="transform-origin: 627.703px 368.269px;">
        <path class="st1" d="M -89.843 174.348 L -89.843 137.948 L 56.657 137.948 L 56.657 112.948 L -43.343 112.948 L -43.643 112.448 L -48.043 112.448 C -49.443 112.148 -50.443 111.948 -51.143 111.848 C -51.843 111.748 -52.543 111.648 -53.243 111.448 C -53.943 111.248 -54.643 111.148 -55.343 110.948 C -56.043 110.748 -56.843 110.548 -57.543 110.348 C -58.243 110.048 -58.943 109.848 -59.643 109.748 C -60.343 109.548 -61.043 109.348 -61.743 109.048 C -62.443 108.748 -63.143 108.448 -63.843 108.148 C -64.543 107.848 -65.243 107.648 -65.943 107.348 C -66.643 107.048 -67.343 106.748 -68.043 106.248 C -68.743 105.748 -69.443 105.348 -70.143 104.948 C -70.843 104.548 -71.643 104.148 -72.343 103.748 C -73.043 103.348 -73.743 102.848 -74.443 102.248 C -75.143 101.648 -75.843 101.048 -76.543 100.348 C -77.243 99.648 -77.943 99.048 -78.643 98.448 C -79.343 97.848 -80.343 96.848 -81.843 95.448 L -81.843 95.148 L -87.343 86.548 L -89.043 81.548 C -89.343 80.048 -89.543 79.048 -89.643 78.248 C -89.743 77.548 -89.843 76.848 -89.843 76.148 C -89.843 75.448 -89.843 74.948 -89.843 74.648 L -89.843 49.648 C -89.643 48.148 -89.443 47.148 -89.343 46.448 C -89.143 45.748 -88.943 45.048 -88.743 44.348 C -88.443 43.648 -88.243 42.948 -87.843 42.248 C -87.543 41.548 -87.243 40.848 -86.943 40.148 C -86.643 39.448 -86.343 38.648 -85.943 37.948 C -85.543 37.248 -85.043 36.548 -84.443 35.848 C -83.843 35.148 -83.343 34.448 -82.743 33.748 C -82.143 33.048 -81.643 32.348 -81.043 31.648 C -80.443 30.948 -79.443 29.948 -78.043 28.448 L -77.743 28.448 L -65.443 20.448 L -58.743 17.748 C -57.243 17.248 -56.243 16.848 -55.443 16.748 C -54.743 16.548 -53.743 16.348 -52.643 16.048 L -51.843 16.048 C -50.343 15.848 -49.343 15.648 -48.643 15.548 C -47.943 15.348 -47.243 15.348 -46.543 15.348 C -45.843 15.348 -45.043 15.348 -44.243 15.348 L -43.743 15.348 L -43.443 14.848 L 106.157 14.848 L 106.157 51.348 L -41.143 51.348 L -41.143 76.348 L 58.857 76.348 L 59.357 76.848 L 63.557 76.848 C 64.957 77.048 65.957 77.248 66.657 77.348 C 67.357 77.548 68.157 77.648 68.857 77.848 C 69.557 78.048 70.257 78.148 70.957 78.348 C 71.657 78.548 72.357 78.648 73.057 78.748 C 73.757 78.848 74.457 79.048 75.157 79.348 C 75.857 79.648 76.557 79.948 77.257 80.248 C 77.957 80.548 78.657 80.748 79.357 81.148 C 80.057 81.448 80.757 81.748 81.457 82.048 C 82.157 82.348 82.957 82.648 83.657 83.048 C 84.357 83.448 85.057 83.848 85.757 84.248 C 86.457 84.648 87.157 85.148 87.857 85.548 C 88.557 86.048 89.257 86.448 89.957 86.848 C 90.657 87.248 91.357 87.748 92.057 88.348 C 92.757 88.948 93.457 89.548 94.157 90.248 C 94.857 90.948 95.557 91.548 96.257 92.148 C 96.957 92.748 97.757 93.448 98.557 94.248 L 98.557 94.748 L 104.157 104.148 C 104.657 105.548 105.057 106.548 105.157 107.248 C 105.357 107.948 105.457 108.948 105.657 110.048 L 105.657 110.848 L 106.157 111.348 L 106.157 139.748 C 105.857 141.148 105.657 142.148 105.557 142.848 C 105.457 143.548 105.257 144.348 104.957 145.048 C 104.657 145.748 104.357 146.448 104.057 147.148 C 103.757 147.848 103.557 148.548 103.157 149.248 C 102.857 149.948 102.457 150.648 102.057 151.348 C 101.657 152.048 101.257 152.748 100.857 153.448 C 100.457 154.148 99.957 154.848 99.357 155.548 C 98.757 156.248 98.157 156.948 97.457 157.648 C 96.757 158.348 96.257 158.848 95.957 159.248 L 95.457 159.248 L 79.857 169.348 L 74.257 171.348 C 72.857 171.948 71.857 172.348 71.157 172.548 C 70.457 172.748 69.357 172.848 68.057 173.048 L 67.157 173.048 C 65.757 173.348 64.757 173.548 64.057 173.748 C 63.357 173.948 62.557 173.948 61.857 173.948 C 61.157 173.948 60.357 173.948 59.557 173.948 L 59.257 173.948 L 58.757 174.248 L -89.843 174.248 L -89.843 174.348 Z" style="stroke-miterlimit: 4.9; stroke: rgb(255, 255, 255);"/>
        <g transform="matrix(1, 0, 0, 1, 12.649885, 0.893351)">
          <path class="st1" d="M 162.403 171.302 C 160.703 171.002 159.503 170.802 158.703 170.802 C 157.903 170.802 157.003 170.702 156.203 170.602 C 155.403 170.402 154.503 170.202 153.703 169.902 C 152.903 169.602 152.003 169.302 151.203 169.102 C 150.403 168.902 149.503 168.602 148.703 168.302 C 147.903 168.002 147.003 167.702 146.203 167.402 C 145.403 167.102 144.503 166.702 143.703 166.202 C 142.903 165.702 142.003 165.202 141.203 164.602 C 140.403 164.102 139.503 163.602 138.703 163.102 C 137.903 162.602 137.003 162.102 136.203 161.402 C 135.403 160.702 134.503 160.002 133.703 159.102 C 132.903 158.302 132.003 157.502 131.203 156.802 C 130.403 156.102 129.803 155.602 129.503 155.302 L 129.503 154.902 L 119.503 138.402 L 117.003 130.002 L 117.003 129.502 C 116.703 127.802 116.503 126.602 116.303 125.802 C 116.103 125.002 116.103 124.102 116.103 123.302 C 116.103 122.502 116.103 121.602 116.103 120.802 C 116.103 120.002 116.103 119.102 116.103 118.302 C 116.103 117.502 116.103 116.602 116.103 115.802 C 116.103 115.002 116.103 114.102 116.103 113.302 C 116.103 112.502 116.103 111.602 116.103 110.802 C 116.103 110.002 116.103 109.102 116.103 108.302 C 116.103 107.502 116.103 106.602 116.103 105.802 C 116.103 105.002 116.103 104.102 116.103 103.302 C 116.103 102.502 116.103 101.602 116.103 100.802 C 116.103 100.002 116.103 99.102 116.103 98.302 C 116.103 97.502 116.103 96.602 116.103 95.802 C 116.103 95.002 116.103 94.102 116.103 93.302 C 116.103 92.502 116.103 91.602 116.103 90.802 C 116.103 90.002 116.103 89.102 116.103 88.302 C 116.103 87.502 116.103 86.602 116.103 85.802 C 116.103 85.002 116.103 84.102 116.103 83.302 C 116.103 82.502 116.103 81.602 116.103 80.802 C 116.103 80.002 116.103 79.102 116.103 78.302 C 116.103 77.502 116.103 76.602 116.103 75.802 C 116.103 75.002 116.103 74.102 116.103 73.302 C 116.103 72.502 116.103 71.602 116.103 70.802 C 116.103 70.002 116.103 69.102 116.103 68.302 C 116.103 67.502 116.103 66.602 116.103 65.802 C 116.103 65.002 116.103 64.102 116.103 63.302 C 116.103 62.502 116.103 61.602 116.103 60.802 C 116.103 60.002 116.103 59.302 116.103 58.902 C 116.403 57.202 116.603 56.002 116.803 55.202 C 117.003 54.402 117.003 53.502 117.003 52.702 C 117.003 51.902 117.203 51.002 117.503 50.202 C 117.803 49.402 118.103 48.502 118.303 47.702 C 118.503 46.902 118.803 46.002 119.103 45.202 C 119.403 44.402 119.703 43.502 120.003 42.702 C 120.303 41.902 120.703 41.002 121.203 40.202 C 121.703 39.402 122.203 38.502 122.803 37.702 C 123.303 36.902 123.803 36.002 124.303 35.202 C 124.803 34.402 125.303 33.502 126.003 32.702 C 126.703 31.902 127.403 31.002 128.003 30.202 C 128.703 29.402 129.403 28.502 130.003 27.702 C 130.703 26.902 131.303 26.102 132.003 25.502 L 132.503 25.502 L 147.503 16.002 L 156.103 13.502 L 156.603 13.502 C 158.303 13.202 159.503 13.002 160.303 12.802 C 161.103 12.602 162.403 12.402 164.003 12.102 L 264.303 12.102 C 266.003 12.402 267.203 12.602 268.003 12.602 C 268.803 12.602 269.703 12.702 270.503 12.802 C 271.303 13.002 272.203 13.202 273.003 13.502 C 273.803 13.802 274.703 14.102 275.503 14.302 C 276.303 14.502 277.203 14.802 278.003 15.102 C 278.803 15.402 279.703 15.702 280.503 16.002 C 281.303 16.302 282.203 16.702 283.003 17.202 C 283.803 17.702 284.703 18.102 285.503 18.402 C 286.303 18.702 287.203 19.102 288.003 19.602 C 288.803 20.102 289.703 20.702 290.503 21.402 C 291.303 22.102 292.203 22.802 293.003 23.402 C 293.803 24.102 294.703 24.702 295.503 25.402 C 296.303 26.002 297.103 26.702 297.703 27.402 L 297.703 27.902 L 307.703 43.802 L 310.803 52.802 L 310.803 53.702 L 311.303 54.302 L 311.303 60.202 L 310.803 60.702 L 310.803 127.902 C 310.403 129.602 310.003 130.802 309.703 131.602 C 309.403 132.402 309.203 133.302 309.003 134.102 C 308.803 134.902 308.603 135.802 308.203 136.602 C 307.803 137.402 307.503 138.302 307.203 139.102 C 306.903 139.902 306.603 140.802 306.303 141.602 C 306.003 142.402 305.603 143.302 305.103 144.102 C 304.603 144.902 304.203 145.802 303.903 146.602 C 303.603 147.402 303.103 148.302 302.403 149.102 C 301.703 149.902 301.003 150.802 300.403 151.602 C 299.703 152.402 299.003 153.302 298.403 154.102 C 297.703 154.902 296.503 156.202 294.903 157.802 L 294.403 157.802 L 278.503 167.802 L 269.503 170.802 L 268.603 170.802 L 268.003 171.302 L 162.403 171.302 Z M 261.703 121.402 L 261.703 61.002 L 164.403 61.002 L 164.403 121.402 L 261.703 121.402 Z" style="stroke-miterlimit: 4.9; stroke: rgb(255, 255, 255);"/>
        </g>
        <g transform="matrix(1, 0, 0, 1, -4.088633, -4.406439)">
          <path class="st1" d="M 400.185 182.144 C 398.685 181.944 397.585 181.844 396.785 181.844 C 395.985 181.844 395.285 181.744 394.485 181.644 C 393.785 181.444 392.985 181.344 392.185 181.144 C 391.385 180.944 390.685 180.744 389.885 180.444 C 389.085 180.144 388.385 179.944 387.685 179.744 C 386.985 179.544 386.185 179.344 385.385 179.044 C 384.585 178.744 383.885 178.444 383.085 178.144 C 382.385 177.844 381.585 177.544 380.785 177.044 C 379.985 176.544 379.285 176.144 378.485 175.844 C 377.685 175.544 376.985 175.144 376.185 174.644 C 375.385 174.144 374.685 173.644 373.885 173.044 C 373.185 172.444 372.385 171.844 371.585 171.244 C 370.785 170.644 370.085 170.044 369.285 169.444 C 368.585 168.844 367.585 167.944 366.285 166.744 L 366.285 166.244 L 356.485 150.444 L 354.185 143.744 L 354.185 142.344 C 353.885 140.744 353.685 139.644 353.685 138.944 C 353.685 138.244 353.585 137.444 353.485 136.744 C 353.285 136.044 353.285 135.244 353.285 134.444 C 353.285 133.644 353.285 132.944 353.285 132.144 C 353.285 131.444 353.285 130.644 353.285 129.844 C 353.285 129.044 353.285 128.344 353.285 127.544 C 353.285 126.844 353.285 126.044 353.285 125.244 C 353.285 124.444 353.285 123.744 353.285 122.944 C 353.285 122.244 353.285 121.444 353.285 120.644 C 353.285 119.844 353.285 119.144 353.285 118.344 C 353.285 117.644 353.285 116.844 353.285 116.044 C 353.285 115.244 353.285 114.544 353.285 113.744 C 353.285 113.044 353.285 112.244 353.285 111.444 C 353.285 110.644 353.285 109.944 353.285 109.144 C 353.285 108.444 353.285 107.644 353.285 106.944 C 353.285 106.244 353.285 105.444 353.285 104.644 C 353.285 103.844 353.285 103.144 353.285 102.344 C 353.285 101.644 353.285 100.844 353.285 100.044 C 353.285 99.244 353.285 98.544 353.285 97.744 C 353.285 97.044 353.285 96.244 353.285 95.444 C 353.285 94.644 353.285 93.944 353.285 93.144 C 353.285 92.444 353.285 91.644 353.285 90.844 C 353.285 90.044 353.285 89.344 353.285 88.544 C 353.285 87.844 353.285 87.044 353.285 86.244 C 353.285 85.444 353.285 84.744 353.285 83.944 C 353.285 83.244 353.285 82.444 353.285 81.644 C 353.285 80.844 353.285 80.144 353.285 79.344 C 353.285 78.644 353.285 77.844 353.285 77.144 C 353.285 76.444 353.285 75.644 353.285 74.844 C 353.285 74.044 353.285 73.344 353.285 72.544 C 353.285 71.844 353.285 71.044 353.285 70.244 C 353.285 69.444 353.285 68.744 353.285 67.944 C 353.285 67.244 353.285 66.444 353.285 65.644 C 353.285 64.844 353.285 64.144 353.285 63.344 C 353.285 62.644 353.285 61.844 353.285 61.044 C 353.285 60.244 353.285 59.544 353.285 58.744 C 353.285 58.044 353.285 57.244 353.285 56.444 C 353.285 55.644 353.285 54.944 353.285 54.144 C 353.285 53.444 353.285 52.644 353.285 51.844 C 353.285 51.044 353.285 50.344 353.285 49.544 C 353.285 48.844 353.285 48.044 353.285 47.244 C 353.285 46.444 353.285 45.744 353.285 44.944 C 353.285 44.244 353.285 43.444 353.285 42.744 C 353.285 42.044 353.285 41.244 353.285 40.444 C 353.285 39.644 353.285 38.944 353.285 38.144 C 353.285 37.444 353.285 36.644 353.285 35.844 C 353.285 35.044 353.285 34.344 353.285 33.544 C 353.285 32.844 353.285 32.044 353.285 31.244 C 353.285 30.444 353.285 29.744 353.285 28.944 C 353.285 28.244 353.285 27.444 353.285 26.644 C 353.285 25.844 353.285 25.144 353.285 24.344 C 353.285 23.644 353.285 22.444 353.285 20.944 L 402.585 20.944 L 402.585 131.044 L 500.885 131.044 L 500.885 22.844 L 550.185 22.844 L 550.185 182.144 L 400.185 182.144 Z" style="stroke-miterlimit: 4.9; stroke: rgb(255, 255, 255);"/>
        </g>
        <path class="st1" d="M 625.144 180.197 L 624.644 179.897 L 620.244 179.897 C 618.744 179.597 617.744 179.397 616.944 179.197 C 616.244 178.997 615.444 178.797 614.744 178.497 C 614.044 178.197 613.244 177.897 612.544 177.597 C 611.844 177.297 611.044 177.097 610.344 176.697 C 609.644 176.397 608.844 176.097 608.144 175.797 C 607.444 175.497 606.644 175.197 605.944 174.697 C 605.244 174.197 604.444 173.797 603.744 173.397 C 603.044 172.997 602.244 172.497 601.544 172.097 C 600.844 171.597 600.044 171.097 599.344 170.497 C 598.644 169.897 597.844 169.397 597.144 168.797 C 596.444 168.197 595.644 167.697 594.944 167.097 C 594.244 166.497 593.244 165.697 591.944 164.497 L 591.944 163.997 L 581.444 146.797 C 580.944 145.297 580.544 144.297 580.244 143.497 C 579.944 142.797 579.744 141.997 579.744 141.197 C 579.444 139.697 579.244 138.697 579.044 137.897 C 578.844 137.197 578.844 136.397 578.844 135.697 C 578.844 134.997 578.844 134.497 578.844 134.097 L 578.844 133.197 L 578.544 132.897 L 578.544 20.897 L 627.044 20.897 L 627.044 130.697 L 774.144 130.697 L 774.144 180.197 L 625.144 180.197 Z" style="stroke-miterlimit: 4.9; stroke: rgb(255, 255, 255);"/>
        <path class="st1" d="M 934.351 181.913 L 934.351 22.613 L 1128.17 22.613 L 1128.44 23.113 L 1132.27 23.113 C 1133.59 23.413 1134.46 23.613 1135.06 23.813 C 1135.69 24.013 1136.29 24.113 1136.9 24.213 C 1137.52 24.313 1138.21 24.513 1138.82 24.813 C 1139.44 25.113 1140.13 25.413 1140.74 25.713 C 1141.36 26.013 1142.05 26.313 1142.68 26.813 C 1143.28 27.313 1143.89 27.713 1144.49 28.113 C 1145.11 28.513 1145.73 28.913 1146.34 29.313 C 1146.94 29.713 1147.65 30.113 1148.25 30.413 C 1148.86 30.713 1149.56 31.213 1150.18 31.713 C 1150.78 32.313 1151.41 32.813 1152.01 33.413 C 1152.62 34.013 1153.23 34.613 1153.84 35.313 C 1154.46 36.013 1155.41 36.913 1156.72 38.013 L 1156.72 38.513 L 1165.72 55.213 C 1166.15 56.713 1166.5 57.713 1166.76 58.513 C 1167.02 59.213 1167.3 60.213 1167.55 61.313 L 1167.55 63.513 L 1167.81 64.013 L 1167.81 68.213 C 1168.07 69.713 1168.51 70.813 1169.04 71.613 L 1169.04 181.913 L 1126.26 181.913 L 1126.26 71.613 L 1073 71.613 L 1073 181.913 L 1030.21 181.913 L 1030.21 71.613 L 976.957 71.613 L 976.957 181.913 L 934.351 181.913 Z" style="stroke-miterlimit: 4.9; stroke: rgb(255, 255, 255);"/>
        <path class="st1" d="M 1248.85 178.783 C 1247.14 178.483 1245.94 178.283 1245.14 178.283 C 1244.35 178.283 1243.44 178.183 1242.64 178.083 C 1241.85 177.883 1240.94 177.683 1240.14 177.383 C 1239.35 177.083 1238.44 176.783 1237.64 176.583 C 1236.85 176.383 1235.94 176.083 1235.14 175.783 C 1234.35 175.483 1233.44 175.183 1232.64 174.883 C 1231.85 174.583 1230.94 174.183 1230.14 173.683 C 1229.35 173.183 1228.44 172.683 1227.64 172.083 C 1226.85 171.583 1225.94 171.083 1225.14 170.583 C 1224.35 170.083 1223.44 169.583 1222.64 168.883 C 1221.85 168.183 1220.94 167.483 1220.14 166.583 C 1219.35 165.783 1218.44 164.983 1217.64 164.283 C 1216.85 163.583 1216.24 163.083 1215.94 162.783 L 1215.94 162.283 L 1205.94 145.783 L 1203.44 137.383 L 1203.44 136.883 C 1203.14 135.183 1202.94 133.983 1202.74 133.183 C 1202.55 132.383 1202.55 131.483 1202.55 130.683 C 1202.55 129.883 1202.55 128.983 1202.55 128.183 C 1202.55 127.383 1202.55 126.483 1202.55 125.683 C 1202.55 124.883 1202.55 123.983 1202.55 123.183 C 1202.55 122.383 1202.55 121.483 1202.55 120.683 C 1202.55 119.883 1202.55 118.983 1202.55 118.183 C 1202.55 117.383 1202.55 116.483 1202.55 115.683 C 1202.55 114.883 1202.55 113.983 1202.55 113.183 C 1202.55 112.383 1202.55 111.483 1202.55 110.683 C 1202.55 109.883 1202.55 108.983 1202.55 108.183 C 1202.55 107.383 1202.55 106.483 1202.55 105.683 C 1202.55 104.883 1202.55 103.983 1202.55 103.183 C 1202.55 102.383 1202.55 101.483 1202.55 100.683 C 1202.55 99.883 1202.55 98.983 1202.55 98.183 C 1202.55 97.383 1202.55 96.483 1202.55 95.683 C 1202.55 94.883 1202.55 93.983 1202.55 93.183 C 1202.55 92.383 1202.55 91.483 1202.55 90.683 C 1202.55 89.883 1202.55 88.983 1202.55 88.183 C 1202.55 87.383 1202.55 86.483 1202.55 85.683 C 1202.55 84.883 1202.55 83.983 1202.55 83.183 C 1202.55 82.383 1202.55 81.483 1202.55 80.683 C 1202.55 79.883 1202.55 78.983 1202.55 78.183 C 1202.55 77.383 1202.55 76.483 1202.55 75.683 C 1202.55 74.883 1202.55 73.983 1202.55 73.183 C 1202.55 72.383 1202.55 71.483 1202.55 70.683 C 1202.55 69.883 1202.55 68.983 1202.55 68.183 C 1202.55 67.383 1202.55 66.683 1202.55 66.283 C 1202.85 64.583 1203.05 63.383 1203.24 62.583 C 1203.44 61.783 1203.44 60.883 1203.44 60.083 C 1203.44 59.283 1203.64 58.383 1203.94 57.583 C 1204.24 56.783 1204.55 55.883 1204.74 55.083 C 1204.94 54.283 1205.24 53.383 1205.55 52.583 C 1205.85 51.783 1206.14 50.883 1206.44 50.083 C 1206.74 49.283 1207.14 48.383 1207.64 47.583 C 1208.14 46.783 1208.64 45.883 1209.24 45.083 C 1209.74 44.283 1210.24 43.383 1210.74 42.583 C 1211.24 41.783 1211.74 40.883 1212.44 40.083 C 1213.14 39.283 1213.85 38.383 1214.44 37.583 C 1215.14 36.783 1215.85 35.883 1216.44 35.083 C 1217.14 34.283 1217.74 33.483 1218.44 32.883 L 1218.94 32.883 L 1233.94 23.383 L 1242.55 20.883 L 1243.05 20.883 C 1244.74 20.583 1245.94 20.383 1246.74 20.183 C 1247.55 19.983 1248.85 19.783 1250.44 19.483 L 1350.74 19.483 C 1352.44 19.783 1353.64 19.983 1354.44 19.983 C 1355.24 19.983 1356.14 20.083 1356.94 20.183 C 1357.74 20.383 1358.64 20.583 1359.44 20.883 C 1360.24 21.183 1361.14 21.483 1361.94 21.683 C 1362.74 21.883 1363.64 22.183 1364.44 22.483 C 1365.24 22.783 1366.14 23.083 1366.94 23.383 C 1367.74 23.683 1368.64 24.083 1369.44 24.583 C 1370.24 25.083 1371.14 25.483 1371.94 25.783 C 1372.74 26.083 1373.64 26.483 1374.44 26.983 C 1375.24 27.483 1376.14 28.083 1376.94 28.783 C 1377.74 29.483 1378.64 30.183 1379.44 30.783 C 1380.24 31.483 1381.14 32.083 1381.94 32.783 C 1382.74 33.383 1383.55 34.083 1384.14 34.783 L 1384.14 35.283 L 1394.14 51.183 L 1397.24 60.183 L 1397.24 61.083 L 1397.74 61.683 L 1397.74 67.583 L 1397.24 68.083 L 1397.24 134.983 C 1396.85 136.683 1396.44 137.883 1396.14 138.683 C 1395.85 139.483 1395.64 140.383 1395.44 141.183 C 1395.24 141.983 1395.05 142.883 1394.64 143.683 C 1394.24 144.483 1393.94 145.383 1393.64 146.183 C 1393.35 146.983 1393.05 147.883 1392.74 148.683 C 1392.44 149.483 1392.05 150.383 1391.55 151.183 C 1391.05 151.983 1390.64 152.883 1390.35 153.683 C 1390.05 154.483 1389.55 155.383 1388.85 156.183 C 1388.14 156.983 1387.44 157.883 1386.85 158.683 C 1386.14 159.483 1385.44 160.383 1384.85 161.183 C 1384.14 161.983 1382.94 163.283 1381.35 164.883 L 1380.85 164.883 L 1364.94 174.883 L 1355.94 177.883 L 1355.05 177.883 L 1354.44 178.383 L 1248.85 178.383 L 1248.85 178.783 Z M 1348.24 128.883 L 1348.24 68.483 L 1250.94 68.483 L 1250.94 128.883 L 1348.24 128.883 Z" style="stroke-miterlimit: 4.9; stroke: rgb(255, 255, 255);"/>
        <path class="st1" d="M 1490.67 180.186 L 1490.67 70.086 L 1416.87 70.086 L 1416.87 20.886 L 1613.26 20.886 L 1613.26 69.986 L 1539.47 69.986 L 1539.47 180.086 L 1490.67 180.086 L 1490.67 180.186 Z" style="stroke-miterlimit: 4.9; stroke: rgb(255, 255, 255);"/>
        <path class="st1" d="M 1689.09 175.581 C 1687.39 175.281 1686.19 175.081 1685.39 175.081 C 1684.59 175.081 1683.69 174.981 1682.89 174.881 C 1682.09 174.681 1681.19 174.481 1680.39 174.181 C 1679.59 173.881 1678.69 173.581 1677.89 173.381 C 1677.09 173.181 1676.19 172.881 1675.39 172.581 C 1674.59 172.281 1673.69 171.981 1672.89 171.681 C 1672.09 171.381 1671.19 170.981 1670.39 170.481 C 1669.59 169.981 1668.69 169.481 1667.89 168.881 C 1667.09 168.381 1666.19 167.881 1665.39 167.381 C 1664.59 166.881 1663.69 166.381 1662.89 165.681 C 1662.09 164.981 1661.19 164.281 1660.39 163.381 C 1659.59 162.581 1658.69 161.781 1657.89 161.081 C 1657.09 160.381 1656.49 159.881 1656.19 159.581 L 1656.19 159.081 L 1646.19 142.581 L 1643.69 134.181 L 1643.69 133.681 C 1643.39 131.981 1643.19 130.781 1642.99 129.981 C 1642.79 129.181 1642.79 128.281 1642.79 127.481 C 1642.79 126.681 1642.79 125.781 1642.79 124.981 C 1642.79 124.181 1642.79 123.281 1642.79 122.481 C 1642.79 121.681 1642.79 120.781 1642.79 119.981 C 1642.79 119.181 1642.79 118.281 1642.79 117.481 C 1642.79 116.681 1642.79 115.781 1642.79 114.981 C 1642.79 114.181 1642.79 113.281 1642.79 112.481 C 1642.79 111.681 1642.79 110.781 1642.79 109.981 C 1642.79 109.181 1642.79 108.281 1642.79 107.481 C 1642.79 106.681 1642.79 105.781 1642.79 104.981 C 1642.79 104.181 1642.79 103.281 1642.79 102.481 C 1642.79 101.681 1642.79 100.781 1642.79 99.981 C 1642.79 99.181 1642.79 98.281 1642.79 97.481 C 1642.79 96.681 1642.79 95.781 1642.79 94.981 C 1642.79 94.181 1642.79 93.281 1642.79 92.481 C 1642.79 91.681 1642.79 90.781 1642.79 89.981 C 1642.79 89.181 1642.79 88.281 1642.79 87.481 C 1642.79 86.681 1642.79 85.781 1642.79 84.981 C 1642.79 84.181 1642.79 83.281 1642.79 82.481 C 1642.79 81.681 1642.79 80.781 1642.79 79.981 C 1642.79 79.181 1642.79 78.281 1642.79 77.481 C 1642.79 76.681 1642.79 75.781 1642.79 74.981 C 1642.79 74.181 1642.79 73.281 1642.79 72.481 C 1642.79 71.681 1642.79 70.781 1642.79 69.981 C 1642.79 69.181 1642.79 68.281 1642.79 67.481 C 1642.79 66.681 1642.79 65.781 1642.79 64.981 C 1642.79 64.181 1642.79 63.481 1642.79 63.081 C 1643.09 61.381 1643.29 60.181 1643.49 59.381 C 1643.69 58.581 1643.69 57.681 1643.69 56.881 C 1643.69 56.081 1643.89 55.181 1644.19 54.381 C 1644.49 53.581 1644.79 52.681 1644.99 51.881 C 1645.19 51.081 1645.49 50.181 1645.79 49.381 C 1646.09 48.581 1646.39 47.681 1646.69 46.881 C 1646.99 46.081 1647.39 45.181 1647.89 44.381 C 1648.39 43.581 1648.89 42.681 1649.49 41.881 C 1649.99 41.081 1650.49 40.181 1650.99 39.381 C 1651.49 38.581 1651.99 37.681 1652.69 36.881 C 1653.39 36.081 1654.09 35.181 1654.69 34.381 C 1655.39 33.581 1656.09 32.681 1656.69 31.881 C 1657.39 31.081 1657.99 30.281 1658.69 29.681 L 1659.19 29.681 L 1674.19 20.181 L 1682.79 17.681 L 1683.29 17.681 C 1684.99 17.381 1686.19 17.181 1686.99 16.981 C 1687.79 16.781 1689.09 16.581 1690.69 16.281 L 1790.99 16.281 C 1792.69 16.581 1793.89 16.781 1794.69 16.781 C 1795.49 16.781 1796.39 16.881 1797.19 16.981 C 1797.99 17.181 1798.89 17.381 1799.69 17.681 C 1800.49 17.981 1801.39 18.281 1802.19 18.481 C 1802.99 18.681 1803.89 18.981 1804.69 19.281 C 1805.49 19.581 1806.39 19.881 1807.19 20.181 C 1807.99 20.481 1808.89 20.881 1809.69 21.381 C 1810.49 21.881 1811.39 22.281 1812.19 22.581 C 1812.99 22.881 1813.89 23.281 1814.69 23.781 C 1815.49 24.281 1816.39 24.881 1817.19 25.581 C 1817.99 26.281 1818.89 26.981 1819.69 27.581 C 1820.49 28.281 1821.39 28.881 1822.19 29.581 C 1822.99 30.181 1823.79 30.881 1824.39 31.581 L 1824.39 32.081 L 1834.39 47.981 L 1837.49 56.981 L 1837.49 57.881 L 1837.99 58.481 L 1837.99 64.381 L 1837.49 64.881 L 1837.49 131.781 C 1837.09 133.481 1836.69 134.681 1836.39 135.481 C 1836.09 136.281 1835.89 137.181 1835.69 137.981 C 1835.49 138.781 1835.29 139.681 1834.89 140.481 C 1834.49 141.281 1834.19 142.181 1833.89 142.981 C 1833.59 143.781 1833.29 144.681 1832.99 145.481 C 1832.69 146.281 1832.29 147.181 1831.79 147.981 C 1831.29 148.781 1830.89 149.681 1830.59 150.481 C 1830.29 151.281 1829.79 152.181 1829.09 152.981 C 1828.39 153.781 1827.69 154.681 1827.09 155.481 C 1826.39 156.281 1825.69 157.181 1825.09 157.981 C 1824.39 158.781 1823.19 160.081 1821.59 161.681 L 1821.09 161.681 L 1805.19 171.681 L 1796.19 174.681 L 1795.29 174.681 L 1794.69 175.181 L 1689.09 175.181 L 1689.09 175.581 Z M 1788.49 125.681 L 1788.49 65.281 L 1691.19 65.281 L 1691.19 125.681 L 1788.49 125.681 Z" style="stroke-miterlimit: 4.9; stroke: rgb(255, 255, 255);"/>
      </g>
      <g style="" transform="matrix(0.245674, 0, 0, 0.264994, 1146.481201, 539.612793)">
        <path class="st1" d="M965.9,1778.3c-3.1,5.1-5.2,11.2-9.4,15.2c-27.4,26.1-55.1,51.9-83.1,77.4c-12.4,11.3-25.6,21.7-38.6,32.2 c-2.7,2.2-6.3,3.2-11.2,5.5c19-18,36.5-34.7,54-51.3c-0.7-0.8-1.3-1.6-2-2.3c-4.7,3.9-9.5,7.6-14,11.7 c-32.9,30.1-65.5,60.4-98.6,90.3c-7.4,6.6-16.3,11.6-24.7,17c-1.2,0.8-3.3,0-5,0c0.1-1.9-0.5-4.4,0.4-5.5c2.4-2.7,5.6-4.6,8.3-7 c6.8-6,13.4-12,20.1-18c-0.5-0.7-0.9-1.3-1.4-2c-3.5,1.2-7,2.3-10.5,3.5c5.5-4.8,11.1-9.5,16.6-14.3c0.5,0.6,0.9,1.2,1.4,1.9 c-0.2,1.1-0.4,2.2-0.7,3.8c6.8-7.3,12.9-13.9,19.1-20.5c-0.5-0.7-1-1.3-1.5-2c-16,11.4-32,22.8-48,34.2c0.4,0.6,0.9,1.3,1.3,1.9 c4-1.8,8.1-3.6,12.1-5.4c-6.1,5.7-12.2,11.3-20.3,18.9c-2.8-17.6-5.1-32.5-7.4-47.3c-1-6.6-1.4-13.4-3-19.9 c-2.2-9,0-15.1,7.3-21.5c31.5-27.6,62.8-55.4,93.3-84c18.5-17.3,35.3-36.4,53-54.7c18.8-19.5,38.4-38.3,56.4-58.6 c28.2-31.8,55.3-64.5,82.9-96.8c2.6-3,4.8-6.6,7.9-8.9c9.4-6.7,12.5-15.8,11.2-29.2c-7.9,5.4-14.9,10.2-22.7,15.5 c-8.6-1.7-18.6-2.5-27.4,7.5c-5.5-8.2-13.9-13.8-11.4-25c0.4-1.8-0.8-4-1.5-6c-0.5-1.4-2.5-2.8-2.2-3.9 c2.5-12.3-10.2-25.3,1.8-37.3c1.1-1.1-0.6-5.2-1.4-7.8c-3.2-10.5-6.5-21-10.5-33.9c-8.4,11.8-14.3,8.1-20.7,1.2 c-4.3-4.7-10.4-7.7-14.6-12.4c-2.3-2.5-2.6-7-3.7-10.6c-0.7-2.1-1-4.4-1.9-6.5c-0.6-1.3-2.7-2.4-2.6-3.5 c0.2-11-7.6-21.2-2.7-32.7c1.5-3.4,1.2-7.6,2-12.8c25.5,0.2,46.9-15,69.6-25.2c15.8-7.1,29.6-19.3,43.1-30.7 c19.1-16.1,37.2-33.5,55.6-50.5c1.8-1.7,2.1-5.1,3.1-7.7c-2.4-0.5-4.9-1.6-7.3-1.5c-6,0.4-10-0.9-13.3-6.9 c-2.6-4.6-8.3-7.4-14.3-9.5c-0.8-6.1-1.5-12.2-2.6-20.5c-4.2-1.1-10.2-2.7-17.5-4.6c2.2-2.8,3.3-4.3,3.1-4.1 c-2.7-6.5-5.4-11.4-6.7-16.7c-2.4-9.7-5.3-19.6-5.6-29.5c-0.2-8.7-3.4-19.6,8.7-24.9c2-0.9,3.5-5.4,3.3-8.1 c-0.6-12.1,6.6-19.3,17.3-14.6c18,7.9,35.1,4.6,52.8,0.2c5.5-1.4,11.4-1,17.2-1.4c0.3,0.9,0.7,1.7,1,2.6c-2.3,2-4.7,4.1-7,6.1 c0.6,0.5,1.2,0.9,1.8,1.4c2.5-3.2,5.6-6.1,7.3-9.7c2.6-5.7,5.1-10.5,13-8.6c-0.8,2-1.6,4-2.4,6c0.5,0.8,0.9,1.6,1.4,2.3 c23.4-9.8,46.8-19.7,70.2-29.5c-0.9-0.7-1.8-1.5-2.7-2.2c0.7-2.2,0.8-5.5,2.3-6.3c7.5-4,15.4-7.4,20.9-9.9 c3.1-4.7,5.1-7.7,7-10.7c2.5-4,5.6-7.8,7.1-12.1c3.5-10.3,6.2-20.9,9.3-31.4c0.6-2,1.1-4.1,1.7-6.1c3.1-11.7,7.4-23.2,9.2-35.1 c3.9-25,11.1-50.5-4.9-74.4c-1.8-2.7-3.2-6-3.9-9.2c-1-4.3-1-7.5,5.7-6.2c3.7,0.7,8.2-2.1,12.1-3.2c-3.3-24.4,8.2-40.6,32.5-45.6 c11.2-2.3,22.5-6.2,32.6,4.4c1.8,1.9,8.8,0.1,12.7-1.6c4.8-2.1,6.5-0.6,9.6,3c6.7,7.8,14.1,15.1,21.7,22c1.9,1.7,5.8,1.9,8.7,1.5 c9.3-1.3,18.4-3.6,27.7-4.5c3.5-0.3,7.2,2.1,10.8,3.3c5.6,1.8,11.5,3.1,16.9,5.5c4.5,2,10.1,3.3,9.5,10.6 c-0.5,6.3-0.1,12.7-0.1,20.4c2.2-0.1,5.3-0.3,11.1-0.7c0.2,5.4,0.1,10.9,0.8,16.3c2.3,19.3-15.2,23.8-25,34 c-10.4,10.8-20.8,21.5-31.1,32.4c-5.4,5.7-10.4,11.8-15.7,17.6c-5.1,5.5-6.4,14-14.2,17.3c-0.4,0.2-0.1,2.2-0.1,4.9 c6-2.9,11.1-5.1,16-7.7c12.9-6.7,26.4-10.3,41.1-11.7c13.3-1.3,25.4-5.4,36.7-15.5c13.8-12.3,31.8-19.9,48.2-29.2 c1.7-0.9,4.6,0.5,6.9,0.6c3.9,0.2,7.9,0.1,11.8,0.3c2.3,0.1,5.2,0,6.8,1.2c13.3,9.8,21.2,5.8,31.1-3.7c2.1-2,4-4.3,6.2-6.6 c3.5,10.8-7.7,13.2-12.9,22.5c6.4,0,10.9,0.6,15.2-0.1c6.8-1.2,11.2,1.1,15.9,6.2c5.2,5.6,12.6,9,18.3,14.2 c4.6,4.2,7,11.1,12.1,14.3c8.4,5.3,14.9,12.1,21.2,19.5c6.1,7.2,8.4,15.3,6.8,24.7c-2.4,14.9-4.8,29.7-18.7,39.2 c-2.3,1.6-3.7,4.6-6.2,7.8c-0.8-2-1.4-3.4-2-4.8c-25.3,17.7-47.2,38.6-62.9,65.5c-3.3,5.6-6.3,10.1-14.2,6.2 c-2.2-1.1-7.8,0.7-9.3,2.9c-5.2,7.2-9,15.3-13.8,22.8c-1.9,2.9-5.4,4.8-7.4,7.7c-12.8,19.3-25.5,38.8-38.1,58.3 c-0.6,0.9-0.5,2.3-0.8,3.4c0.7,0.6,1.4,1.3,2.1,1.9c3.4-3.6,6.7-7.2,10.1-10.8c0.7,0.2,1.3,0.5,2,0.7c-1.8,4.6-3,9.6-5.6,13.8 c-7.8,12.7-4.3,25.9-2.2,39c0.3,1.6,4,3,6.3,3.9c3.1,1.3,8.7,1.6,9.2,3.4c1.6,5.7,2.2,12,1.4,17.9c-0.4,3.4-3.6,7.1-6.6,9.4 c-7.8,6.2-16.2,11.7-24.4,17.4c-0.5,0.4-1.1,0.6-1.5,1.1c-10.7,12.6-21.5,25.1-32,37.9c-3.1,3.8-18.5,9.4-23.5,7.1 c-4.6-2.1-5-1.3-6.6,3.6c-1.7,5.1-7.6,8.7-11.1,13.4c-3.9,5.3-7.8,10.8-10.7,16.7c-22.1,44.3-44,88.6-65.9,133 c-1,2.1-1.6,4.4-3.3,9.1c8.5-5.7,14.8-9.9,18.9-12.7c0.7-4.8,0.2-7.7,1.5-9.2c7.3-8.2,14.9-16.2,22.6-24c1.8-1.9,4.3-3.7,6.8-4.3 c4.5-1.1,5.1-3.8,7-7.6c2.7-5.4,8.9-9.7,14.5-12.7c6.1-3.3,13.1-5,19.9-6.4c3.1-0.6,6.6,1.4,9.9,1.9c5.6,0.8,3.7,4.5,4.2,8.1 c0.4,2.9,3.9,6.3,6.8,7.6c10,4.4,20.3,8.5,30.7,11.7c9.7,3,13.5,8.5,12.2,18.6c-0.4,2.8,2.4,5.9,2.2,8.7 c-0.4,5.5-1.8,11-2.8,16.5c-1,0.1-2,0.2-2.9,0.2c2.4,0.8,4.8,1.5,7.2,2.3c0.1,0.5,0.6,1.2,0.4,1.6c-7.5,14.8-17.2,25.8-33.2,34 c-17.1,8.7-31,24.2-45.4,37.6c-10.9,10.2-20.4,21.8-30.3,33c-2.3,2.6-3.7,5.9-5.3,10.3c7.1-6.4,11.8-6,14.4,2.8 c0.5,1.6,2.1,3.4,3.6,4c15,5.9,15.8,22.3,24,33.2c4.2,5.6-1,12.2-6.4,16.3c-9.5,7.3-17.7,14.8-19.2,28.2 c-1,9.6-13.4,16.9-22.8,16.1c-2.7-0.2-5.7,1.2-8.5,2.2c-10.8,3.8-21.5,7.8-32.6,11.9c1.5,4,2.4,6.3,3.3,8.6 c-0.4,0.7-0.9,1.5-1.3,2.2c-4.7-1.9-9.2-4.1-14-5.8c-3.7-1.3-7.6-1.8-11.4-2.9c-5.7-1.7-11.3-3.8-17.1-5.5 c-2.6-0.7-5.3-0.7-8.2-1c0.2-1.4,0.4-3,0.7-4.8c-1.4-0.1-2.5-0.5-3.1-0.2c-14.9,9-29.8,17.9-44.5,27.2c-1.5,1-2.9,4.2-2.5,5.9 c2.8,11.8,4.8,24,9.5,35.1c6.1,14.2,16.3,18.4,31.5,15.6c29.9-5.5,56.8-18.5,82-35c2.7-1.8,5.5-3.5,9.7-6.3 c-0.7,4-1.1,6.2-1.5,8.2c0.5,0.3,0.9,0.7,0.9,0.6c34.4-30.2,68.8-60.4,103.6-90.2c-33.2,45.5-75.1,82.2-121.3,114.3 c0.8,0.9,1.5,1.9,2.3,2.8c12.6-9.3,25.6-18.2,37.7-28.1c58.8-48.4,107-106.3,150.7-168.2c3.8-5.4,4.3-13.3,6.6-21.2 c0.7,3.3,1.2,5.5,2.2,9.8c11.7-18.5,22.9-35.5,33.5-52.9c21.3-34.7,39.7-70.9,52.4-109.7c1.7-5.1,1.5-10.8,3.1-16 c2.6-8.3,5.4-16.6,9.1-24.4c21.6-45.8,38.7-93,44.8-143.6c0.2-1.5,0.6-2.9,1.3-6c13.1,14.5,22.3,29.5,25.2,47.7 c4.6,28.4,2.7,57.1-3,84.8c-16.6,81-48.1,155.8-95.4,224.1c-29,41.9-59.5,82.2-95.8,118c-3.3,3.2-7.3,5.6-10.1,9.2 c16.5-1.4,117-122,147.8-170.8c40.8-64.6,62.5-137.2,87.8-208.4c-7.4,49.2-13.7,98.5-36.1,143.8c-3.7,7.4-6.4,15.3-10.3,22.5 c-4.7,8.7-7.9,17.2-1.2,26.7c-0.9,0.3-1.8,0.6-2.6,0.9c-1.7-3-3.5-5.9-4.4-7.5c-7.8,9.9-16.7,21.2-25.5,32.5 c-0.7,0.9-1.2,2.2-1.5,3.3c-5.5,21.6-18.7,38.8-32,55.9c-2.9,3.7-4,8.8-6,13.3c1,0.7,2.1,1.4,3.1,2.1c1.8-2.2,3.7-4.3,5.4-6.5 c18.9-25.2,40.1-48.9,56-75.9c20.7-35.1,38.5-72.1,55.2-109.4c20-44.9,35.8-91.5,46-139.7c2.4-11.3,0.4-23.5,0.4-35.2 c-0.8-0.2-1.6-0.3-2.5-0.5c-1.2,3.8-2.6,7.5-3.6,11.3c-0.8,3-1.3,6-1.9,9c-1-0.1-2-0.2-3-0.3c-0.8-1.8-2.2-3.6-2.4-5.4 c-2.6-18.4-5.1-36.9-7.4-55.3c-4.8-37.6-44.7-73.3-82.5-73c-8.7,0.1-13.9-1.8-18.9-9.9c-16-25.7-41.3-38-69.8-45 c-2.6-0.6-5.2-1.2-7.7-2.6c34.5-6.2,69.2-9.2,104.2-7.9c35.2,1.3,70.1,5.8,104,15.6c3.3,1,6,4,9,6c3.9,2.6,7.6,6.4,11.9,7.5 c50.4,12.9,85.3,45.4,110,89.1c8.1,14.3,11.1,31.4,16.1,47.3c2.3,7.4,4,14.4,12.8,17.5c2.6,0.9,4.3,6.2,5.1,9.8 c15.5,64.3,11,127.3-13.6,188.8c-4.6,11.6-9.2,23.1-13.9,35.1c3,1.6,5.3,2.8,8.3,4.3c-5.3,9.3-6.6,20.9-18.1,26.1 c-2,0.9-2.8,4.5-4.2,6.9c-24.8,43.8-46.1,90.1-75.2,130.9c-51.4,72-105.1,142.6-169.9,203.6c-6.4,6-12,12.8-18.6,20 c20.9-1.7,40.1-5.7,58-15.9c8-4.6,17.2-7.1,26-10.5c12.5-4.9,25.3-9.1,37.5-14.6c11-4.9,21.1-11.8,32.1-16.5 c7.8-3.4,16.4-5,24.8-6.8c1.7-0.4,4,1.6,6,2.5c-1.3,1.7-2.4,3.8-4.1,4.9c-25.7,16.3-51.1,33.2-77.6,48.4 c-17.1,9.8-35.7,17.1-53.6,25.5c-8.4,4-16.7,8.1-25.1,12.1c0.3,0.7,0.6,1.5,0.8,2.2c5.8-1.2,11.6-2.4,20-4.2 c-3.7,5.4-6.1,8.9-7.9,11.4c7.4,1.8,14.8,4.3,22.4,5.1c4.5,0.5,9.2-2.1,13.9-2.9c38.5-6.5,77-12.9,115.5-19.4 c1.4-0.2,2.8-0.3,4.2-0.4c0.3,0.7,0.6,1.5,0.9,2.2c-3.5,1.7-6.8,4.1-10.5,5c-15.4,3.6-31,6.8-46.5,10.1c-2.9,0.6-5.7,1.6-8.2,4.5 c9.1-1.2,18.2-2.5,27.3-3.4c9.6-1,19.3-1.8,29-2.6c4.8-0.4,9.7-0.9,14.5-1c2.4-0.1,4.8,0.6,7.2,0.9c-1.8,1.5-3.4,3.8-5.5,4.4 c-20.3,5.5-40.7,10.5-61,16.1c-5,1.4-9.6,4.3-13.6,8.3c44.7-7.1,89.3-14.1,134-21.2c0.2,1,0.3,2,0.5,3 c-51.5,9.4-103.1,18.6-154.6,28.1c-14.9,2.8-30.5,3.2-43.4,13.1c-1.5,1.2-4.7,2.1-6,1.3c-13.5-8.5-26.6-0.3-39.5,1.6 c-15.3,2.2-30,8.1-45.2,11c-17.6,3.4-35.6,4.7-53.2,7.8c-73,13-145.8,26.7-218.9,39.4c-37.8,6.6-75.8,11.6-113.8,17.3 c-1.2,0.2-2.4,0-4.7,0c6.4-8.6,12.1-15,23.7-14.8c12.4,0.3,24.8-1.7,37.2-3.1c2.5-0.3,4.8-2.6,7.3-3.5c6.3-2.2,12.5-4.5,19-6 c22.6-5.1,45.2-9.8,67.8-15c4.2-1,8.1-3.5,12.2-5.2c-0.3-1.1-0.6-2.2-0.9-3.3c-46.5,8.1-92.9,16.2-137.5,24 c-4.3-1.7-7.3-3.6-10.4-4.1c-37.3-5.4-72.7-15.9-103.9-37.7c-30.9-21.5-50.5-51.2-64.4-85.9c-16-40.1-12.1-80.2-4.6-121 c9.9-53.6,26.5-105.3,44-156.8c1-2.8,1.8-5.7,1-9.5c-4.8,8.4-9.8,16.7-14.4,25.2c-4.7,8.5-9,17.3-14,25.7 c3.6-24.5,12.3-47.2,22.5-69.5c28.7-62.7,62.9-122.2,104.5-177.2c7.9-10.4,14.7-21.7,22.5-33.4c-15.6,3.3-30.4,6.1-44.9,9.8 c-7.7,1.9-16.4-2-23.3,4.2c-1.3,1.1-4,1.1-4.7,2.4c-4.9,9.8-10.4,19.4-14.1,29.7c-6.4,18.3-10.8,37.4-17.9,55.4 c-2.7,6.7-10.6,11.3-16.3,16.7c-2.4,2.3-5.9,3.7-7.7,6.4c-15.4,23-30.6,46.3-45.8,69.4c-0.9-0.5-1.7-1-2.6-1.6 c6.2-10.2,12.4-20.3,19.2-31.3c-2.5,1.2-4.3,2-8.7,4.2c7.2-10.9,13-19.6,18.8-28.3c-0.6-0.4-1.2-0.9-1.9-1.3 c-19.9,18.4-38.6,37.8-54.1,60.3c-16.4,23.8-34.3,46.7-51.5,70c-2.3,3.1-4.4,6.3-6.6,9.4c0.6,0.6,1.1,1.2,1.7,1.9 c8.3-6.2,16.6-12.3,24.9-18.5c0.6,0.5,1.3,1.1,1.9,1.6c-3.6,4.5-6.9,9.4-10.9,13.6c-7.9,8.3-16.2,16.2-24.4,24.2 c-2.1,2.1-4.6,3.7-7,5.5c3.5-6.6,7-13.1,10.3-19.2c-14.6,6.3-21.3,14.4-19.8,24.7C961.2,1781.1,963.5,1779.7,965.9,1778.3z M1184.1,1651.9c-0.5-0.2-1-0.5-1.5-0.7c-1.2,1.7-2.6,3.3-3.7,5.1c-27.4,44.7-49.2,92-65.3,141.9c-12.3,38-18.3,76.7-8.7,116.3 c10.2,42.2,27.7,78.5,76,89.3c-6.3,1.2-12.6,2.4-19,3.6c0.1,0.9,0.2,1.7,0.3,2.6c18.7-1.4,38.2-0.1,55.9-5 c29-8,57.2-19.3,85-30.8c44.4-18.4,82.5-47.6,121.1-75.3c17.6-12.6,32.9-28.3,49.3-42.7c-7.3,2.2-13.5,6-19.4,10.1 c-12.5,8.7-24.2,18.8-37.5,26.1c-21.7,11.8-44.3,22-66.6,32.6c-36.3,17.2-73.9,25.2-113.9,16c-30.8-7.1-51.6-23.9-59.2-56.4 c-12-51-9.1-100.6,10.1-149.3c2.6-6.7,4.5-13.8,6.8-20.6c-1.1-0.5-2.2-0.9-3.3-1.4c-3.5,6.2-7.6,12.2-10.3,18.7 c-14.5,34.7-26.7,70-32.6,107.4c-2.3,14.4-6.8,28.5-2.4,43.4c3.3,11.1,5.1,22.5,8.2,33.6c1.3,4.5,3.5,9.4,6.8,12.7 c11.1,10.8,22.8,21,34.3,31.4c4.1,3.7,8.2,7.4,12.8,11.6c-10.6,0.7-19.3,2.4-27.8,1.4c-6.5-0.7-13.8-3.5-18.8-7.7 c-7.4-6.1-13.7-13.9-19.3-21.8c-4.5-6.3-10-13.8-10.3-20.9c-1.4-33.5-3.3-67.2-1-100.6c3.3-47.7,18-92.7,39.4-135.5 C1175.2,1675.7,1179.3,1663.6,1184.1,1651.9z M1251.8,1204.8c18.1-7.1,34.1-14.6,50.9-19.5c30.8-9,58.9-25.2,90.3-32.2 c5.3-1.2,10.4-3.5,15.4-5.8c23.7-10.6,41.3-39.8,40.3-67.7c-8.5,2.4-16.9,4.9-25.3,7.1c-1.9,0.5-4,0.7-5.9,0.5 c-3.1-0.4-6.4-2.5-9.1-1.8c-13.2,3.4-26.5,6.8-39.2,11.6c-9.5,3.6-18.1,9.3-27.2,14c0.3,0.7,0.7,1.4,1,2.1 c12-4.2,23.9-8.5,35.9-12.7c0.2,0.7,0.5,1.4,0.7,2.2c-18.3,7-36.9,13.4-54.9,21c-18,7.6-35.3,16.5-49.7,30.6 c4.4-1.6,8.9-3.1,13.4-4.7c-12.7,10.7-24.5,21.7-37.4,31c-5.7,4.1-3.9,6.8-1.9,11.5c3.1-1.3,5.8-2.4,8.4-3.5 c0.8,0.5,1.6,1.1,2.4,1.6C1257.6,1194.5,1255.2,1198.8,1251.8,1204.8z M1253.2,1328.9c4.6-2.6,8-4.6,11.5-6.3 c21.9-10.6,43.9-21,65.6-31.7c14.7-7.2,29-15.1,43.6-22.4c10.7-5.4,10-18.1,16.7-26c0.5-0.5,0-1.8,0.2-2.7 c1-4.8,1.5-9.7,3.2-14.2c2-5.1,5.6-9.5,7.5-14.6c0.8-2.1-0.3-6.7-1.7-7.3c-2.7-1.1-6.2-0.3-9.3,0.2c-1.8,0.3-4.6,3-4.9,2.7 c-6.7-7.4-10,0.4-13.9,3.3c-4.5,3.3-8.5,7.3-12.7,11.1c-4.4,4-8.6,8.3-13.1,12.1c-2.4,2-5.3,3.5-8.2,4.9 c-3.7,1.8-7.8,2.9-11.5,4.9c-5.3,2.9-10.2,6.5-15.4,9.6c-11.5,6.9-23.4,13.1-34.6,20.6c-6.4,4.3-14.5,9.4-16.7,15.9 C1255.6,1301.2,1255.3,1314.6,1253.2,1328.9z M1180.3,1321.8c-8,5.4-14.5,9.8-21,14c-1.2,0.8-2.8,1-4.2,1.5 c-4.4,1.6-9.6,2.1-13,4.9c-14.8,12.2-29,25.2-43.7,37.7c-11.9,10.1-24.2,19.7-36.1,29.7c-8.9,7.5-7.6,14.6,3.2,19.1 c8.6,3.6,16.1,0.9,23.3-3.8c13.4-8.6,26.2-18,40.2-25.5c29-15.6,29.3-15.2,42.3-45.8c2.1-5.1,4.1-10.2,5.6-15.5 C1178.4,1332.9,1179.1,1327.6,1180.3,1321.8z M1782.7,1268.7c9,29.1,15.9,58.3,16,88.3c0.1,30.1-0.8,60.5-4.7,90.3 c-3.8,29.1-12.1,57.6-18.4,86.3c0.2,0.1,0.4,0.1,0.7,0.2c9.3-26.2,18.6-52.5,27.9-78.7c0.9,0.2,1.8,0.5,2.6,0.7 c-3.8,20.5-7.7,41.1-11.5,61.6c3.1-5.7,5.5-11.8,7.7-17.9c18.7-51.8,26-104.8,15.6-159.4 C1813.5,1313,1802.2,1288.6,1782.7,1268.7z M1266.2,1688.1c6.6,2,11.5,3.3,16.4,5.1c9.2,3.3,15.6,0.7,20.6-7.8 c4.8-8.1,10.9-15.4,16.2-23.2c11.1-16.2,22-32.6,33.6-49.8c-3.1,0.3-5.1,0-6.6,0.7c-18,8.1-36,16.3-53.9,24.7 c-1.2,0.6-2.3,2-2.9,3.3C1282,1656.2,1274.4,1671.5,1266.2,1688.1z M1167.2,1230.6c-10.4-5.1-45,26.2-54.3,52 C1131.9,1264.4,1149.5,1247.6,1167.2,1230.6z M1213.1,1468.7c0.1-0.8,0.1-1.6,0.2-2.3c-4-0.3-8-1.1-11.9-0.8 c-3.5,0.2-6.9,2-10.5,2.2c-8.6,0.4-11,3.2-9.6,11.9c15.7-3.9,32.9-4,45.2-17.3C1222.1,1464.4,1217.6,1466.5,1213.1,1468.7z M1245.7,1777c-0.8-0.7-1.6-1.3-2.5-2c-14.3,2.2-17.4,6.8-18.6,27.9C1232.1,1793.7,1238.9,1785.4,1245.7,1777z M1053.2,1307 c-0.5-0.6-1-1.2-1.5-1.8c-9.5,7.4-19.1,14.7-28.6,22.1c0.8,1,1.6,1.9,2.4,2.9C1041.7,1330.8,1043.4,1314.1,1053.2,1307z M926.8,1812.6c0.7,0.7,1.4,1.4,2.1,2.1c8.3-9.1,16.6-18.2,25.8-28.3C940.8,1791.5,933.1,1801.4,926.8,1812.6z M1291.1,1397.2 c16.3-3,25.2-9.9,28-23.5c-4.6,3.5-7.8,8.3-12,12C1302.2,1390,1296.4,1393.4,1291.1,1397.2z M1306.3,1399.7c-0.5-1-1-2-1.4-3 c-11.2,6-22.4,12-33.7,18c0.3,0.6,0.6,1.2,0.9,1.8C1283.6,1410.9,1294.9,1405.3,1306.3,1399.7z M1018.5,1593.8 c-1-0.8-2-1.6-3-2.4c-5.7,7.7-11.4,15.3-17.1,23c0.8,0.6,1.6,1.2,2.4,1.8C1006.6,1608.7,1012.6,1601.3,1018.5,1593.8z M1578.1,976.9c-0.3,1.8-0.7,3.6-1,5.4c4.1,0.6,8.2,1.4,12.3,1.5c0.6,0,1.3-3.3,2-5.1C1587,978.1,1582.6,977.5,1578.1,976.9z" style="stroke-miterlimit: 4.9; stroke: rgb(225, 79, 79); paint-order: stroke; stroke-linecap: square; stroke-linejoin: round; stroke-width: 0px; stroke-opacity: 0;"/>
        <path class="st1" d="M513.2,2305c39.6-8.6,73.3-27.9,109.3-40.6c0.6,1.2,1.2,2.4,1.8,3.6c-10,5.9-20,11.7-29.9,17.8 c-10.6,6.6-20.8,14-31.7,19.9c-10.6,5.7-22,9.9-32.5,16c2.9-0.2,5.8-0.4,9.5-0.7c-1.5,2.6-2.5,4.4-3.9,6.9 c6.6,0.4,13,1.8,19.1,0.9c23.2-3.5,46.3-7.8,69.5-11.7c1.3-0.2,2.7,0,4.1,0c0.2,0.9,0.3,1.7,0.5,2.6c-10.7,2.4-21.4,4.8-32.1,7.2 c0,0.4,0,0.7,0.1,1.1c13.6-1,27.2-2.1,40.8-3.1c0.2,0.9,0.3,1.9,0.5,2.8c-15.8,4.2-31.5,8.5-47.3,12.7c0.2,0.8,0.4,1.5,0.5,2.3 c24.3-3.8,48.6-7.7,72.9-11.5c0.1,0.7,0.2,1.4,0.3,2.1c-26.5,5-53.1,9.3-79.4,15.2c-26.1,5.8-52.7,8.3-78.9,13.8 c-26.7,5.6-53.5,10.9-80.4,15.9c-26.7,4.9-53.5,9.6-80.3,13.9c-26.7,4.3-53.6,8.1-80.3,12.1c-0.4-1-0.8-2-1.2-3.1 c4.4-2,8.7-4.7,13.4-5.7c24.5-5.4,49.2-10.2,73.7-15.4c2.3-0.5,4.5-1.5,6.7-2.3c-0.1-0.8-0.3-1.6-0.4-2.3 c-11.3,1.5-22.7,2.9-34,4.7c-6.9,1.1-13.8,2.7-20.7,4c-8,1.4-16.7,5.3-24.1,3.6c-33.9-7.6-68-15.9-89.9-46.8 c-20.8-29.3-27.8-61.7-19.3-96.6c7.5-30.8,16.3-61.2,24.6-91.7c0.8-2.9,1.6-5.7,1.1-9.3c-4.2,7.5-8.3,15.1-12.5,22.6 c-0.5-0.1-1-0.2-1.5-0.4c0.5-2.8,0.8-5.7,1.7-8.4c13.7-40.8,34.2-78.2,58.3-113.7c11.7-17.2,23.5-34.3,36-50.8 c7.4-9.8,14.3-19.8,29.3-21c7.1-0.5,14.1-7.8,20.3-13c7.2-6.1,13.5-6.2,20.9-0.7c4.8,3.6,10.4,6.2,16.3,9.7 c-5.8,12-11.2,23.6-16.8,35c-20.1,40.4-41.1,80.3-60.1,121.2c-11.5,24.8-21.1,50.7-28.9,76.8c-3,10.2-0.4,23,2.6,33.9 c3.5,12.6,11.1,16.3,23.3,12.1c14.6-5,28.3-12.7,42.8-18c27.4-9.8,43.7-33.2,64.6-51c1.5-1.3,3.1-2.3,5.9-2.5 c-1.7,2.5-3.4,4.9-6,8.6c19.5-14.7,72.1-85.2,89.8-127.3c20-47.5,40.5-95.2,50-147.2c9.1,9.4,14.6,20,15.3,32.6 c1.3,23,0.1,46-7.4,67.9c-8.5,24.9-15.4,50.8-27.6,73.7c-13.6,25.6-32.4,48.5-49,72.6c-1.4,2.1-2.9,4.2-4,6.5 c53.1-53,85.3-117.7,103.2-190.3c1.6,0.6,3.3,1.3,4.9,1.9c-6,23.4-10.7,47.2-18.4,70c-5.8,17.2-14.9,33.4-23.8,49.4 c-8.8,15.8-19.3,30.7-29,46c-0.9,1.4-1.3,3.3-2.1,5.5c36.1-20.5,105.4-172.6,98.2-218.6c-1.7,5.9-2.7,9.3-3.7,12.7 c-0.9-0.1-1.7-0.1-2.6-0.2c-1.9-11.8-4.8-23.6-5.3-35.5c-0.9-20.3-28.3-46.1-50.8-44.9c-2.6,0.1-6.7-0.8-7.8-2.7 c-10.9-18.3-28.3-26.2-48.1-31.8c3.9-0.6,7.7-1.4,11.6-1.9c4.2-0.6,8.5-1.2,12.8-1.5c33.1-2.2,67-3.6,98,8.5 c30.1,11.7,61.3,24.6,77.7,56.4c3.8,7.3,7.2,14.8,9.9,22.5c2.8,8.1,4.5,15.8,10.7,23.3c5.5,6.6,5.5,18.3,6.7,27.9 c4.6,35.6-3,69.2-17.1,101.7c-1.5,3.5-4.8,7,0,11.3c1,0.9-1.9,7.1-3.8,10.3c-6.8,11.4-13.9,22.6-21,33.8 c-16.9,26.5-32.4,53.9-51.1,79.1c-26.5,35.7-53.6,71.1-87.3,100.7C518.3,2297.9,516.7,2300.6,513.2,2305z M222.9,2322 c50.4,7.9,149.3-53.5,177.8-87.1c-9.4,5.9-18.2,12.6-27.8,18.1c-10,5.7-20.9,10.1-31.2,15.4c-19.3,9.9-39.2,16.6-61.3,15.8 c-31.1-1.1-47.2-14.6-52.7-45.2c-5-27.7-2.4-54.8,8.2-80.9c1.3-3.2,2.1-6.5,3.2-9.8c-0.7-0.3-1.4-0.6-2.1-0.9 c-1.7,3-4.1,5.9-5.1,9.1c-7.1,23.3-16.1,46.3-20.2,70.1c-4.3,24.8,1.2,48.5,24.7,64c4,2.6,7.4,6.2,12.6,10.6 c-5.3-0.2-8.2-0.9-10.8-0.4c-9.2,1.7-16.9,0.3-22.3-8.4c-4.5-7.4-12.6-14.2-13.6-22c-5.9-44.1-1.2-87.1,17.3-128.1 c4.1-9.1,7.9-18.2,11.9-27.3c-2.5,0.6-3.7,1.8-4.5,3.3c-16,27.6-28.9,56.5-37.8,87.2c-7.8,26.9-7.5,53.6,3.5,79.8 c6.5,15.4,17,26.7,33.2,32c1.8,0.6,3.5,1.2,5.3,1.8c-0.1,0.5-0.1,1-0.2,1.5C228.7,2320.9,226.3,2321.4,222.9,2322z M603.5,2016.4 c18.5-36.8,19.3-108.5-10.4-135.1c15.2,48.2,11.2,94.5,0.8,141c3.8-10.1,7.6-20.2,11.4-30.3c0.4,0.2,0.8,0.3,1.2,0.5 C605.6,1999.9,604.7,2007.3,603.5,2016.4z" style="stroke-miterlimit: 4.9; stroke: rgb(225, 79, 79); paint-order: stroke; stroke-linecap: square; stroke-linejoin: round; stroke-width: 0px; stroke-opacity: 0;"/>
        <path class="st1" d="M468.9,1731.4c7.3-8.8,14.8-17.4,21.9-26.3c9.5-11.8,18.5-24.1,28.3-35.7c9.3-10.9,19.4-21.2,29.1-31.7 c25.1-26.8,49-54.5,69.2-85.3c10.5-16,23.6-30.3,35.3-45.6c2.3-3,3.9-6.7,4.6-10.8c-20.3,23.2-40.6,46.3-60.9,69.5 c-1-0.8-1.9-1.5-2.9-2.3c45.6-47.3,77.5-104.4,117.1-159.1c-11.5,8-21.1,14.7-31.8,22.1c0-2.9,0-4.4,0-7.5 c-20,12.3-39.2,24.1-58.4,36c0.4,0.7,0.8,1.5,1.3,2.2c9.8-5.7,19.6-11.4,29.3-17.1c0.5,0.8,0.9,1.6,1.4,2.4 c-16.3,10.1-33.2,19.4-48.7,30.5c-13.4,9.6-25.2,21.3-37.9,31.9c-2.7,2.2-6.1,3.5-8.9,5.5c-2.4,1.7-4.3,4.2-6.8,5.6 c-3.1,1.7-6.8,4.1-10,3.8c-19.4-1.7-39.2-0.8-57.8-8.5c-2.9-1.2-6.2-1.4-7.4-1.7c-4.1-4.1-7.3-7.2-9.8-9.6 c1.4-2.9,3.8-5.6,3.9-8.4c0.3-4.2-1.4-6.9-7-5.9c-1.7,0.3-5.4-4.6-6.3-7.6c-1.7-5.8-5.3-7-10.3-6.5c-8.4,0.9-16.8,1.9-25.9,3 c0.4-4.6,0.8-9.2,1.1-13.4c5.2-0.8,10.3-1.5,15.5-2.3c-5-7.2-9.4-13.4-14.1-20c7.3-4.3,14-8.1,20.7-12.1 c-5.9-4.7-10-7.9-14.3-11.3c4.6-5.8,8.5-4.8,14.1-4.4c13.8,1.1,28.5,1.8,41.7-1.5c21.8-5.4,42.9-13.7,64-21.4 c21.1-7.7,42.5-15,62.6-24.6c23.1-11.1,44.8-24.8,67.4-37c52.2-28.3,105-55.5,156.6-84.8c29.8-16.9,57.5-37.2,86.5-55.6 c7.1-4.5,15.2-7.7,23-11.2c4-1.8,26.7,5.8,29.8,9.2c5.4,5.9,10.8,11.8,16.7,17.2c2.2,2,5.8,2.5,9.4,3.9 c-2.9,10.4-0.6,19.1,7.4,27.8c5.1,5.6,5.5,15.5,0.2,23.1c-4.4,6.4-10.1,11.7-10.7,20.6c-0.3,3.7-5.5,8.2-9.5,10.3 c-8.4,4.4-15.5,14-27,8.5c-19.2,8.4-38.3,16.8-57.5,25.3c0.4,0.9,0.8,1.8,1.1,2.8c7.7-3.2,15.5-6.4,23.2-9.6 c0.3,0.5,0.6,1,0.8,1.5c-3.8,2.6-7.2,6-11.4,7.6c-10.9,4.2-18.3,12-24.4,21.3c-4.9,7.4-9.9,12-20.7,11.1 c-17.5-1.4-39,26.5-35.2,43.9c0.6,2.6,5.8,4.2,10.6,7.4c-0.2,5.6,4,7.4,11.8,6.5c3-0.4,7.8,3.4,9.7,6.6 c14.2,23.4,27.9,47.1,42,70.6c1.6,2.7,5.2,4.2,8.3,6.5c2.7,6.1,6.2,13.5,9.2,21.2c1.1,2.9,2.6,8.3,1.5,9 c-7.8,5.2-4.7,13.4-6.3,20.1c-0.5,2.3,0.4,5.5,1.7,7.6c4.6,7.2,4,12.9-2.9,18.3c-2.8,2.2-4.8,5.4-7.7,6.6 c-2.1,0.8-4.6,1.1-6.2,2.4c-2.6,2.2-4.8,5-7,7.7c-4.3,5.3-8.2,10.9-12.9,15.8c-2.4,2.5-6.1,4.8-9.5,5.2c-7.6,0.9-13.3,3.2-19,9.1 c-6.9,7.2-16.1,12.2-26.4,19.7c0.1,5.4-6.1,7.8-13.5,10.5c-11.1,4.1-21.6,9.7-31.4,14.3c-2.9-1.8-5.8-3.6-9.4-5.8 c0.8-1.5,2.2-4.2,4.6-8.6c-7.8,2.6-13.8,4.6-20.4,6.8c0.4-2.2,0.8-4.1,1.3-6.7c-30.3,24.3-60.1,48.2-89.9,72.1 c-1-1.1-2-2.1-3.1-3.2c6.8-7.6,13.5-15.4,20.6-22.8c14.8-15.4,29.9-30.5,43.7-47.1c-17.8,16.8-35.5,33.6-53.3,50.5 c-0.7-0.6-1.4-1.3-2.1-1.9c3.7-4.7,7.4-9.3,11.2-14c-0.2-0.3-0.4-0.5-0.6-0.8c-20.5,16.8-41,33.6-61.4,50.5 c-0.8-0.8-1.6-1.7-2.3-2.5c46.4-39.8,85.3-85.9,120.5-137.6c-3.5,0.6-5.4,0.9-8.2,1.4c8.8-15.8,17.6-30.5,16.9-49 c-7.9,5.2-15,9.9-20.9,13.7c5.7-6.5,12.5-13.8,18.7-21.4c2.4-2.9,4.7-6.7,5-10.2c0.2-3-2.5-6.2-3.9-9.3c-1.8,2.1-3.6,4.1-5.4,6.2 c-5.9,6.6-11.6,13.4-17.7,19.8c-6.7,7-13.6,13.8-20.4,20.6c0,0,0.2,0.2,0.2,0.2c6.4-8.7,12.6-17.7,19.3-26.2 c8.1-10.3,16.6-20.3,24.9-30.5c1.6-1.9,2.7-4.2,4-6.3c-0.7-0.5-1.3-1-2-1.5c-31.3,34.1-62.5,68.2-94.2,102.7 c2,0.4,3.5,0.7,4.9,1.1c-20,26.8-41.5,51.7-65.2,74.8c-0.8-0.6-1.5-1.1-2.3-1.7c3.2-4.6,6.5-9.3,9.7-13.9 c0.8,0.9,1.6,1.8,2.4,2.8c-21.7,21.3-43.5,42.5-65.2,63.8c-1.4-1.3-2.7-2.6-4.1-3.8c9.3-10.9,18.7-21.8,28-32.6 c-1-0.9-2.1-1.9-3.1-2.8c-21.8,23.6-43.7,47.2-65.8,71.1c-0.9-1.6-1.6-3-2.6-4.7c-25.2,10.4-39.7,34.4-63.5,49.9 c0.6-4.5,0.9-6.6,1.1-8.5c-25.5,19.2-50.9,38.3-76.3,57.3l0.1,0.1c0.7-2.7,0.6-6.2,2.3-7.8c10.2-9.9,21.1-19,31.2-28.9 c18.7-18.3,37.2-36.7,55.4-55.5c2.8-2.9,3.4-7.8,5-11.8c-1-0.6-2-1.1-3-1.7c-4.5,4.2-9.1,8.3-13.6,12.5c-0.5-0.5-1-1-1.6-1.5 c9.6-9.6,19.2-19.2,28.9-28.9c-0.8,2.7-1.6,5.4-2.3,8.1c0.7,0.5,1.4,1.1,2,1.6c21.3-21,42.6-42,63.9-62.9c-0.7-0.7-1.3-1.4-2-2.1 c-10.1,9.8-20,19.8-30.3,29.2C488.6,1714.8,478.7,1723,468.9,1731.4z M782.4,1279.8c0.6,1,1.2,1.9,1.9,2.9 c14.2-9.2,28.5-18.4,42.7-27.5c-0.5-0.8-1.1-1.7-1.6-2.5C811,1261.7,796.7,1270.7,782.4,1279.8z" style="stroke-miterlimit: 4.9; stroke: rgb(225, 79, 79); paint-order: stroke; stroke-linecap: square; stroke-linejoin: round; stroke-width: 0px; stroke-opacity: 0;"/>
        <path class="st1" d="M684,1154.8c-2.5-0.3-5.3-0.6-8-0.9c0.4-2.5,1.2-5,1-7.4c-0.3-3.2-0.9-6.5-2.2-9.4c-1.6-3.5-4.3-6.5-5.9-10 c-4.2-9.1-8.1-18.3-12.1-27.4c-1.3-3-2.5-6-3.6-8.9c4.1,0,8.9,1.3,10.4-0.3c1.8-2.1,1.4-6.6,1.1-10c-0.8-7.9-4-14-11.3-18.7 c-3.4-2.2-3.8-8.8-4.8-11.5c5.4-3.1,8.7-5.9,12.4-6.8c3.5-0.8,7.8-0.4,11.1,1c15.6,7,31.2,6.5,44.4,2.5c5.7,1.9,9.1,3.6,12.6,4.1 c12.2,1.7,23.9-0.1,35.7-4.4c11.1-4,23.7-4.3,34.5-8.7c31.4-12.8,62.2-27,93.3-40.6c1.3-0.6,2.7-0.9,5.7-1.9 c-2.6,3.3-4.1,5.1-5.5,6.9c0.3,0.5,0.5,1.1,0.8,1.6c15-7.7,30-15.4,45-23c0.6,0.8,1.2,1.7,1.8,2.5c-3.2,2.4-6.2,5.3-9.7,7.2 c-12.5,6.9-26.3,12.1-32.8,26.4c-0.3,0.8-0.4,1.7-1,3.8c3-0.1,5.4-0.3,10.3-0.5c-2.9,9.2-5.5,17.7-8.8,28.1 c10.7-5.8,20.8-11.2,30.9-16.7c1.8,5-9.6,7.5,0.2,12.5c-2.3,0.9-4,1.5-6.2,2.4c0.9,1.4,1.7,2.8,2.8,4.4c-3.2,1.9-6.2,3.8-9.3,5.6 c0.2,0.5,0.4,1.1,0.6,1.6c3.5-0.9,6.9-1.9,12.4-3.4c-6.4,5.1-11.3,9-18,14.3c5.1-0.8,8.1-1.3,11-1.8c0.3,0.5,0.5,1,0.8,1.5 c-15.7,11.6-31.4,23.3-47.2,34.9c0.5,0.8,1.1,1.6,1.6,2.4c4.7-2.9,9.5-5.8,14.2-8.7c0.5,0.5,0.9,0.9,1.4,1.4 c-3.3,3.2-6.2,6.8-9.8,9.5c-33,25.2-66.1,50.1-99,75.4c-2.4,1.9-3.2,5.9-5.5,10.6c-0.1,0-2.4,0.4-4,1.5 c-15.1,11-30.2,9.5-44.9-0.3c-4.5-3-8-7.3-12-10.9c-7.2-6.5-14.5-13-21.8-19.4C692.8,1161.9,688.6,1158.6,684,1154.8z" style="stroke-miterlimit: 4.9; stroke: rgb(225, 79, 79); paint-order: stroke; stroke-linecap: square; stroke-linejoin: round; stroke-width: 0px; stroke-opacity: 0;"/>
        <path class="st1" d="M422.1,2046.7c-2.6,25.2-13.7,49.1-36.2,67c-3.3,2.6-7.3,4.5-11.3,5.9c-11,3.7-21.1-0.7-23.6-11.9 c-1.9-8.7-2-18.2-0.6-27c3.3-20.1,12.9-37.2,27.3-51.6c1.5-1.5,3.1-3,4.8-4.3c8.2-6.2,17.1-12,27.6-7 C420.9,2022.8,421.7,2033.4,422.1,2046.7z" style="stroke-miterlimit: 4.9; stroke: rgb(225, 79, 79); paint-order: stroke; stroke-linecap: square; stroke-linejoin: round; stroke-width: 0px; stroke-opacity: 0;"/>
        <path class="st1" d="M1719.2,1292.6c-11.6-6.6-24.1-13.3-36.1-20.7c-3-1.9-5-5.8-6.6-9.3c-1.5-3.2-1.7-6.9-2.7-11.2 C1694.5,1260.9,1712.4,1272.1,1719.2,1292.6z" style="stroke-miterlimit: 4.9; stroke: rgb(225, 79, 79); paint-order: stroke; stroke-linecap: square; stroke-linejoin: round; stroke-width: 0px; stroke-opacity: 0;"/>
        <path class="st1" d="M1011.3,1720.2c13.1-16.2,26.2-32.4,39.3-48.6c1,0.8,2.1,1.7,3.1,2.5c-8.7,19.8-30.2,29.5-38.5,49.6 C1013.9,1722.6,1012.6,1721.4,1011.3,1720.2z" style="stroke-miterlimit: 4.9; stroke: rgb(225, 79, 79); paint-order: stroke; stroke-linecap: square; stroke-linejoin: round; stroke-width: 0px; stroke-opacity: 0;"/>
        <path class="st1" d="M560.5,1360.2c23.3-9.8,45.4-19.2,68.8-29C621.7,1340.1,568.1,1363.2,560.5,1360.2z" style="stroke-miterlimit: 4.9; stroke: rgb(225, 79, 79); paint-order: stroke; stroke-linecap: square; stroke-linejoin: round; stroke-width: 0px; stroke-opacity: 0;"/>
        <path class="st1" d="M711.9,1564.8c-9.7,13-19.5,25.9-29.2,38.9c-1-0.8-2-1.6-3-2.4c9.8-12.9,18.7-26.5,32.3-36.3 C712.1,1565,711.9,1564.8,711.9,1564.8z" style="stroke-miterlimit: 4.9; stroke: rgb(225, 79, 79); paint-order: stroke; stroke-linecap: square; stroke-linejoin: round; stroke-width: 0px; stroke-opacity: 0;"/>
        <path class="st1" d="M1493,1298.6c6.1-8.5,12.1-17.1,18.2-25.6c1.1,0.8,2.3,1.6,3.4,2.5c-6.2,8.4-12.4,16.8-18.5,25.2 C1495,1299.9,1494,1299.3,1493,1298.6z" style="stroke-miterlimit: 4.9; stroke: rgb(225, 79, 79); paint-order: stroke; stroke-linecap: square; stroke-linejoin: round; stroke-width: 0px; stroke-opacity: 0;"/>
        <path class="st1" d="M861.7,1000.4c-7.1,3.9-14.1,7.7-21.2,11.6c-0.8-1.4-1.5-2.8-2.3-4.2c7.1-3.5,14.3-7.1,21.4-10.6 C860.3,998.2,861,999.3,861.7,1000.4z" style="stroke-miterlimit: 4.9; stroke: rgb(225, 79, 79); paint-order: stroke; stroke-linecap: square; stroke-linejoin: round; stroke-width: 0px; stroke-opacity: 0;"/>
        <path class="st1" d="M362.2,1855.7c-5,5.4-10.1,10.8-15.1,16.2c-1.1-1.2-2.2-2.4-3.3-3.7c6.1-4.2,12.3-8.3,18.4-12.5 C362.3,1855.8,362.2,1855.7,362.2,1855.7z" style="stroke-miterlimit: 4.9; stroke: rgb(225, 79, 79); paint-order: stroke; stroke-linecap: square; stroke-linejoin: round; stroke-width: 0px; stroke-opacity: 0;"/>
      </g>
    </g>
  </g>
</svg>