<?xml version="1.0" encoding="utf-8"?>
<svg version="1.1" xmlns="http://www.w3.org/2000/svg" x="0px" y="0px" viewBox="0 0 2820.598 1297.903" style="enable-background:new 0 0 1928.8 2175;" xmlns:bx="https://boxy-svg.com">
  <defs>
    <bx:export>
      <bx:file format="png" href="#object-0"/>
    </bx:export>
  </defs>
  <style type="text/css">
	.st0{fill:#FFFFF5;}
	.st1{fill:none;stroke:#000000;stroke-width:10;stroke-miterlimit:10;}
</style>
  <g id="Layer_1"/>
  <g transform="matrix(1.187148, 0, 0, 1.14976, -703.762695, 449.142639)" style="" id="object-0">
    <path class="st0" d="M 822.817 220.947 L 822.817 161.387 L 1126.48 161.387 L 1126.48 120.561 L 919.214 120.561 L 918.49 119.802 L 909.295 119.802 C 906.505 119.243 904.336 118.872 902.992 118.71 C 901.546 118.52 899.893 118.322 898.55 118.15 C 897.103 117.942 895.656 117.59 894.003 117.392 C 892.454 117.22 891.007 116.85 889.561 116.299 C 888.114 115.92 886.565 115.532 885.118 115.369 C 883.672 115.162 882.328 114.81 880.675 114.232 C 879.229 113.681 877.576 113.302 876.129 112.751 C 874.786 112.381 873.34 111.821 871.687 111.451 C 870.24 111.099 868.69 110.521 867.244 109.591 C 865.798 108.869 864.454 108.111 862.801 107.388 C 861.355 106.648 859.701 106.088 858.359 105.33 C 856.912 104.608 855.259 103.858 853.812 102.928 C 852.47 102.007 851.023 100.888 849.37 99.759 C 847.923 98.667 846.373 97.737 844.928 96.599 C 843.481 95.678 841.414 94.026 838.315 91.616 L 838.315 91.038 L 827.053 76.954 L 823.54 68.765 C 822.817 66.354 822.301 64.702 822.093 63.402 C 821.887 62.273 821.887 60.991 821.887 59.863 C 821.887 58.761 821.887 58.003 821.887 57.461 L 821.887 16.635 C 822.301 14.224 822.61 12.536 823.023 11.443 C 823.231 10.306 823.747 9.213 824.47 7.895 C 824.987 6.803 825.606 5.503 826.329 4.383 C 827.053 3.255 827.57 2.162 828.19 0.862 C 828.706 -0.248 829.429 -1.548 830.359 -2.686 C 831.289 -3.778 832.219 -5.097 833.459 -6.189 C 834.595 -7.327 835.732 -8.419 836.971 -9.737 C 838.108 -10.83 839.245 -12.13 840.484 -13.24 C 841.621 -14.378 843.79 -16.03 846.787 -18.459 L 847.51 -18.459 L 873.133 -31.45 L 886.978 -35.721 C 890.078 -36.642 892.144 -37.183 893.797 -37.373 C 895.243 -37.572 897.309 -37.942 899.686 -38.502 L 901.339 -38.502 C 904.336 -38.872 906.505 -39.043 907.951 -39.432 C 909.295 -39.594 910.742 -39.802 912.395 -39.802 C 913.737 -39.802 915.494 -39.802 917.353 -39.802 L 918.284 -39.802 L 919.006 -40.524 L 1228.97 -40.524 L 1228.97 19.235 L 923.45 19.235 L 923.45 60.061 L 1130.81 60.061 L 1131.75 60.784 L 1140.42 60.784 C 1143.21 61.172 1145.28 61.343 1147.03 61.714 C 1148.38 61.921 1150.03 62.273 1151.47 62.472 C 1152.83 62.644 1154.48 63.032 1155.92 63.194 C 1157.26 63.402 1158.71 63.772 1160.36 63.772 C 1161.81 63.962 1163.46 64.332 1164.81 64.892 C 1166.25 65.424 1167.59 65.812 1169.36 66.354 C 1170.7 66.742 1172.35 67.284 1173.79 67.835 C 1175.24 68.413 1176.58 68.765 1178.23 69.343 C 1179.69 69.695 1181.34 70.273 1182.68 70.995 C 1184.12 71.753 1185.78 72.313 1187.23 73.053 C 1188.57 73.776 1190.01 74.543 1191.67 75.265 C 1193.01 76.024 1194.66 76.764 1196.12 77.486 C 1197.56 78.254 1198.9 78.976 1200.56 79.897 C 1202 80.827 1203.65 81.964 1204.99 83.057 C 1206.45 84.185 1207.89 85.115 1209.54 86.226 C 1210.88 87.156 1212.54 88.248 1214.4 89.756 L 1214.4 90.478 L 1225.97 105.881 C 1227.11 108.111 1227.83 109.799 1228.04 111.099 C 1228.35 112.209 1228.76 113.88 1229.28 115.74 L 1229.28 117.022 L 1230.21 117.78 L 1230.21 164.177 C 1229.48 166.407 1228.97 168.05 1228.76 169.35 C 1228.56 170.488 1228.04 171.77 1227.41 172.898 C 1226.69 173.991 1226.17 175.309 1225.45 176.401 C 1225.04 177.539 1224.32 178.631 1223.6 179.95 C 1222.87 181.042 1222.26 182.342 1221.21 183.48 C 1220.29 184.59 1219.56 185.683 1218.64 186.983 C 1217.71 188.12 1216.78 189.393 1215.63 190.531 C 1214.4 191.623 1213.06 192.752 1211.61 194.034 C 1210.16 195.171 1209.23 196.092 1208.61 196.652 L 1207.58 196.652 L 1175.24 213.174 L 1163.46 216.515 C 1160.57 217.607 1158.51 218.167 1156.85 218.365 C 1155.2 218.537 1153.13 218.925 1150.55 219.295 L 1148.59 219.295 C 1145.79 219.846 1143.73 220.225 1142.07 220.388 C 1140.63 220.595 1138.98 220.776 1137.64 220.776 C 1136.18 220.776 1134.53 220.776 1132.68 220.776 L 1131.95 220.776 L 1131.02 221.318 L 822.817 221.318 L 822.817 220.947 Z" style="stroke-width: 1; fill: rgb(0, 0, 0);"/>
    <path class="st0" d="M 1307.2 221.128 L 1307.2 -40.524 L 1668.87 -40.524 L 1669.43 -39.784 L 1676.65 -39.784 C 1679.04 -39.224 1680.7 -38.845 1681.8 -38.664 C 1682.93 -38.475 1684.04 -38.104 1685.31 -38.104 C 1686.42 -37.915 1687.74 -37.545 1688.82 -36.985 C 1689.93 -36.425 1691.24 -36.055 1692.35 -35.495 C 1693.44 -35.125 1694.73 -34.376 1695.87 -33.635 C 1696.97 -32.886 1698.24 -32.146 1699.35 -31.396 C 1700.48 -30.656 1701.59 -30.096 1702.86 -29.347 C 1703.96 -28.606 1705.28 -28.047 1706.37 -27.487 C 1707.48 -26.927 1708.79 -26.187 1709.9 -25.257 C 1710.99 -24.318 1712.28 -23.388 1713.41 -22.458 C 1714.52 -21.528 1715.6 -20.409 1716.9 -19.289 C 1718.03 -18.179 1719.87 -16.689 1722.26 -14.82 L 1722.26 -14.08 L 1739.06 13.294 C 1739.99 15.714 1740.54 17.393 1741.11 18.693 C 1741.65 19.813 1742.22 21.492 1742.57 23.352 L 1742.57 26.891 L 1743.15 27.641 L 1743.15 34.529 C 1743.68 36.949 1744.42 38.809 1745.34 40.118 L 1745.34 221.318 L 1665.57 221.318 L 1665.57 40.118 L 1566.18 40.118 L 1566.18 221.318 L 1486.41 221.318 L 1486.41 40.118 L 1387.02 40.118 L 1387.02 221.318 L 1307.2 221.318 L 1307.2 221.128 Z" style="stroke-width: 1; fill: rgb(0, 0, 0);"/>
    <g transform="matrix(1, 0, 0, 1, -5.226527, 5)">
      <path class="st0" d="M 1916.086 225.238 C 1915.135 225 1914.248 224.772 1913.446 224.564 C 1912.639 224.354 1911.9 224.16 1911.237 223.984 C 1910.577 223.811 1909.995 223.658 1909.475 223.522 C 1908.97 223.391 1908.6 223.298 1908.252 223.215 C 1907.863 223.131 1907.483 223.055 1907 222.961 C 1906.518 222.867 1906.008 222.772 1905.446 222.668 C 1904.884 222.563 1904.285 222.452 1903.644 222.332 C 1902.999 222.212 1902.607 222.137 1902.05 222.03 L 1900.435 222.03 L 1899.697 221.796 C 1898.79 221.507 1897.938 221.227 1897.168 220.968 C 1896.394 220.709 1895.689 220.467 1895.046 220.248 C 1894.4 220.028 1893.829 219.834 1893.293 219.659 C 1892.764 219.487 1892.177 219.305 1891.744 219.185 C 1891.246 219.025 1890.686 218.832 1890.194 218.65 C 1889.708 218.468 1889.162 218.253 1888.664 218.042 C 1888.176 217.834 1887.637 217.592 1887.146 217.357 C 1886.661 217.126 1886.121 216.853 1885.633 216.596 C 1885.195 216.363 1884.764 216.135 1884.334 215.91 C 1883.909 215.687 1883.504 215.479 1883.087 215.27 C 1882.673 215.062 1882.294 214.878 1881.89 214.688 C 1881.488 214.5 1880.73 214.149 1880.343 213.987 C 1879.952 213.778 1879.582 213.593 1879.165 213.389 C 1878.749 213.185 1878.33 212.986 1877.89 212.777 C 1877.451 212.568 1876.989 212.348 1876.521 212.119 C 1876.052 211.89 1875.538 211.631 1875.048 211.371 C 1874.56 211.113 1874.046 210.828 1873.576 210.559 C 1873.105 210.288 1872.61 209.995 1872.148 209.715 C 1871.687 209.436 1871.212 209.143 1870.758 208.858 C 1870.307 208.575 1869.852 208.288 1869.407 208.004 C 1868.929 207.701 1868.437 207.377 1867.975 207.067 C 1867.515 206.758 1867.055 206.443 1866.612 206.138 C 1866.17 205.836 1865.751 205.548 1865.329 205.264 C 1864.901 204.977 1864.507 204.718 1864.106 204.464 C 1863.574 204.123 1862.951 203.688 1862.397 203.279 C 1861.854 202.873 1861.244 202.397 1860.649 201.918 C 1860.063 201.444 1859.431 200.921 1858.783 200.378 C 1858.139 199.838 1857.456 199.26 1856.74 198.655 L 1854.97 197.157 L 1854.97 195.765 L 1850.909 190.391 L 1845.836 183.677 L 1840.764 176.966 L 1834.68 168.915 L 1834.68 167.177 C 1834.496 166.758 1834.447 166.65 1834.159 165.97 C 1833.87 165.287 1833.595 164.615 1833.362 164.026 C 1833.129 163.432 1832.908 162.844 1832.727 162.337 C 1832.541 161.814 1832.366 161.281 1832.235 160.851 L 1832.121 160.479 L 1832.074 160.132 C 1832.038 159.874 1831.99 159.643 1831.902 159.252 C 1831.808 158.841 1831.702 158.419 1831.562 157.9 C 1831.421 157.375 1831.263 156.816 1831.078 156.178 C 1830.891 155.535 1830.69 154.855 1830.469 154.114 L 1830.26 153.414 L 1830.26 152.305 C 1830.135 151.743 1830.052 151.363 1829.91 150.692 C 1829.768 150.02 1829.637 149.372 1829.523 148.797 C 1829.411 148.218 1829.306 147.657 1829.219 147.159 C 1829.132 146.661 1829.054 146.179 1828.994 145.768 C 1828.939 145.395 1828.879 144.988 1828.824 144.597 C 1828.771 144.206 1828.714 143.763 1828.667 143.35 C 1828.621 142.931 1828.578 142.446 1828.548 142.007 C 1828.521 141.568 1828.5 141.035 1828.5 140.568 C 1828.5 140.193 1828.5 139.819 1828.5 139.445 C 1828.5 139.071 1828.5 138.698 1828.5 138.325 C 1828.5 137.952 1828.5 137.579 1828.5 137.207 C 1828.5 136.834 1828.5 136.462 1828.5 136.09 C 1828.5 135.718 1828.5 135.345 1828.5 134.971 C 1828.5 134.598 1828.5 134.225 1828.5 133.851 C 1828.5 133.477 1828.5 133.103 1828.5 132.73 C 1828.5 132.357 1828.5 131.984 1828.5 131.612 C 1828.5 131.24 1828.5 130.867 1828.5 130.497 C 1828.5 130.128 1828.5 129.761 1828.5 129.4 C 1828.5 129.039 1828.5 128.683 1828.5 128.336 C 1828.5 127.989 1828.5 127.65 1828.5 127.323 C 1828.5 126.951 1828.5 126.578 1828.5 126.204 C 1828.5 125.831 1828.5 125.458 1828.5 125.084 C 1828.5 124.711 1828.5 124.337 1828.5 123.964 C 1828.5 123.591 1828.5 123.218 1828.5 122.845 C 1828.5 122.473 1828.5 122.1 1828.5 121.728 C 1828.5 121.355 1828.5 120.983 1828.5 120.61 C 1828.5 120.238 1828.5 119.866 1828.5 119.493 C 1828.5 119.121 1828.5 118.749 1828.5 118.376 C 1828.5 118.002 1828.5 117.628 1828.5 117.254 C 1828.5 116.88 1828.5 116.507 1828.5 116.134 C 1828.5 115.761 1828.5 115.388 1828.5 115.016 C 1828.5 114.643 1828.5 114.271 1828.5 113.898 C 1828.5 113.524 1828.5 113.15 1828.5 112.776 C 1828.5 112.402 1828.5 112.029 1828.5 111.656 C 1828.5 111.283 1828.5 110.91 1828.5 110.538 C 1828.5 110.165 1828.5 109.793 1828.5 109.42 C 1828.5 109.048 1828.5 108.675 1828.5 108.302 C 1828.5 107.93 1828.5 107.557 1828.5 107.184 C 1828.5 106.811 1828.5 106.438 1828.5 106.064 C 1828.5 105.691 1828.5 105.317 1828.5 104.942 C 1828.5 104.57 1828.5 104.197 1828.5 103.824 C 1828.5 103.452 1828.5 103.079 1828.5 102.706 C 1828.5 102.333 1828.5 101.96 1828.5 101.586 C 1828.5 101.213 1828.5 100.839 1828.5 100.464 C 1828.5 100.092 1828.5 99.719 1828.5 99.347 C 1828.5 98.974 1828.5 98.602 1828.5 98.229 C 1828.5 97.857 1828.5 97.484 1828.5 97.112 C 1828.5 96.739 1828.5 96.367 1828.5 95.995 C 1828.5 95.621 1828.5 95.246 1828.5 94.872 C 1828.5 94.499 1828.5 94.125 1828.5 93.752 C 1828.5 93.379 1828.5 93.007 1828.5 92.634 C 1828.5 92.262 1828.5 91.89 1828.5 91.517 C 1828.5 91.145 1828.5 90.772 1828.5 90.398 C 1828.5 90.025 1828.5 89.652 1828.5 89.278 C 1828.5 88.904 1828.5 88.53 1828.5 88.157 C 1828.5 87.784 1828.5 87.411 1828.5 87.038 C 1828.5 86.666 1828.5 86.294 1828.5 85.921 C 1828.5 85.549 1828.5 85.176 1828.5 84.803 C 1828.5 84.43 1828.5 84.057 1828.5 83.683 C 1828.5 83.309 1828.5 82.935 1828.5 82.56 C 1828.5 82.188 1828.5 81.816 1828.5 81.443 C 1828.5 81.071 1828.5 80.699 1828.5 80.326 C 1828.5 79.954 1828.5 79.581 1828.5 79.209 C 1828.5 78.836 1828.5 78.464 1828.5 78.091 C 1828.5 77.717 1828.5 77.343 1828.5 76.969 C 1828.5 76.595 1828.5 76.222 1828.5 75.849 C 1828.5 75.476 1828.5 75.103 1828.5 74.731 C 1828.5 74.358 1828.5 73.986 1828.5 73.613 C 1828.5 73.241 1828.5 72.868 1828.5 72.494 C 1828.5 72.121 1828.5 71.748 1828.5 71.374 C 1828.5 71.001 1828.5 70.627 1828.5 70.254 C 1828.5 69.881 1828.5 69.508 1828.5 69.135 C 1828.5 68.763 1828.5 68.39 1828.5 68.017 C 1828.5 67.645 1828.5 67.272 1828.5 66.899 C 1828.5 66.526 1828.5 66.153 1828.5 65.779 C 1828.5 65.406 1828.5 65.032 1828.5 64.657 C 1828.5 64.285 1828.5 63.912 1828.5 63.54 C 1828.5 63.167 1828.5 62.795 1828.5 62.422 C 1828.5 62.05 1828.5 61.678 1828.5 61.305 C 1828.5 60.933 1828.5 60.561 1828.5 60.188 C 1828.5 59.813 1828.5 59.439 1828.5 59.065 C 1828.5 58.692 1828.5 58.319 1828.5 57.946 C 1828.5 57.573 1828.5 57.2 1828.5 56.828 C 1828.5 56.455 1828.5 56.082 1828.5 55.71 C 1828.5 55.338 1828.5 54.965 1828.5 54.591 C 1828.5 54.218 1828.5 53.845 1828.5 53.471 C 1828.5 53.097 1828.5 52.723 1828.5 52.35 C 1828.5 51.977 1828.5 51.604 1828.5 51.232 C 1828.5 50.86 1828.5 50.487 1828.5 50.114 C 1828.5 49.742 1828.5 49.369 1828.5 48.996 C 1828.5 48.623 1828.5 48.25 1828.5 47.876 C 1828.5 47.503 1828.5 47.129 1828.5 46.754 C 1828.5 46.381 1828.5 46.009 1828.5 45.639 C 1828.5 45.27 1828.5 44.903 1828.5 44.542 C 1828.5 44.181 1828.5 43.825 1828.5 43.478 C 1828.5 43.131 1828.5 42.792 1828.5 42.465 C 1828.5 42.093 1828.5 41.673 1828.5 41.207 C 1828.5 40.741 1828.5 40.229 1828.5 39.669 C 1828.5 39.11 1828.5 38.504 1828.5 37.852 C 1828.5 37.2 1828.5 36.502 1828.5 35.757 L 1828.5 35.211 L 1828.618 34.679 C 1828.78 33.944 1828.926 33.265 1829.059 32.629 C 1829.191 31.996 1829.306 31.426 1829.412 30.882 C 1829.517 30.344 1829.605 29.87 1829.681 29.432 C 1829.757 28.998 1829.814 28.646 1829.864 28.309 C 1829.934 27.848 1830.034 27.302 1830.128 26.86 C 1830.223 26.425 1830.34 25.946 1830.448 25.53 C 1830.557 25.117 1830.68 24.677 1830.797 24.279 C 1830.913 23.882 1831.029 23.497 1831.139 23.132 C 1831.218 22.861 1831.275 22.629 1831.354 22.293 C 1831.432 21.966 1831.504 21.632 1831.588 21.252 C 1831.67 20.879 1831.762 20.459 1831.863 20.038 C 1831.962 19.625 1832.042 19.32 1832.147 18.943 C 1832.236 18.407 1832.315 18.117 1832.45 17.623 C 1832.593 17.125 1832.784 16.549 1832.944 16.11 C 1833.107 15.675 1833.297 15.201 1833.47 14.79 C 1833.643 14.378 1833.839 13.932 1833.997 13.571 C 1834.164 13.199 1834.337 12.81 1834.517 12.418 C 1834.697 12.021 1834.893 11.602 1835.087 11.199 C 1835.281 10.797 1835.506 10.346 1835.727 9.925 C 1835.947 9.509 1836.11 9.214 1836.313 8.858 C 1836.475 8.499 1836.544 8.342 1836.719 7.955 C 1836.894 7.569 1837.092 7.138 1837.284 6.734 C 1837.479 6.329 1837.71 5.865 1837.932 5.442 C 1838.156 5.019 1838.329 4.71 1838.541 4.344 C 1838.71 3.981 1838.856 3.675 1839.083 3.238 C 1839.306 2.809 1839.577 2.317 1839.833 1.883 C 1840.088 1.451 1840.392 0.966 1840.675 0.54 C 1840.961 0.109 1841.298 -0.37 1841.609 -0.7919999999999999 C 1841.882 -1.162 1842.15 -1.524 1842.416 -1.888 C 1842.677 -2.246 1842.921 -2.584 1843.166 -2.933 C 1843.408 -3.276 1843.621 -3.588 1843.842 -3.924 C 1844.064 -4.26 1844.497 -4.925 1844.681 -5.237 C 1844.954 -5.611 1845.249 -6.015 1845.554 -6.4190000000000005 C 1845.86 -6.8260000000000005 1846.21 -7.275 1846.546 -7.6899999999999995 C 1846.886 -8.105 1847.294 -8.583 1847.688 -9.017 C 1848.079 -9.445 1848.447 -9.824 1848.848 -10.219 C 1849.209 -10.627 1849.481 -10.92 1849.849 -11.312 C 1850.217 -11.703 1850.599 -12.102 1850.954 -12.473 C 1851.314 -12.846 1851.661 -13.208 1851.996 -13.563 C 1852.335 -13.92 1852.627 -14.233 1852.92 -14.564 C 1853.328 -15.019 1853.846 -15.554 1854.338 -16.031 C 1854.827 -16.503 1855.394 -17.022 1855.956 -17.523 C 1856.517 -18.021 1857.144 -18.564 1857.786 -19.114 C 1858.423 -19.657 1859.104 -20.234 1859.82 -20.84 L 1861.218 -22.023 L 1863.075 -22.023 L 1869.6 -25.676 L 1877.263 -29.968 L 1884.925 -34.258 L 1893.725 -39.186 L 1895.58 -39.186 C 1896.195 -39.38 1896.568 -39.497 1897.337 -39.734 C 1898.105 -39.97 1898.848 -40.194 1899.528 -40.389 C 1900.213 -40.585 1900.896 -40.77 1901.509 -40.922 C 1902.134 -41.077 1903.191 -41.279 1903.762 -41.388 C 1904.116 -41.424 1904.47 -41.476 1904.971 -41.559 C 1905.48 -41.642 1906.024 -41.742 1906.657 -41.865 C 1907.295 -41.988 1907.975 -42.127 1908.737 -42.286 C 1909.503 -42.445 1910.32 -42.618 1911.198 -42.805 L 1911.713 -42.915 L 1912.937 -42.915 C 1913.684 -43.033 1914.271 -43.124 1915.045 -43.243 C 1915.822 -43.363 1916.532 -43.472 1917.184 -43.575 C 1917.838 -43.678 1918.407 -43.77 1918.93 -43.861 C 1919.451 -43.951 1919.842 -44.023 1920.222 -44.104 C 1920.683 -44.203 1921.153 -44.3 1921.615 -44.396 C 1922.081 -44.493 1922.537 -44.588 1922.996 -44.688 C 1923.461 -44.789 1923.891 -44.885 1924.344 -44.995 C 1924.805 -45.107 1925.212 -45.211 1925.654 -45.337 L 1926.316 -45.524 L 2219.4 -45.524 L 2219.4 44.296 L 1933.11 44.296 L 1933.11 134.629 L 2219.4 134.629 L 2219.4 226.318 L 1912.3 226.318 L 1912.3 224.291 L 1916.086 225.238" style="stroke-width: 1; fill: rgb(0, 0, 0);"/>
    </g>
    <g transform="matrix(0.305917, 0, 0, 0.293913, 2184.348877, -102.529556)" style="">
      <path class="st0" d="M647.9,1256.1c1.5-22.9,3-45.7,4.5-68.4c0.1-1.7,0.6-3.5,0.3-5.1c-4.3-23.4,8.7-36.5,25.6-50.2 c93-75.5,179.9-157.3,254-251.9c24.5-31.2,46.9-63.7,62.4-100.6c1-2.5,2-4.9,3.5-8.7c-12,7.3-23.1,13.3-33.4,20.5 c-10.6,7.4-20.4,15.9-30.5,23.9c-1.6,1.3-3,3-4.8,3.7c-22,8.5-50.3-9.5-52.5-33.2c-2.5-26.6,2.9-51.6,15-75.2 c1.7-3.2,3.2-6.5,5.1-10.3c-56.6-9.3-87.8-44-102.2-94.8c81.2-30,144.7-79.9,192.5-154.2c-32.1-0.5-53.5-14.7-68.8-38.5 c-15-23.3-19.9-49.8-21.1-77.1c-0.4-9.8-0.1-19.6-0.1-29.3c74.8,9.5,144.9-9.1,213.4-39.2c22.4-9.9,35.7-24.2,42.3-47.9 c12.4-44.5,23.1-89.1,25.6-135.4c1.3-23.4-13-45.5-35.8-54.4c4-3,7.2-6,10.8-8.2c21.6-13.5,45.1-20.9,70.6-21.4 c42.2-0.8,83.5,4.5,120.5,26.1c13.7,8,26.4,19.8,35.7,32.7c18.3,25.6,10.5,52.7-17.7,66.3c-37.5,18-67.2,43.9-86.6,83.7 c4.3-1.9,7.1-3.1,9.9-4.3c34.8-15.6,70.1-30.3,104.4-47.1c45.8-22.4,86.4-13.5,124.8,16.7c20.9,16.5,38.6,35.6,49.7,60.1 c8.5,18.8,6.5,36-8,51c-8.8,9-18.1,17.6-27.8,25.7c-26.6,22.4-44.7,49.8-54.2,83.6c-14,49.5-30.4,98.3-44.7,147.8 c-10.3,35.3-30.5,62.7-62.4,80.2c-35.8,19.6-72.8,37.3-109.2,55.8c-3.3,1.7-6.7,3-10.5,4.7c23.1,50.9,9.9,98-12.2,144.1 c-22.7,47.3-47,93.9-68.5,141.8c-18.7,41.5-31.5,85.1-32.6,131.2c-0.3,10.5-0.2,21.3,1.7,31.6c6.4,34.4,31.4,50.9,65.9,44.1 c27.4-5.4,50.8-19.6,73.4-34.9c62.5-42.6,115.7-95.5,166.3-151.3c70.6-77.8,128.2-163.7,165.2-262.6 c15.5-41.6,28.8-83.8,32.8-128.4c3.3-37.8-3.4-73.3-21.9-106.5c-1.2-2.2-2.5-4.5-2.9-7.2c19,17.9,32.8,39.5,44.8,62.4 c29.4,56.1,30.9,114.9,16.9,175.3c-18,78.2-56.1,146.7-101.9,211.5c-58.5,82.8-127.8,155.5-206.2,219.5c-0.5,0.4-0.9,1-0.5,3 c6-3.5,12-6.7,17.9-10.4c90-56.6,163.5-130.5,225.5-216.3c45.8-63.2,80.5-131.8,102.2-207.2c29.5-102.7,2.5-189.6-70.6-264.5 c-30.8-31.5-66.2-55.8-109.5-67c-3.6-0.9-7.2-1.6-11.5-4.9c13-2.7,26-6.4,39.1-8c60.3-7.3,119.5-1.9,176.1,20.8 c85.3,34.1,133,99.1,149.5,188.1c14.6,78.6,1.6,154.9-21.5,230.1c-34.4,112.4-93.5,211.7-163.8,304.9 c-33.2,44-69.7,85-109.5,123.1c-3.4,3.3-7,6.2-9.9,10.5c37.3-4.2,72.2-15.4,106.3-29.7c34.3-14.4,66.7-32.1,94.9-57 c-38.3,64.5-86.9,119.2-148.2,163.7c52.8-8.5,105.6-17,156.2-25.1c-20.5,14.9-222.7,76.2-298.2,89.7 c-104.9,18.7-210.1,13.3-313.6,4.6c50.6-12.7,102.8-25.8,155-38.9c-0.3-1.4-0.6-2.7-0.9-4.1c-7,1-14.1,2.1-21.1,3 c-58.7,7.6-117.1,9-174.4-9.1c-68.4-21.6-110.7-78.5-113.8-150.3c-2.8-65.2,12.6-127,36.3-186.4c24-60.1,52.1-118.5,78.1-177.8 c11.1-25.3,22.4-50.5,31.5-76.5c7.6-21.6,1.5-35.7-15.5-46.2c-49.3,150.4-140.3,272.1-258.2,375.4 c-71.9,63-149.6,117.7-235.5,160.1c-3.4,1.7-6.7,3.3-10.2,4.8C650.2,1256.2,649.1,1256,647.9,1256.1z M1212.8,394.5 c2.5-0.5,3.8-0.6,5-1.1c49.1-18.4,98.2-36.7,147.2-55.4c2.8-1.1,6.1-4.5,6.7-7.4c2.9-13.6,5.4-27.4,7.3-41.2 c1.7-12.1-1.7-14.7-13.8-11.3c-46.1,12.9-90.4,30.4-133.3,51.4c-3,1.5-6.8,4.5-7.4,7.4C1220.1,355.7,1216.7,374.7,1212.8,394.5z M1188.6,538.4c47.6-22.1,95.2-44.1,142.6-66.3c2.2-1,4.8-3.1,5.4-5.2c4.2-15.6,8-31.4,12.3-48.6c-50,18-97.1,38.2-142.2,62.8 c-2,1.1-3.8,3.9-4.5,6.2C1197.4,504.6,1192.9,522,1188.6,538.4z M992.3,657c0.5,0.6,1,1.2,1.5,1.8 c34.5-21.2,68.7-42.9,103.6-63.5c10.3-6.1,17.2-13.4,21.5-24.4c6.7-17,14.2-33.5,22.5-52.7c-3.9,2.1-5.2,2.6-6.2,3.3 c-41.3,29.6-82.5,59.2-123.7,89.1c-2.8,2-5.1,5.5-6.3,8.9C1000.6,631.8,996.5,644.5,992.3,657z M1166.7,360.9 c-0.8-0.7-1.7-1.4-2.5-2.1c-37.4,23.6-74.9,47.1-112.2,70.8c-2,1.3-3.8,4.2-4.1,6.5c-1.2,10.7-1.9,21.5-2.8,33.2 c3.6-1.4,6.1-2.3,8.5-3.4c34.3-16,68.5-32,102.7-48.2c2-0.9,3.8-4,4.1-6.2C1162.7,394.7,1164.6,377.8,1166.7,360.9z M1286.6,575.9c-0.8-0.9-1.6-1.9-2.4-2.8c-38.8,27.5-77.7,55-116.5,82.4c0.7,1,1.4,2,2.2,3.1 C1218.7,645.3,1253.3,611.5,1286.6,575.9z" style="fill: rgb(0, 0, 0);"/>
      <path class="st0" d="M652.2,715C576.8,867.1,462.1,977.6,314,1054.4c-32.5,16.8-67.7,27-104,32.9c-2.7,0.4-5.4,0.7-8.1,0.9 c-0.9,0.1-1.7-0.3-4-0.7c146-127.3,265.2-275.2,361.7-441.6c-0.6-0.7-1.3-1.3-1.9-2c-6.6,5.5-13.3,10.9-19.9,16.4 c-33.8,27.8-67.9,55.1-107.3,74.8c-29.2,14.6-59.8,23.7-92.8,18.3c-40.1-6.6-70.4-29.1-92.1-62.5c-11.5-17.8-19.7-37.9-29.7-57.5 c3-1.1,3.9-1.7,4.7-1.6c50.8,7,98.1-7.1,145-23.5c79.4-27.9,153.9-66.4,228.6-104.6c46.7-23.9,92.7-49.4,138.4-75.2 c16.2-9.2,30.9-21.3,45.9-32.5c5.4-4,11.9-8.4,14.5-14.1c6-12.8,14.4-10.3,24.2-6.6c31.8,11.9,56.1,31.9,69.8,63.5 c8.2,18.9,6.6,37.1-6.5,52.9c-8,9.6-17,19.3-27.5,25.6c-31.3,18.6-63.7,35.5-95.5,53.2c-16.3,9.1-32.4,18.7-47.8,27.6 c20.6,23.5,41.6,45.9,60.7,69.7c20.4,25.3,37.2,53.1,45.7,85c16.7,62.8-15.5,112.8-79.7,121.8c-13.1,1.8-22.4,6.9-31.6,15.7 c-43.3,41.7-91.6,76.4-146.6,101.5c-5.4,2.5-11,4.6-19,7.9C602.5,913.2,647.2,822.4,652.2,715z" style="fill: rgb(0, 0, 0);"/>
      <path class="st0" d="M386.4,1651c33.5-2.5,66.9-4.9,100.4-7.4c0.1,0.3,0.2,0.7,0.3,1c-21.7,9.2-43.4,18.5-65,27.7 c0.1,1,0.3,1.9,0.4,2.9c44-2.2,87.9-4.3,131.9-6.5c-144.4,42.1-290.5,74.9-443.2,80.3c28.5-9.4,55.7-18.3,82.9-27.3 c-0.2-0.4-0.3-0.8-0.5-1.2c-17.8-1-35.7-1.3-53.5-3.1c-78.6-8.1-129.6-58.3-137.9-136.4c-8.9-83.4,11.1-161.3,48.5-235.1 c31.5-62,74.2-114.3,135.4-149.7c6.8-3.9,13.8-7.5,20.7-11.1c4.2-2.1,8.5-4,15.8-7.3c-7.2,10.7-12.7,18.9-18.3,27.2 c-38.2,56.7-73.7,114.8-96.5,179.7c-11.4,32.4-19.7,65.3-18,100c2.7,56.2,41.3,84.3,95.9,69.4c30.4-8.3,55.3-26.5,78.9-46.1 c65.5-54.2,119.9-117.2,154.6-195.8c13.7-31.1,21.8-63.4,16.7-97.5c-8.2-54.6-54-90.6-111.8-87.9c-15.2,0.7-30.2,4.2-48.4,6.9 c18.7-9.1,34.6-18.2,51.5-24.8c59.4-22.9,119.6-27.1,179.5-2.1c54.9,22.9,84.9,65.6,93.5,123.6c8.5,57.2-5,111.3-26.3,163.7 c-38.3,94.4-93.2,177.3-172.5,242.7c-5,4.1-10.2,8-15.3,11.9C386.2,1649.6,386.3,1650.3,386.4,1651z M471.3,1167.6 c0,1.4-0.1,2.7,0,4c0.3,2.4,0.8,4.7,1.2,7.1c7,41.5,7.1,82.7-2.5,123.9c-18.1,77.6-60.4,141.3-114.8,197.4 c-29.8,30.7-62.7,58.4-94.1,87.5c2.2-2.4,5.8-3.8,9.2-5.7c83.9-46.7,148.6-112.5,195-196.3c25.1-45.3,40.1-93.2,32.8-146 C494.5,1213.7,486.2,1189.5,471.3,1167.6z M61,1486.4c-1.2,0.1-2.4,0.1-3.6,0.2c0,18.6-1.2,37.4,0.3,55.8 c2.2,26.1,12.3,48.6,38.1,59.6c24.8,10.6,49,5.9,74.4-4.7C88.2,1582.6,77.3,1571.3,61,1486.4z" style="fill: rgb(0, 0, 0);"/>
      <path class="st0" d="M1168.7,1044.6c19.8-10.5,39.5-19.9,58.3-31c35-20.6,64.6-46.9,81-85.3c3.1-7.3,4.6-15.2,5.6-23.7 c-35.5,18.4-70.6,36.5-91.9,72.3c-11.3-7.2-17.4-21.7-11.5-39.3c6-17.8,14-35.7,24.7-51c13.9-20.1,31.2-37.9,47.2-56.4 c12.7-14.7,26.4-28.6,38.6-43.7c17.9-22.1,32.9-45.7,24.4-77.1c39.8-3.1,70.2,11.8,93.8,41.6c11.2,14.1,18.3,30.2,21.2,48.2 c2.5,15.7-1.6,28.7-15.6,37c-27.5,16.4-55.4,32.2-83.1,48.2c-2.3,1.3-4.6,2.5-8.4,4.6c4.6,2.8,8.1,4.7,11.2,7.1 c11.7,9.2,24.9,17.2,34.6,28.2c17.2,19.7,16.3,40.8-0.1,61.3c-16.3,20.3-37.5,34.7-59.4,48c-28.1,17-57.3,31.2-89.6,39.1 C1216.1,1080.7,1192,1064.9,1168.7,1044.6z" style="fill: rgb(0, 0, 0);"/>
      <path class="st0" d="M488.6,219.1c108.1,28.2,203.9-9.3,300.9-57.7c-2.1,15.7-2.2,28.7-5.8,40.7c-24.4,82-76.1,141-154.3,175.1 c-46.8,20.4-84.9,6.2-110.9-37.5c-20.9-35.2-29.5-73.8-30.7-114.3C487.7,223.7,488.2,222,488.6,219.1z" style="fill: rgb(0, 0, 0);"/>
      <path class="st0" d="M194.4,1367.7c2.3-27.9,16.2-55.2,44-74.6c5.7-4,12.6-6.9,19.4-8.8c20.3-5.5,36.4,4.4,39.9,25.3 c4.9,29.6-7.6,54.1-26.2,75.6c-7.2,8.3-16.6,15.6-26.3,20.5C216.1,1420.5,193.9,1405.9,194.4,1367.7z" style="fill: rgb(0, 0, 0);"/>
    </g>
    <g fill="#ffffff" transform="matrix(2.578598, 0, 0, 1.451987, 821.887024, 302.971863)" style="">
      <g transform="translate(0, 0)">
        <path d="M5.49 21.02Q4.47 21.02 3.55 20.62Q2.64 20.21 1.95 19.54Q1.27 18.87 0.88 17.96Q0.49 17.04 0.49 16.02L0.49 6.01Q0.49 4.98 0.88 4.06Q1.27 3.15 1.95 2.48Q2.64 1.81 3.55 1.40Q4.47 1.00 5.49 1.00L22.49 1.00Q23.51 1.00 24.43 1.40Q25.34 1.81 26.03 2.48Q26.71 3.15 27.10 4.06Q27.49 4.98 27.49 6.01L27.49 10.52L22.49 10.52L22.49 6.01L5.49 6.01L5.49 16.02L22.49 16.02Q23.51 16.02 24.43 16.41Q25.34 16.80 26.03 17.48Q26.71 18.16 27.10 19.08Q27.49 20.00 27.49 21.02L27.49 31.01Q27.49 32.03 27.10 32.95Q26.71 33.86 26.03 34.55Q25.34 35.23 24.43 35.62Q23.51 36.01 22.49 36.01L5.00 36.01Q3.98 36.01 3.06 35.62Q2.15 35.23 1.46 34.55Q0.78 33.86 0.39 32.95Q0 32.03 0 31.01L0 26.51L5.00 26.51L5.00 31.01L22.49 31.01L22.49 21.02L5.49 21.02ZM66.50 31.01Q66.50 32.03 66.11 32.95Q65.72 33.86 65.04 34.55Q64.36 35.23 63.44 35.62Q62.52 36.01 61.50 36.01L41.50 36.01Q40.48 36.01 39.56 35.62Q38.65 35.23 37.96 34.55Q37.28 33.86 36.89 32.95Q36.50 32.03 36.50 31.01L36.50 6.01Q36.50 4.98 36.89 4.06Q37.28 3.15 37.96 2.48Q38.65 1.81 39.56 1.40Q40.48 1.00 41.50 1.00L61.50 1.00Q62.52 1.00 63.44 1.40Q64.36 1.81 65.04 2.48Q65.72 3.15 66.11 4.06Q66.50 4.98 66.50 6.01L66.50 31.01M41.50 6.01L41.50 31.01L61.50 31.01L61.50 6.01L41.50 6.01ZM75.49 1.00L80.49 1.00L80.49 31.01L100.49 31.01L100.49 1.00L105.49 1.00L105.49 31.01Q105.49 32.03 105.10 32.95Q104.71 33.86 104.03 34.55Q103.34 35.23 102.43 35.62Q101.51 36.01 100.49 36.01L80.49 36.01Q79.47 36.01 78.55 35.62Q77.64 35.23 76.95 34.55Q76.27 33.86 75.88 32.95Q75.49 32.03 75.49 31.01L75.49 1.00ZM119.48 1.00L119.48 31.01L137.48 31.01L137.48 36.01L114.48 36.01L114.48 1.00L119.48 1.00ZM176.54 36.01L163.48 10.35L163.48 36.01L158.47 36.01L158.47 1.00L163.94 1.00L177.27 27.37L190.63 1.00L196.07 1.00L196.07 36.01L191.09 36.01L191.09 10.35L178.03 36.01L176.54 36.01ZM235.08 31.01Q235.08 32.03 234.69 32.95Q234.30 33.86 233.62 34.55Q232.93 35.23 232.02 35.62Q231.10 36.01 230.08 36.01L210.08 36.01Q209.06 36.01 208.14 35.62Q207.23 35.23 206.54 34.55Q205.86 33.86 205.47 32.95Q205.08 32.03 205.08 31.01L205.08 6.01Q205.08 4.98 205.47 4.06Q205.86 3.15 206.54 2.48Q207.23 1.81 208.14 1.40Q209.06 1.00 210.08 1.00L230.08 1.00Q231.10 1.00 232.02 1.40Q232.93 1.81 233.62 2.48Q234.30 3.15 234.69 4.06Q235.08 4.98 235.08 6.01L235.08 31.01M210.08 6.01L210.08 31.01L230.08 31.01L230.08 6.01L210.08 6.01ZM241.06 1.00L269.07 1.00L269.07 6.01L257.57 6.01L257.57 36.01L252.56 36.01L252.56 6.01L241.06 6.01L241.06 1.00ZM305.08 31.01Q305.08 32.03 304.69 32.95Q304.30 33.86 303.61 34.55Q302.93 35.23 302.01 35.62Q301.10 36.01 300.07 36.01L280.08 36.01Q279.05 36.01 278.14 35.62Q277.22 35.23 276.54 34.55Q275.85 33.86 275.46 32.95Q275.07 32.03 275.07 31.01L275.07 6.01Q275.07 4.98 275.46 4.06Q275.85 3.15 276.54 2.48Q277.22 1.81 278.14 1.40Q279.05 1.00 280.08 1.00L300.07 1.00Q301.10 1.00 302.01 1.40Q302.93 1.81 303.61 2.48Q304.30 3.15 304.69 4.06Q305.08 4.98 305.08 6.01L305.08 31.01M280.08 6.01L280.08 31.01L300.07 31.01L300.07 6.01L280.08 6.01ZM329.05 6.01Q329.05 4.98 329.44 4.06Q329.83 3.15 330.52 2.48Q331.20 1.81 332.12 1.40Q333.03 1.00 334.06 1.00L353.05 1.00Q354.08 1.00 354.99 1.40Q355.91 1.81 356.59 2.48Q357.28 3.15 357.67 4.06Q358.06 4.98 358.06 6.01L358.06 10.52L353.05 10.52L353.05 6.01L334.06 6.01L334.06 31.01L353.05 31.01L353.05 26.51L358.06 26.51L358.06 31.01Q358.06 32.03 357.67 32.95Q357.28 33.86 356.59 34.55Q355.91 35.23 354.99 35.62Q354.08 36.01 353.05 36.01L334.06 36.01Q333.03 36.01 332.12 35.62Q331.20 35.23 330.52 34.55Q329.83 33.86 329.44 32.95Q329.05 32.03 329.05 31.01L329.05 6.01ZM393.73 13.50Q393.73 20.83 387.48 21.85L394.07 36.01L388.53 36.01L382.03 22.02L371.07 22.02L371.07 36.01L366.06 36.01L366.06 1.00L385.23 1.00Q393.73 1.00 393.73 9.52L393.73 13.50M371.07 17.02L384.96 17.02Q386.96 17.02 387.84 16.14Q388.72 15.26 388.72 13.26L388.72 9.77Q388.72 7.76 387.84 6.88Q386.96 6.01 384.96 6.01L371.07 6.01L371.07 17.02ZM402.08 1.00L427.59 1.00L427.59 6.01L407.08 6.01L407.08 16.02L424.58 16.02L424.58 21.02L407.08 21.02L407.08 31.01L427.59 31.01L427.59 36.01L402.08 36.01L402.08 1.00ZM442.09 36.01L432.08 1.00L437.08 1.00L444.85 28.86L452.59 1.00L457.59 1.00L465.33 28.86L473.10 1.00L478.10 1.00L468.09 36.01L462.60 36.01L455.10 9.77L447.58 36.01L442.09 36.01Z" style="fill: rgb(0, 0, 0);"/>
      </g>
    </g>
  </g>
</svg>