<?xml version="1.0" encoding="utf-8"?>
<!-- Generator: Adobe Illustrator 24.0.2, SVG Export Plug-In . SVG Version: 6.00 Build 0)  -->
<svg version="1.1" xmlns="http://www.w3.org/2000/svg" xmlns:xlink="http://www.w3.org/1999/xlink" x="0px" y="0px"
	 viewBox="0 0 1928.8 2175" style="enable-background:new 0 0 1928.8 2175;" xml:space="preserve">
<style type="text/css">
	.st0{fill:#FFFFF5;}
	.st1{fill:none;stroke:#000000;stroke-width:10;stroke-miterlimit:10;}
</style>
<g id="Layer_1">
</g>
<g id="Layer_2">
	<rect x="-143.5" y="-460.3" width="2238.2" height="2838.2"/>
	<g>
		<g>
			<path class="st0" d="M1133.3,1817.1V1785h129.2v-22h-88.2l-0.3-0.4h-3.9c-1.2-0.3-2.1-0.5-2.7-0.6c-0.6-0.1-1.3-0.2-1.9-0.3
				c-0.6-0.1-1.2-0.3-1.9-0.4s-1.3-0.3-1.9-0.6c-0.6-0.2-1.3-0.4-1.9-0.5c-0.6-0.1-1.2-0.3-1.9-0.6c-0.6-0.3-1.3-0.5-1.9-0.8
				c-0.6-0.2-1.2-0.5-1.9-0.7c-0.6-0.2-1.3-0.5-1.9-1c-0.6-0.4-1.2-0.8-1.9-1.2c-0.6-0.4-1.3-0.7-1.9-1.1c-0.6-0.4-1.3-0.8-1.9-1.3
				c-0.6-0.5-1.2-1.1-1.9-1.7c-0.6-0.6-1.3-1.1-1.9-1.7c-0.6-0.5-1.5-1.4-2.8-2.7v-0.3l-4.8-7.6l-1.5-4.4c-0.3-1.3-0.5-2.2-0.6-2.9
				c-0.1-0.6-0.1-1.3-0.1-1.9c0-0.6,0-1,0-1.3v-22c0.2-1.3,0.3-2.2,0.5-2.8c0.1-0.6,0.3-1.2,0.6-1.9c0.2-0.6,0.5-1.3,0.8-1.9
				c0.3-0.6,0.5-1.2,0.8-1.9c0.2-0.6,0.5-1.3,0.9-1.9c0.4-0.6,0.8-1.3,1.3-1.9c0.5-0.6,1-1.2,1.5-1.9c0.5-0.6,1-1.3,1.5-1.9
				c0.5-0.6,1.4-1.5,2.7-2.8h0.3l10.9-7l5.9-2.3c1.3-0.5,2.2-0.8,2.9-0.9c0.6-0.1,1.5-0.3,2.5-0.6h0.7c1.3-0.2,2.2-0.3,2.8-0.5
				c0.6-0.1,1.2-0.2,1.9-0.2c0.6,0,1.3,0,2.1,0h0.4l0.3-0.4h131.9v32.2h-130v22h88.2l0.4,0.4h3.7c1.2,0.2,2.1,0.3,2.8,0.5
				c0.6,0.1,1.3,0.3,1.9,0.4c0.6,0.1,1.3,0.3,1.9,0.4c0.6,0.1,1.2,0.3,1.9,0.3c0.6,0.1,1.3,0.3,1.9,0.6c0.6,0.3,1.2,0.5,1.9,0.8
				c0.6,0.2,1.3,0.5,1.9,0.8c0.6,0.3,1.2,0.5,1.9,0.8c0.6,0.2,1.3,0.5,1.9,0.9c0.6,0.4,1.3,0.7,1.9,1.1c0.6,0.4,1.2,0.8,1.9,1.2
				c0.6,0.4,1.3,0.8,1.9,1.2c0.6,0.4,1.2,0.8,1.9,1.3c0.6,0.5,1.3,1.1,1.9,1.7c0.6,0.6,1.2,1.1,1.9,1.7c0.6,0.5,1.3,1.1,2.1,1.9v0.4
				l4.9,8.3c0.5,1.2,0.8,2.1,0.9,2.8c0.1,0.6,0.3,1.5,0.5,2.5v0.7l0.4,0.4v25c-0.3,1.2-0.5,2.1-0.6,2.8c-0.1,0.6-0.3,1.3-0.6,1.9
				c-0.3,0.6-0.5,1.3-0.8,1.9c-0.2,0.6-0.5,1.2-0.8,1.9c-0.3,0.6-0.6,1.3-1,1.9c-0.4,0.6-0.7,1.2-1.1,1.9c-0.4,0.6-0.8,1.3-1.3,1.9
				c-0.5,0.6-1.1,1.2-1.7,1.9c-0.6,0.6-1,1.1-1.3,1.4h-0.4l-13.8,8.9l-5,1.8c-1.2,0.6-2.1,0.9-2.8,1s-1.6,0.3-2.7,0.5h-0.8
				c-1.2,0.3-2.1,0.5-2.8,0.6c-0.6,0.1-1.3,0.2-1.9,0.2c-0.6,0-1.3,0-2.1,0h-0.3l-0.4,0.3H1133.3z"/>
			<path class="st0" d="M1359.9,1817.1c-1.5-0.3-2.6-0.4-3.3-0.4c-0.7,0-1.5-0.1-2.2-0.2c-0.7-0.1-1.5-0.3-2.2-0.6
				c-0.7-0.3-1.5-0.5-2.2-0.7c-0.7-0.2-1.5-0.4-2.2-0.7s-1.5-0.5-2.2-0.8c-0.7-0.3-1.5-0.6-2.2-1.1c-0.7-0.5-1.5-0.9-2.2-1.4
				c-0.7-0.5-1.5-0.9-2.2-1.3c-0.7-0.4-1.5-0.9-2.2-1.5c-0.7-0.6-1.5-1.3-2.2-2c-0.7-0.7-1.5-1.4-2.2-2c-0.7-0.6-1.2-1-1.5-1.3v-0.4
				l-8.8-14.6l-2.2-7.4v-0.4c-0.3-1.5-0.5-2.6-0.6-3.3c-0.1-0.7-0.2-1.5-0.2-2.2c0-0.7,0-1.5,0-2.2c0-0.7,0-1.5,0-2.2
				c0-0.7,0-1.5,0-2.2c0-0.7,0-1.5,0-2.2c0-0.7,0-1.5,0-2.2c0-0.7,0-1.5,0-2.2c0-0.7,0-1.5,0-2.2c0-0.7,0-1.5,0-2.2
				c0-0.7,0-1.5,0-2.2c0-0.7,0-1.5,0-2.2c0-0.7,0-1.5,0-2.2c0-0.7,0-1.5,0-2.2c0-0.7,0-1.5,0-2.2c0-0.7,0-1.5,0-2.2
				c0-0.7,0-1.5,0-2.2c0-0.7,0-1.5,0-2.2c0-0.7,0-1.5,0-2.2c0-0.7,0-1.5,0-2.2c0-0.7,0-1.5,0-2.2c0-0.7,0-1.5,0-2.2
				c0-0.7,0-1.5,0-2.2c0-0.7,0-1.5,0-2.2c0-0.7,0-1.5,0-2.2c0-0.7,0-1.5,0-2.2c0-0.7,0-1.5,0-2.2c0-0.7,0-1.3,0-1.7
				c0.3-1.5,0.5-2.6,0.6-3.3c0.1-0.7,0.2-1.5,0.2-2.2c0-0.7,0.1-1.5,0.4-2.2c0.3-0.7,0.5-1.5,0.7-2.2c0.2-0.7,0.4-1.5,0.7-2.2
				c0.3-0.7,0.6-1.5,0.8-2.2c0.3-0.7,0.6-1.5,1.1-2.2c0.5-0.7,0.9-1.5,1.4-2.2c0.5-0.7,0.9-1.5,1.3-2.2c0.4-0.7,0.9-1.5,1.5-2.2
				c0.6-0.7,1.2-1.5,1.8-2.2c0.6-0.7,1.2-1.5,1.8-2.2c0.6-0.7,1.2-1.4,1.7-1.9h0.4l13.2-8.4l7.6-2.2h0.4c1.5-0.3,2.6-0.5,3.3-0.6
				s1.8-0.3,3.3-0.6h88.5c1.5,0.3,2.6,0.4,3.3,0.4c0.7,0,1.5,0.1,2.2,0.2c0.7,0.1,1.5,0.3,2.2,0.6c0.7,0.3,1.5,0.5,2.2,0.7
				c0.7,0.2,1.5,0.4,2.2,0.7c0.7,0.3,1.5,0.6,2.2,0.8c0.7,0.3,1.5,0.6,2.2,1.1c0.7,0.5,1.5,0.8,2.2,1.1c0.7,0.3,1.5,0.6,2.2,1.1
				c0.7,0.5,1.5,1,2.2,1.6c0.7,0.6,1.5,1.2,2.2,1.8c0.7,0.6,1.5,1.2,2.2,1.7c0.7,0.5,1.4,1.1,1.9,1.8v0.4l8.8,14l2.8,8v0.8l0.4,0.5
				v5.2l-0.4,0.4v59c-0.4,1.5-0.7,2.6-1,3.3c-0.3,0.7-0.5,1.5-0.6,2.2c-0.1,0.7-0.4,1.5-0.7,2.2c-0.3,0.7-0.6,1.5-0.9,2.2
				c-0.3,0.7-0.6,1.5-0.8,2.2c-0.3,0.7-0.6,1.5-1.1,2.2c-0.5,0.7-0.8,1.5-1.1,2.2c-0.3,0.7-0.7,1.5-1.3,2.2
				c-0.6,0.7-1.2,1.5-1.8,2.2c-0.6,0.7-1.2,1.5-1.8,2.2c-0.6,0.7-1.6,1.8-3.1,3.3h-0.4l-14,8.8l-8,2.6h-0.8l-0.6,0.4H1359.9z
				 M1447.6,1773v-53.2h-85.9v53.2H1447.6z"/>
			<path class="st0" d="M1546.1,1817.1c-1.3-0.2-2.3-0.3-3-0.3s-1.4-0.1-2-0.2c-0.6-0.1-1.3-0.3-2-0.4c-0.7-0.1-1.4-0.3-2-0.6
				c-0.6-0.3-1.3-0.5-1.9-0.6c-0.6-0.1-1.3-0.3-2-0.6c-0.7-0.3-1.4-0.5-2-0.8c-0.6-0.2-1.3-0.6-2-1c-0.7-0.4-1.4-0.8-2-1
				c-0.6-0.3-1.3-0.6-2-1c-0.7-0.4-1.4-0.9-2-1.4c-0.6-0.5-1.3-1-2-1.6c-0.7-0.5-1.4-1.1-2-1.6c-0.6-0.5-1.5-1.3-2.6-2.4v-0.4
				l-8.7-13.9l-2.1-5.9v-1.2c-0.3-1.4-0.4-2.4-0.4-3c0-0.6-0.1-1.3-0.2-1.9c-0.1-0.6-0.2-1.3-0.2-2c0-0.7,0-1.4,0-2c0-0.6,0-1.3,0-2
				c0-0.7,0-1.4,0-2c0-0.6,0-1.3,0-2c0-0.7,0-1.4,0-2c0-0.6,0-1.3,0-2c0-0.7,0-1.4,0-2c0-0.6,0-1.3,0-2c0-0.7,0-1.4,0-2
				c0-0.6,0-1.3,0-2c0-0.7,0-1.4,0-2c0-0.6,0-1.3,0-1.9c0-0.6,0-1.3,0-2c0-0.7,0-1.4,0-2c0-0.6,0-1.3,0-2c0-0.7,0-1.4,0-2
				c0-0.6,0-1.3,0-2c0-0.7,0-1.4,0-2c0-0.6,0-1.3,0-2c0-0.7,0-1.4,0-2c0-0.6,0-1.3,0-2c0-0.7,0-1.4,0-2c0-0.6,0-1.3,0-2
				c0-0.7,0-1.4,0-2c0-0.6,0-1.3,0-1.9c0-0.6,0-1.3,0-2c0-0.7,0-1.4,0-2c0-0.6,0-1.3,0-2c0-0.7,0-1.4,0-2c0-0.6,0-1.3,0-2
				c0-0.7,0-1.4,0-2c0-0.6,0-1.3,0-2c0-0.7,0-1.4,0-2c0-0.6,0-1.3,0-2c0-0.7,0-1.4,0-2c0-0.6,0-1.3,0-2c0-0.7,0-1.4,0-2
				c0-0.6,0-1.3,0-2c0-0.7,0-1.4,0-2c0-0.6,0-1.3,0-1.9c0-0.6,0-1.3,0-2c0-0.7,0-1.4,0-2c0-0.6,0-1.3,0-2c0-0.7,0-1.4,0-2
				c0-0.6,0-1.3,0-2c0-0.7,0-1.4,0-2c0-0.6,0-1.3,0-2c0-0.7,0-1.4,0-2c0-0.6,0-1.7,0-3h43.5v97.1h86.7v-97.1h43.5v140.5H1546.1z"/>
			<path class="st0" d="M1731.4,1817.1l-0.4-0.3h-3.9c-1.3-0.3-2.2-0.5-2.9-0.6s-1.3-0.3-1.9-0.6c-0.6-0.3-1.3-0.5-1.9-0.8
				c-0.6-0.2-1.3-0.5-1.9-0.8c-0.6-0.3-1.3-0.5-1.9-0.8c-0.6-0.2-1.3-0.6-1.9-1c-0.6-0.4-1.3-0.8-1.9-1.2c-0.6-0.4-1.3-0.8-1.9-1.2
				c-0.6-0.4-1.3-0.9-1.9-1.4c-0.6-0.5-1.3-1-1.9-1.5c-0.6-0.5-1.3-1-1.9-1.5c-0.6-0.5-1.5-1.3-2.6-2.3v-0.4l-9.2-15.1
				c-0.5-1.3-0.8-2.2-1.1-2.9c-0.3-0.6-0.4-1.3-0.4-2.1c-0.3-1.3-0.5-2.2-0.6-2.9c-0.1-0.6-0.2-1.3-0.2-1.9c0-0.6,0-1.1,0-1.4v-0.8
				l-0.3-0.3v-98.9h42.8v96.9h129.8v43.6H1731.4z"/>
			<path class="st0" d="M1133.3,1996v-140.5h195.8l0.3,0.4h3.9c1.3,0.3,2.2,0.5,2.8,0.6c0.6,0.1,1.2,0.3,1.9,0.3
				c0.6,0.1,1.3,0.3,1.9,0.6c0.6,0.3,1.3,0.5,1.9,0.8c0.6,0.2,1.3,0.6,1.9,1c0.6,0.4,1.3,0.8,1.9,1.2c0.6,0.4,1.2,0.7,1.9,1.1
				c0.6,0.4,1.3,0.7,1.9,1c0.6,0.3,1.3,0.7,1.9,1.2c0.6,0.5,1.3,1,1.9,1.5c0.6,0.5,1.2,1.1,1.9,1.7c0.6,0.6,1.6,1.4,2.9,2.4v0.4
				l9.1,14.7c0.5,1.3,0.8,2.2,1.1,2.9c0.3,0.6,0.6,1.5,0.8,2.5v1.9l0.3,0.4v3.7c0.3,1.3,0.7,2.3,1.2,3v97.3h-43.2v-97.3h-53.8v97.3
				h-43.2v-97.3h-53.8v97.3H1133.3z"/>
			<path class="st0" d="M1424.6,1996c-1.5-0.3-2.6-0.4-3.3-0.4s-1.5-0.1-2.2-0.2s-1.5-0.3-2.2-0.6c-0.7-0.3-1.5-0.5-2.2-0.7
				c-0.7-0.2-1.5-0.4-2.2-0.7c-0.7-0.3-1.5-0.5-2.2-0.8c-0.7-0.3-1.5-0.6-2.2-1.1c-0.7-0.5-1.5-0.9-2.2-1.4
				c-0.7-0.5-1.5-0.9-2.2-1.3c-0.7-0.4-1.5-0.9-2.2-1.5c-0.7-0.6-1.5-1.3-2.2-2c-0.7-0.7-1.5-1.4-2.2-2c-0.7-0.6-1.2-1-1.5-1.3v-0.4
				l-8.8-14.6l-2.2-7.4v-0.4c-0.3-1.5-0.5-2.6-0.6-3.3c-0.1-0.7-0.2-1.5-0.2-2.2c0-0.7,0-1.5,0-2.2c0-0.7,0-1.5,0-2.2
				c0-0.7,0-1.5,0-2.2c0-0.7,0-1.5,0-2.2c0-0.7,0-1.5,0-2.2c0-0.7,0-1.5,0-2.2c0-0.7,0-1.5,0-2.2c0-0.7,0-1.5,0-2.2
				c0-0.7,0-1.5,0-2.2c0-0.7,0-1.5,0-2.2c0-0.7,0-1.5,0-2.2c0-0.7,0-1.5,0-2.2c0-0.7,0-1.5,0-2.2c0-0.7,0-1.5,0-2.2
				c0-0.7,0-1.5,0-2.2c0-0.7,0-1.5,0-2.2c0-0.7,0-1.5,0-2.2c0-0.7,0-1.5,0-2.2c0-0.7,0-1.5,0-2.2c0-0.7,0-1.5,0-2.2
				c0-0.7,0-1.5,0-2.2c0-0.7,0-1.5,0-2.2c0-0.7,0-1.5,0-2.2c0-0.7,0-1.5,0-2.2c0-0.7,0-1.5,0-2.2c0-0.7,0-1.3,0-1.7
				c0.3-1.5,0.5-2.6,0.6-3.3c0.1-0.7,0.2-1.5,0.2-2.2c0-0.7,0.1-1.5,0.4-2.2c0.3-0.7,0.5-1.5,0.7-2.2c0.2-0.7,0.4-1.5,0.7-2.2
				c0.3-0.7,0.6-1.5,0.8-2.2c0.3-0.7,0.6-1.5,1.1-2.2c0.5-0.7,0.9-1.5,1.4-2.2c0.5-0.7,0.9-1.5,1.3-2.2c0.4-0.7,0.9-1.5,1.5-2.2
				c0.6-0.7,1.2-1.5,1.8-2.2c0.6-0.7,1.2-1.5,1.8-2.2c0.6-0.7,1.2-1.4,1.7-1.9h0.4l13.2-8.4l7.6-2.2h0.4c1.5-0.3,2.6-0.5,3.3-0.6
				s1.8-0.3,3.3-0.6h88.5c1.5,0.3,2.6,0.4,3.3,0.4c0.7,0,1.5,0.1,2.2,0.2s1.5,0.3,2.2,0.6c0.7,0.3,1.5,0.5,2.2,0.7
				c0.7,0.2,1.5,0.4,2.2,0.7c0.7,0.3,1.5,0.6,2.2,0.8c0.7,0.3,1.5,0.6,2.2,1.1c0.7,0.5,1.5,0.8,2.2,1.1c0.7,0.3,1.5,0.6,2.2,1.1
				c0.7,0.5,1.5,1,2.2,1.6c0.7,0.6,1.5,1.2,2.2,1.8c0.7,0.6,1.5,1.2,2.2,1.7c0.7,0.5,1.4,1.1,1.9,1.8v0.4l8.8,14l2.8,8v0.8l0.4,0.5
				v5.2l-0.4,0.4v59c-0.4,1.5-0.7,2.6-1,3.3c-0.3,0.7-0.5,1.5-0.6,2.2c-0.1,0.7-0.4,1.5-0.7,2.2c-0.3,0.7-0.6,1.5-0.9,2.2
				c-0.3,0.7-0.6,1.5-0.8,2.2c-0.3,0.7-0.6,1.5-1.1,2.2c-0.5,0.7-0.8,1.5-1.1,2.2c-0.3,0.7-0.7,1.5-1.3,2.2
				c-0.6,0.7-1.2,1.5-1.8,2.2c-0.6,0.7-1.2,1.5-1.8,2.2c-0.6,0.7-1.6,1.8-3.1,3.3h-0.4l-14,8.8l-8,2.6h-0.8l-0.6,0.4H1424.6z
				 M1512.2,1952v-53.2h-85.9v53.2H1512.2z"/>
			<path class="st0" d="M1634.5,1996v-97.1h-65.1v-43.3h173.2v43.3h-65.1v97.1H1634.5z"/>
			<path class="st0" d="M1796.1,1996c-1.5-0.3-2.6-0.4-3.3-0.4s-1.5-0.1-2.2-0.2s-1.5-0.3-2.2-0.6c-0.7-0.3-1.5-0.5-2.2-0.7
				c-0.7-0.2-1.5-0.4-2.2-0.7c-0.7-0.3-1.5-0.5-2.2-0.8c-0.7-0.3-1.5-0.6-2.2-1.1c-0.7-0.5-1.5-0.9-2.2-1.4
				c-0.7-0.5-1.5-0.9-2.2-1.3c-0.7-0.4-1.5-0.9-2.2-1.5c-0.7-0.6-1.5-1.3-2.2-2c-0.7-0.7-1.5-1.4-2.2-2c-0.7-0.6-1.2-1-1.5-1.3v-0.4
				l-8.8-14.6l-2.2-7.4v-0.4c-0.3-1.5-0.5-2.6-0.6-3.3c-0.1-0.7-0.2-1.5-0.2-2.2c0-0.7,0-1.5,0-2.2c0-0.7,0-1.5,0-2.2
				c0-0.7,0-1.5,0-2.2c0-0.7,0-1.5,0-2.2c0-0.7,0-1.5,0-2.2c0-0.7,0-1.5,0-2.2c0-0.7,0-1.5,0-2.2c0-0.7,0-1.5,0-2.2
				c0-0.7,0-1.5,0-2.2c0-0.7,0-1.5,0-2.2c0-0.7,0-1.5,0-2.2c0-0.7,0-1.5,0-2.2c0-0.7,0-1.5,0-2.2c0-0.7,0-1.5,0-2.2
				c0-0.7,0-1.5,0-2.2c0-0.7,0-1.5,0-2.2c0-0.7,0-1.5,0-2.2c0-0.7,0-1.5,0-2.2c0-0.7,0-1.5,0-2.2c0-0.7,0-1.5,0-2.2
				c0-0.7,0-1.5,0-2.2c0-0.7,0-1.5,0-2.2c0-0.7,0-1.5,0-2.2c0-0.7,0-1.5,0-2.2c0-0.7,0-1.5,0-2.2c0-0.7,0-1.3,0-1.7
				c0.3-1.5,0.5-2.6,0.6-3.3c0.1-0.7,0.2-1.5,0.2-2.2c0-0.7,0.1-1.5,0.4-2.2c0.3-0.7,0.5-1.5,0.7-2.2c0.2-0.7,0.4-1.5,0.7-2.2
				c0.3-0.7,0.6-1.5,0.8-2.2c0.3-0.7,0.6-1.5,1.1-2.2c0.5-0.7,0.9-1.5,1.4-2.2c0.5-0.7,0.9-1.5,1.3-2.2c0.4-0.7,0.9-1.5,1.5-2.2
				c0.6-0.7,1.2-1.5,1.8-2.2c0.6-0.7,1.2-1.5,1.8-2.2c0.6-0.7,1.2-1.4,1.7-1.9h0.4l13.2-8.4l7.6-2.2h0.4c1.5-0.3,2.6-0.5,3.3-0.6
				c0.7-0.1,1.8-0.3,3.3-0.6h88.5c1.5,0.3,2.6,0.4,3.3,0.4s1.5,0.1,2.2,0.2s1.5,0.3,2.2,0.6c0.7,0.3,1.5,0.5,2.2,0.7
				c0.7,0.2,1.5,0.4,2.2,0.7c0.7,0.3,1.5,0.6,2.2,0.8c0.7,0.3,1.5,0.6,2.2,1.1c0.7,0.5,1.5,0.8,2.2,1.1c0.7,0.3,1.5,0.6,2.2,1.1
				c0.7,0.5,1.5,1,2.2,1.6c0.7,0.6,1.5,1.2,2.2,1.8c0.7,0.6,1.5,1.2,2.2,1.7c0.7,0.5,1.4,1.1,1.9,1.8v0.4l8.8,14l2.8,8v0.8l0.4,0.5
				v5.2l-0.4,0.4v59c-0.4,1.5-0.7,2.6-1,3.3c-0.3,0.7-0.5,1.5-0.6,2.2c-0.1,0.7-0.4,1.5-0.7,2.2c-0.3,0.7-0.6,1.5-0.9,2.2
				c-0.3,0.7-0.6,1.5-0.8,2.2c-0.3,0.7-0.6,1.5-1.1,2.2c-0.5,0.7-0.8,1.5-1.1,2.2c-0.3,0.7-0.7,1.5-1.3,2.2
				c-0.6,0.7-1.2,1.5-1.8,2.2c-0.6,0.7-1.2,1.5-1.8,2.2c-0.6,0.7-1.6,1.8-3.1,3.3h-0.4l-14,8.8l-8,2.6h-0.8l-0.6,0.4H1796.1z
				 M1883.7,1952v-53.2h-85.9v53.2H1883.7z"/>
			<path class="st0" d="M1171.3,2175c-1.7-0.5-2.9-0.9-3.6-1.1c-0.8-0.2-1.8-0.4-3.1-0.7h-0.6c-1.6-0.6-2.7-1.1-3.6-1.4
				c-0.8-0.3-1.6-0.7-2.4-1.2c-0.8-0.5-1.6-1-2.4-1.4c-0.8-0.5-1.6-0.9-2.4-1.4c-0.8-0.5-1.6-1.1-2.4-1.7c-0.8-0.6-1.6-1.3-2.4-1.9
				c-0.8-0.6-1.8-1.6-3.1-2.9v-0.4l-9.2-14.4v-0.6c-0.6-1.6-1-2.8-1.2-3.6c-0.1-0.8-0.4-2-0.8-3.6v-0.5c-0.3-1.6-0.5-2.8-0.6-3.6
				c-0.1-0.8-0.2-1.6-0.2-2.4c0-0.8,0-1.6,0-2.4c0-0.8,0-1.6,0-2.4c0-0.8,0-1.6,0-2.3c0-0.8,0-1.6,0-2.4c0-0.8,0-1.6,0-2.4
				c0-0.8,0-1.6,0-2.4c0-0.8,0-1.6,0-2.4c0-0.8,0-1.6,0-2.4c0-0.8,0-1.6,0-2.4c0-0.8,0-1.6,0-2.4c0-0.8,0-1.6,0-2.4
				c0-0.8,0-1.6,0-2.4c0-0.8,0-1.6,0-2.4c0-0.8,0-1.6,0-2.4c0-0.8,0-1.6,0-2.4c0-0.8,0-1.6,0-2.4c0-0.8,0-1.6,0-2.4
				c0-0.8,0-1.6,0-2.4c0-0.8,0-1.6,0-2.4c0-0.8,0-1.6,0-2.4c0-0.8,0-1.6,0-2.4c0-0.8,0-1.6,0-2.3c0-0.8,0-2,0-3.6
				c0.3-1.6,0.5-2.8,0.6-3.6c0.1-0.8,0.3-1.6,0.5-2.4c0.2-0.8,0.3-1.6,0.5-2.4c0.1-0.8,0.4-1.6,0.7-2.4c0.3-0.8,0.6-1.6,1-2.4
				c0.3-0.8,0.6-1.6,1-2.4c0.3-0.8,0.7-1.6,1.2-2.4c0.5-0.8,1-1.6,1.4-2.4c0.5-0.8,1-1.6,1.7-2.4c0.6-0.8,1.3-1.6,1.9-2.4
				c0.6-0.8,1.6-1.8,2.9-3.1h0.6l13.9-9.2h0.6c1.6-0.6,2.7-1,3.6-1.2c0.8-0.1,2-0.4,3.6-0.8h0.5c1.6-0.3,2.8-0.5,3.6-0.7
				c0.8-0.2,1.7-0.4,2.6-0.7h130.3v42.8h-129.8v53.8h129.8v43.8H1171.3z"/>
			<path class="st0" d="M1319,2175v-140.3h132.1c1.6,0.4,2.8,0.6,3.6,0.8c0.8,0.1,1.6,0.2,2.5,0.2s1.7,0.2,2.5,0.5
				c0.8,0.3,1.6,0.6,2.4,0.8c0.8,0.2,1.6,0.4,2.4,0.8c0.8,0.3,1.7,0.6,2.5,1c0.8,0.3,1.6,0.7,2.4,1.2c0.8,0.5,1.6,1,2.4,1.4
				c0.8,0.5,1.7,1,2.5,1.7c0.8,0.6,1.7,1.4,2.5,2.2c0.8,0.8,1.6,1.6,2.4,2.2c0.8,0.6,1.5,1.3,2.1,1.9v0.6l8.8,13.6v0.5
				c0.6,1.6,1.1,2.8,1.2,3.6c0.2,0.8,0.4,2.1,0.7,3.7v0.4c0.4,1.7,0.6,2.9,0.8,3.7c0.1,0.8,0.2,1.9,0.2,3.2
				c-0.3,1.7-0.5,2.9-0.7,3.6c-0.2,0.8-0.3,1.6-0.3,2.4c0,0.8,0,1.4,0,1.8c-0.6,1.6-1,2.8-1.2,3.6c-0.1,0.8-0.4,1.7-0.8,2.8
				l-5.8,9.8l6.7,10.7v0.4c0.6,1.7,1,2.9,1,3.6c0,0.8,0.2,1.4,0.6,1.7v56h-43.3v-54.1h-86.8v54.1H1319z M1449.2,2088.3v-21.5h-86.8
				v21.5H1449.2z"/>
			<path class="st0" d="M1544.6,2175c-1.6-0.3-2.7-0.4-3.4-0.4c-0.7,0-1.5-0.2-2.3-0.5c-0.8-0.3-1.6-0.6-2.3-0.7s-1.6-0.4-2.3-0.7
				c-0.8-0.3-1.6-0.6-2.3-0.9c-0.8-0.3-1.6-0.6-2.3-0.9c-0.8-0.3-1.6-0.7-2.3-1.2c-0.8-0.5-1.5-0.9-2.3-1.4c-0.7-0.5-1.5-1-2.3-1.7
				c-0.8-0.6-1.6-1.3-2.3-1.9c-0.8-0.6-1.6-1.2-2.3-1.9c-0.8-0.6-1.6-1.4-2.3-2.1c-0.8-0.8-1.3-1.3-1.6-1.6v-0.4l-6.5-11.1l-2.3-7
				v-10.2l-0.4-0.4v-53.8c0.3-1.6,0.4-2.7,0.4-3.5c0-0.8,0.1-1.6,0.2-2.3c0.1-0.8,0.4-1.5,0.7-2.3c0.3-0.7,0.6-1.5,1-2.3
				c0.3-0.8,0.6-1.6,0.7-2.3c0.1-0.8,0.4-1.6,0.9-2.3c0.5-0.8,0.9-1.6,1.4-2.3c0.5-0.8,0.8-1.6,1.2-2.3c0.3-0.8,0.8-1.5,1.4-2.3
				c0.6-0.7,1.3-1.5,1.9-2.3c0.6-0.8,1.2-1.6,1.8-2.3c0.6-0.8,1.7-1.9,3.2-3.5h0.6l13.3-8.4l8-2.2h0.4c1.6-0.4,2.7-0.6,3.5-0.8
				c0.8-0.1,1.6-0.2,2.3-0.2c0.8,0,1.5,0,2.3,0c0.7,0,1.5,0,2.3,0s1.6,0,2.3,0s1.6,0,2.3,0c0.8,0,1.6,0,2.3,0c0.8,0,1.6,0,2.3,0
				c0.8,0,1.5,0,2.3,0s1.5,0,2.3,0c0.8,0,1.6,0,2.3,0c0.8,0,1.6,0,2.3,0s1.6,0,2.3,0s1.6,0,2.3,0c0.8,0,1.5,0,2.3,0s1.5,0,2.3,0
				s1.6,0,2.3,0c0.8,0,1.6,0,2.3,0c0.8,0,1.6,0,2.3,0s1.6,0,2.3,0s1.6,0,2.3,0c0.8,0,1.5,0,2.3,0s1.5,0,2.3,0s1.6,0,2.3,0
				s1.6,0,2.3,0c0.8,0,1.6,0,2.3,0c0.8,0,1.6,0,2.3,0s1.5,0,2.3,0s1.5,0,2.3,0s1.6,0,2.3,0s1.6,0,2.3,0s1.6,0,2.3,0
				c0.8,0,1.6,0,2.3,0c0.8,0,1.5,0,2.3,0s1.5,0,2.3,0c0.8,0,1.6,0,2.3,0c0.8,0,1.6,0,2.3,0s1.6,0,2.3,0s1.6,0,2.3,0s1.6,0,2.5,0
				c1.6,0.3,2.7,0.4,3.4,0.4c0.7,0,1.5,0.1,2.3,0.3c0.8,0.2,1.6,0.3,2.3,0.5c0.8,0.1,1.6,0.4,2.3,0.7c0.8,0.3,1.6,0.6,2.3,0.7
				c0.8,0.1,1.6,0.4,2.3,0.9c0.8,0.5,1.6,0.8,2.3,1.2c0.8,0.3,1.5,0.7,2.3,1.2c0.7,0.5,1.5,1,2.3,1.6c0.8,0.6,1.6,1.1,2.3,1.7
				c0.8,0.5,1.6,1.1,2.3,1.7c0.8,0.6,1.8,1.5,3,2.8v0.4l8.8,13.9v0.4c0.6,1.6,1,2.7,1.2,3.5c0.1,0.8,0.4,1.9,0.8,3.5v0.4
				c0.3,1.6,0.4,2.7,0.4,3.5c0,0.8,0.1,1.6,0.3,2.3c0.2,0.8,0.3,1.6,0.3,2.3c0,0.8,0,1.5,0,2.3c0,0.7,0,1.5,0,2.3c0,0.8,0,1.6,0,2.3
				c0,0.8,0,1.6,0,2.3c0,0.8,0,1.6,0,2.3c0,0.8,0,1.6,0,2.3c0,0.8,0,1.5,0,2.3c0,0.7,0,1.5,0,2.3c0,0.8,0,1.6,0,2.3
				c0,0.8,0,1.6,0,2.3c0,0.8,0,1.6,0,2.3c0,0.8,0,1.6,0,2.3c0,0.8,0,1.6,0,2.3c0,0.8,0,1.5,0,2.3c0,0.7,0,1.5,0,2.3
				c0,0.8,0,1.6,0,2.3c0,0.8,0,1.6,0,2.3c0,0.8,0,1.9,0,3.5h-129.3v21.3h129.3v32.3H1544.6z M1634,2087.9v-20.8h-86.1v20.8H1634z"/>
			<path class="st0" d="M1690.5,2175v-140.5h42.9v97.6h54.5v-97.6h43.5v97.6h54.3v-97.6h43.1v98.9c-0.3,1.2-0.5,2.1-0.6,2.7
				c-0.1,0.6-0.2,1.2-0.3,1.8c-0.1,0.6-0.3,1.2-0.3,1.8c-0.1,0.6-0.2,1.2-0.3,1.8c-0.1,0.6-0.3,1.2-0.3,1.8
				c-0.1,0.6-0.3,1.2-0.6,1.7c-0.3,0.5-0.5,1.1-0.8,1.7c-0.2,0.6-0.5,1.2-0.7,1.8c-0.2,0.6-0.5,1.2-0.9,1.8
				c-0.4,0.6-0.7,1.2-1.1,1.8c-0.4,0.6-0.7,1.2-1,1.8c-0.3,0.6-0.7,1.2-1.2,1.8c-0.5,0.6-1,1.2-1.4,1.8c-0.5,0.6-1,1.2-1.6,1.8
				c-0.6,0.6-1.1,1.2-1.6,1.8c-0.5,0.6-1.1,1.3-1.8,2h-0.4l-13.5,8.8c-1.2,0.5-2.1,0.8-2.7,1.1c-0.6,0.3-1.2,0.4-1.9,0.4
				c-1.2,0.5-2.1,0.7-2.7,0.8c-0.6,0.1-1.5,0.1-2.7,0.1c-1.2,0.3-2.1,0.5-2.7,0.5c-0.6,0.1-1.2,0.1-1.8,0.1c-0.6,0-1.2,0-1.8,0
				c-0.6,0-1.2,0-1.8,0c-0.6,0-1.2,0-1.8,0c-0.6,0-1.2,0-1.8,0c-0.6,0-1.2,0-1.8,0c-0.6,0-1.2,0-1.8,0c-0.6,0-1.2,0-1.8,0
				c-0.6,0-1.2,0-1.7,0c-0.6,0-1.1,0-1.7,0c-0.6,0-1.2,0-1.8,0c-0.6,0-1.2,0-1.8,0c-0.6,0-1.2,0-1.8,0c-0.6,0-1.2,0-1.8,0
				c-0.6,0-1.2,0-1.8,0c-0.6,0-1.2,0-1.8,0c-0.6,0-1.2,0-1.8,0c-0.6,0-1.2,0-1.8,0c-0.6,0-1.2,0-1.8,0c-0.6,0-1.2,0-1.8,0
				c-0.6,0-1.2,0-1.8,0c-0.6,0-1.2,0-1.8,0c-0.6,0-1.2,0-1.7,0c-0.6,0-1.1,0-1.7,0c-0.6,0-1.2,0-1.8,0c-0.6,0-1.2,0-1.8,0
				c-0.6,0-1.2,0-1.8,0c-0.6,0-1.2,0-1.8,0c-0.6,0-1.2,0-1.8,0c-0.6,0-1.2,0-1.8,0c-0.6,0-1.2,0-1.8,0c-0.6,0-1.2,0-1.8,0
				c-0.6,0-1.2,0-1.8,0c-0.6,0-1.2,0-1.8,0c-0.6,0-1.2,0-1.8,0c-0.6,0-1.2,0-1.8,0c-0.6,0-1.2,0-1.7,0s-1.1,0-1.7,0
				c-0.6,0-1.2,0-1.8,0c-0.6,0-1.2,0-1.8,0c-0.6,0-1.2,0-1.8,0c-0.6,0-1.2,0-1.8,0c-0.6,0-1.2,0-1.8,0c-0.6,0-1.2,0-1.8,0
				c-0.6,0-1.2,0-1.8,0c-0.6,0-1.2,0-1.8,0c-0.6,0-1.2,0-1.8,0c-0.6,0-1.2,0-1.8,0c-0.6,0-1.2,0-1.8,0c-0.6,0-1.2,0-1.8,0
				c-0.6,0-1.2,0-1.7,0c-0.6,0-1.1,0-1.7,0c-0.6,0-1.2,0-1.8,0c-0.6,0-1.2,0-1.8,0c-0.6,0-1.2,0-1.8,0c-0.6,0-1.2,0-1.8,0
				c-0.6,0-1.2,0-1.8,0c-0.6,0-1.2,0-1.8,0c-0.6,0-1.2,0-1.8,0c-0.6,0-1.2,0-1.8,0c-0.6,0-1.2,0-1.8,0c-0.6,0-1.2,0-1.8,0
				c-0.6,0-1.2,0-1.8,0c-0.6,0-1.2,0-1.8,0c-0.6,0-1.2,0-1.8,0c-0.6,0-1.2,0-1.7,0s-1.1,0-1.7,0c-0.6,0-1.2,0-1.8,0
				c-0.6,0-1.2,0-1.8,0c-0.6,0-1.2,0-1.8,0c-0.6,0-1.2,0-1.8,0c-0.6,0-1.2,0-1.8,0c-0.6,0-1.2,0-1.8,0c-0.6,0-1.2,0-1.8,0
				c-0.6,0-1.2,0-1.8,0c-0.6,0-1.2,0-1.8,0c-0.6,0-1.2,0-1.8,0c-0.6,0-1.2,0-1.8,0c-0.6,0-1.2,0-1.8,0c-0.6,0-1.2,0-1.7,0
				c-0.6,0-1.1,0-1.7,0c-0.6,0-1.2,0-1.8,0c-0.6,0-1.2,0-1.8,0c-0.6,0-1.2,0-1.8,0c-0.6,0-1.2,0-1.8,0c-0.6,0-1.2,0-1.8,0
				c-0.6,0-1.2,0-1.8,0c-0.6,0-1.2,0-1.8,0c-0.6,0-1.2,0-1.8,0c-0.6,0-1.2,0-1.8,0c-0.6,0-1.2,0-1.8,0c-0.6,0-1.2,0-1.8,0
				c-0.6,0-1.2,0-1.8,0c-0.6,0-1.2,0-1.7,0c-0.6,0-1.1,0-1.7,0c-0.6,0-1.2,0-1.8,0c-0.6,0-1.2,0-1.8,0c-0.6,0-1.2,0-1.8,0
				c-0.6,0-1.2,0-1.8,0c-0.6,0-1.2,0-1.8,0c-0.6,0-1.2,0-1.8,0c-0.6,0-1.2,0-1.8,0c-0.6,0-1.2,0-1.8,0c-0.6,0-1.2,0-1.8,0
				c-0.6,0-1.2,0-1.8,0c-0.6,0-1.2,0-1.8,0c-0.6,0-1.2,0-1.8,0c-0.6,0-1.2,0-1.7,0c-0.6,0-1.1,0-1.7,0c-0.6,0-1.2,0-1.8,0
				C1691.5,2175,1691,2175,1690.5,2175z"/>
		</g>
		<g>
			<path class="st0" d="M647.9,1256.1c1.5-22.9,3-45.7,4.5-68.4c0.1-1.7,0.6-3.5,0.3-5.1c-4.3-23.4,8.7-36.5,25.6-50.2
				c93-75.5,179.9-157.3,254-251.9c24.5-31.2,46.9-63.7,62.4-100.6c1-2.5,2-4.9,3.5-8.7c-12,7.3-23.1,13.3-33.4,20.5
				c-10.6,7.4-20.4,15.9-30.5,23.9c-1.6,1.3-3,3-4.8,3.7c-22,8.5-50.3-9.5-52.5-33.2c-2.5-26.6,2.9-51.6,15-75.2
				c1.7-3.2,3.2-6.5,5.1-10.3c-56.6-9.3-87.8-44-102.2-94.8c81.2-30,144.7-79.9,192.5-154.2c-32.1-0.5-53.5-14.7-68.8-38.5
				c-15-23.3-19.9-49.8-21.1-77.1c-0.4-9.8-0.1-19.6-0.1-29.3c74.8,9.5,144.9-9.1,213.4-39.2c22.4-9.9,35.7-24.2,42.3-47.9
				c12.4-44.5,23.1-89.1,25.6-135.4c1.3-23.4-13-45.5-35.8-54.4c4-3,7.2-6,10.8-8.2c21.6-13.5,45.1-20.9,70.6-21.4
				c42.2-0.8,83.5,4.5,120.5,26.1c13.7,8,26.4,19.8,35.7,32.7c18.3,25.6,10.5,52.7-17.7,66.3c-37.5,18-67.2,43.9-86.6,83.7
				c4.3-1.9,7.1-3.1,9.9-4.3c34.8-15.6,70.1-30.3,104.4-47.1c45.8-22.4,86.4-13.5,124.8,16.7c20.9,16.5,38.6,35.6,49.7,60.1
				c8.5,18.8,6.5,36-8,51c-8.8,9-18.1,17.6-27.8,25.7c-26.6,22.4-44.7,49.8-54.2,83.6c-14,49.5-30.4,98.3-44.7,147.8
				c-10.3,35.3-30.5,62.7-62.4,80.2c-35.8,19.6-72.8,37.3-109.2,55.8c-3.3,1.7-6.7,3-10.5,4.7c23.1,50.9,9.9,98-12.2,144.1
				c-22.7,47.3-47,93.9-68.5,141.8c-18.7,41.5-31.5,85.1-32.6,131.2c-0.3,10.5-0.2,21.3,1.7,31.6c6.4,34.4,31.4,50.9,65.9,44.1
				c27.4-5.4,50.8-19.6,73.4-34.9c62.5-42.6,115.7-95.5,166.3-151.3c70.6-77.8,128.2-163.7,165.2-262.6
				c15.5-41.6,28.8-83.8,32.8-128.4c3.3-37.8-3.4-73.3-21.9-106.5c-1.2-2.2-2.5-4.5-2.9-7.2c19,17.9,32.8,39.5,44.8,62.4
				c29.4,56.1,30.9,114.9,16.9,175.3c-18,78.2-56.1,146.7-101.9,211.5c-58.5,82.8-127.8,155.5-206.2,219.5c-0.5,0.4-0.9,1-0.5,3
				c6-3.5,12-6.7,17.9-10.4c90-56.6,163.5-130.5,225.5-216.3c45.8-63.2,80.5-131.8,102.2-207.2c29.5-102.7,2.5-189.6-70.6-264.5
				c-30.8-31.5-66.2-55.8-109.5-67c-3.6-0.9-7.2-1.6-11.5-4.9c13-2.7,26-6.4,39.1-8c60.3-7.3,119.5-1.9,176.1,20.8
				c85.3,34.1,133,99.1,149.5,188.1c14.6,78.6,1.6,154.9-21.5,230.1c-34.4,112.4-93.5,211.7-163.8,304.9
				c-33.2,44-69.7,85-109.5,123.1c-3.4,3.3-7,6.2-9.9,10.5c37.3-4.2,72.2-15.4,106.3-29.7c34.3-14.4,66.7-32.1,94.9-57
				c-38.3,64.5-86.9,119.2-148.2,163.7c52.8-8.5,105.6-17,156.2-25.1c-20.5,14.9-222.7,76.2-298.2,89.7
				c-104.9,18.7-210.1,13.3-313.6,4.6c50.6-12.7,102.8-25.8,155-38.9c-0.3-1.4-0.6-2.7-0.9-4.1c-7,1-14.1,2.1-21.1,3
				c-58.7,7.6-117.1,9-174.4-9.1c-68.4-21.6-110.7-78.5-113.8-150.3c-2.8-65.2,12.6-127,36.3-186.4c24-60.1,52.1-118.5,78.1-177.8
				c11.1-25.3,22.4-50.5,31.5-76.5c7.6-21.6,1.5-35.7-15.5-46.2c-49.3,150.4-140.3,272.1-258.2,375.4
				c-71.9,63-149.6,117.7-235.5,160.1c-3.4,1.7-6.7,3.3-10.2,4.8C650.2,1256.2,649.1,1256,647.9,1256.1z M1212.8,394.5
				c2.5-0.5,3.8-0.6,5-1.1c49.1-18.4,98.2-36.7,147.2-55.4c2.8-1.1,6.1-4.5,6.7-7.4c2.9-13.6,5.4-27.4,7.3-41.2
				c1.7-12.1-1.7-14.7-13.8-11.3c-46.1,12.9-90.4,30.4-133.3,51.4c-3,1.5-6.8,4.5-7.4,7.4C1220.1,355.7,1216.7,374.7,1212.8,394.5z
				 M1188.6,538.4c47.6-22.1,95.2-44.1,142.6-66.3c2.2-1,4.8-3.1,5.4-5.2c4.2-15.6,8-31.4,12.3-48.6c-50,18-97.1,38.2-142.2,62.8
				c-2,1.1-3.8,3.9-4.5,6.2C1197.4,504.6,1192.9,522,1188.6,538.4z M992.3,657c0.5,0.6,1,1.2,1.5,1.8
				c34.5-21.2,68.7-42.9,103.6-63.5c10.3-6.1,17.2-13.4,21.5-24.4c6.7-17,14.2-33.5,22.5-52.7c-3.9,2.1-5.2,2.6-6.2,3.3
				c-41.3,29.6-82.5,59.2-123.7,89.1c-2.8,2-5.1,5.5-6.3,8.9C1000.6,631.8,996.5,644.5,992.3,657z M1166.7,360.9
				c-0.8-0.7-1.7-1.4-2.5-2.1c-37.4,23.6-74.9,47.1-112.2,70.8c-2,1.3-3.8,4.2-4.1,6.5c-1.2,10.7-1.9,21.5-2.8,33.2
				c3.6-1.4,6.1-2.3,8.5-3.4c34.3-16,68.5-32,102.7-48.2c2-0.9,3.8-4,4.1-6.2C1162.7,394.7,1164.6,377.8,1166.7,360.9z
				 M1286.6,575.9c-0.8-0.9-1.6-1.9-2.4-2.8c-38.8,27.5-77.7,55-116.5,82.4c0.7,1,1.4,2,2.2,3.1
				C1218.7,645.3,1253.3,611.5,1286.6,575.9z"/>
			<path class="st0" d="M652.2,715C576.8,867.1,462.1,977.6,314,1054.4c-32.5,16.8-67.7,27-104,32.9c-2.7,0.4-5.4,0.7-8.1,0.9
				c-0.9,0.1-1.7-0.3-4-0.7c146-127.3,265.2-275.2,361.7-441.6c-0.6-0.7-1.3-1.3-1.9-2c-6.6,5.5-13.3,10.9-19.9,16.4
				c-33.8,27.8-67.9,55.1-107.3,74.8c-29.2,14.6-59.8,23.7-92.8,18.3c-40.1-6.6-70.4-29.1-92.1-62.5c-11.5-17.8-19.7-37.9-29.7-57.5
				c3-1.1,3.9-1.7,4.7-1.6c50.8,7,98.1-7.1,145-23.5c79.4-27.9,153.9-66.4,228.6-104.6c46.7-23.9,92.7-49.4,138.4-75.2
				c16.2-9.2,30.9-21.3,45.9-32.5c5.4-4,11.9-8.4,14.5-14.1c6-12.8,14.4-10.3,24.2-6.6c31.8,11.9,56.1,31.9,69.8,63.5
				c8.2,18.9,6.6,37.1-6.5,52.9c-8,9.6-17,19.3-27.5,25.6c-31.3,18.6-63.7,35.5-95.5,53.2c-16.3,9.1-32.4,18.7-47.8,27.6
				c20.6,23.5,41.6,45.9,60.7,69.7c20.4,25.3,37.2,53.1,45.7,85c16.7,62.8-15.5,112.8-79.7,121.8c-13.1,1.8-22.4,6.9-31.6,15.7
				c-43.3,41.7-91.6,76.4-146.6,101.5c-5.4,2.5-11,4.6-19,7.9C602.5,913.2,647.2,822.4,652.2,715z"/>
			<path class="st0" d="M386.4,1651c33.5-2.5,66.9-4.9,100.4-7.4c0.1,0.3,0.2,0.7,0.3,1c-21.7,9.2-43.4,18.5-65,27.7
				c0.1,1,0.3,1.9,0.4,2.9c44-2.2,87.9-4.3,131.9-6.5c-144.4,42.1-290.5,74.9-443.2,80.3c28.5-9.4,55.7-18.3,82.9-27.3
				c-0.2-0.4-0.3-0.8-0.5-1.2c-17.8-1-35.7-1.3-53.5-3.1c-78.6-8.1-129.6-58.3-137.9-136.4c-8.9-83.4,11.1-161.3,48.5-235.1
				c31.5-62,74.2-114.3,135.4-149.7c6.8-3.9,13.8-7.5,20.7-11.1c4.2-2.1,8.5-4,15.8-7.3c-7.2,10.7-12.7,18.9-18.3,27.2
				c-38.2,56.7-73.7,114.8-96.5,179.7c-11.4,32.4-19.7,65.3-18,100c2.7,56.2,41.3,84.3,95.9,69.4c30.4-8.3,55.3-26.5,78.9-46.1
				c65.5-54.2,119.9-117.2,154.6-195.8c13.7-31.1,21.8-63.4,16.7-97.5c-8.2-54.6-54-90.6-111.8-87.9c-15.2,0.7-30.2,4.2-48.4,6.9
				c18.7-9.1,34.6-18.2,51.5-24.8c59.4-22.9,119.6-27.1,179.5-2.1c54.9,22.9,84.9,65.6,93.5,123.6c8.5,57.2-5,111.3-26.3,163.7
				c-38.3,94.4-93.2,177.3-172.5,242.7c-5,4.1-10.2,8-15.3,11.9C386.2,1649.6,386.3,1650.3,386.4,1651z M471.3,1167.6
				c0,1.4-0.1,2.7,0,4c0.3,2.4,0.8,4.7,1.2,7.1c7,41.5,7.1,82.7-2.5,123.9c-18.1,77.6-60.4,141.3-114.8,197.4
				c-29.8,30.7-62.7,58.4-94.1,87.5c2.2-2.4,5.8-3.8,9.2-5.7c83.9-46.7,148.6-112.5,195-196.3c25.1-45.3,40.1-93.2,32.8-146
				C494.5,1213.7,486.2,1189.5,471.3,1167.6z M61,1486.4c-1.2,0.1-2.4,0.1-3.6,0.2c0,18.6-1.2,37.4,0.3,55.8
				c2.2,26.1,12.3,48.6,38.1,59.6c24.8,10.6,49,5.9,74.4-4.7C88.2,1582.6,77.3,1571.3,61,1486.4z"/>
			<path class="st0" d="M1168.7,1044.6c19.8-10.5,39.5-19.9,58.3-31c35-20.6,64.6-46.9,81-85.3c3.1-7.3,4.6-15.2,5.6-23.7
				c-35.5,18.4-70.6,36.5-91.9,72.3c-11.3-7.2-17.4-21.7-11.5-39.3c6-17.8,14-35.7,24.7-51c13.9-20.1,31.2-37.9,47.2-56.4
				c12.7-14.7,26.4-28.6,38.6-43.7c17.9-22.1,32.9-45.7,24.4-77.1c39.8-3.1,70.2,11.8,93.8,41.6c11.2,14.1,18.3,30.2,21.2,48.2
				c2.5,15.7-1.6,28.7-15.6,37c-27.5,16.4-55.4,32.2-83.1,48.2c-2.3,1.3-4.6,2.5-8.4,4.6c4.6,2.8,8.1,4.7,11.2,7.1
				c11.7,9.2,24.9,17.2,34.6,28.2c17.2,19.7,16.3,40.8-0.1,61.3c-16.3,20.3-37.5,34.7-59.4,48c-28.1,17-57.3,31.2-89.6,39.1
				C1216.1,1080.7,1192,1064.9,1168.7,1044.6z"/>
			<path class="st0" d="M488.6,219.1c108.1,28.2,203.9-9.3,300.9-57.7c-2.1,15.7-2.2,28.7-5.8,40.7c-24.4,82-76.1,141-154.3,175.1
				c-46.8,20.4-84.9,6.2-110.9-37.5c-20.9-35.2-29.5-73.8-30.7-114.3C487.7,223.7,488.2,222,488.6,219.1z"/>
			<path class="st0" d="M194.4,1367.7c2.3-27.9,16.2-55.2,44-74.6c5.7-4,12.6-6.9,19.4-8.8c20.3-5.5,36.4,4.4,39.9,25.3
				c4.9,29.6-7.6,54.1-26.2,75.6c-7.2,8.3-16.6,15.6-26.3,20.5C216.1,1420.5,193.9,1405.9,194.4,1367.7z"/>
		</g>
	</g>
</g>
</svg>
