<?xml version="1.0" encoding="utf-8"?>
<!-- Generator: Adobe Illustrator 24.0.2, SVG Export Plug-In . SVG Version: 6.00 Build 0)  -->
<svg version="1.1" xmlns="http://www.w3.org/2000/svg" xmlns:xlink="http://www.w3.org/1999/xlink" x="0px" y="0px"
	 viewBox="0 0 2111.8 2737.6" style="enable-background:new 0 0 2111.8 2737.6;" xml:space="preserve">
<style type="text/css">
	.st1{fill:#FFFFFF;stroke:none;}
</style>
<g id="Layer_1">
</g>
<g id="Layer_2">
	<g>
		<g>
			<path class="st1" d="M199.3,346.4V310h146.5v-25h-100l-0.3-0.5h-4.4c-1.4-0.3-2.4-0.5-3.1-0.6c-0.7-0.1-1.4-0.2-2.1-0.4
				c-0.7-0.2-1.4-0.3-2.1-0.5c-0.7-0.2-1.5-0.4-2.2-0.6c-0.7-0.3-1.4-0.5-2.1-0.6c-0.7-0.2-1.4-0.4-2.1-0.7
				c-0.7-0.3-1.4-0.6-2.1-0.9c-0.7-0.3-1.4-0.5-2.1-0.8c-0.7-0.3-1.4-0.6-2.1-1.1c-0.7-0.5-1.4-0.9-2.1-1.3
				c-0.7-0.4-1.5-0.8-2.2-1.2c-0.7-0.4-1.4-0.9-2.1-1.5c-0.7-0.6-1.4-1.2-2.1-1.9c-0.7-0.7-1.4-1.3-2.1-1.9c-0.7-0.6-1.7-1.6-3.2-3
				v-0.3l-5.5-8.6l-1.7-5c-0.3-1.5-0.5-2.5-0.6-3.3c-0.1-0.7-0.2-1.4-0.2-2.1c0-0.7,0-1.2,0-1.5v-25c0.2-1.5,0.4-2.5,0.5-3.2
				c0.2-0.7,0.4-1.4,0.6-2.1c0.3-0.7,0.5-1.4,0.9-2.1c0.3-0.7,0.6-1.4,0.9-2.1c0.3-0.7,0.6-1.5,1-2.2c0.4-0.7,0.9-1.4,1.5-2.1
				c0.6-0.7,1.1-1.4,1.7-2.1c0.6-0.7,1.1-1.4,1.7-2.1c0.6-0.7,1.6-1.7,3-3.2h0.3l12.3-8l6.7-2.7c1.5-0.5,2.5-0.9,3.3-1
				c0.7-0.2,1.7-0.4,2.8-0.7h0.8c1.5-0.2,2.5-0.4,3.2-0.5c0.7-0.2,1.4-0.2,2.1-0.2c0.7,0,1.5,0,2.3,0h0.5l0.3-0.5h149.6v36.5H248v25
				h100l0.5,0.5h4.2c1.4,0.2,2.4,0.4,3.1,0.5c0.7,0.2,1.5,0.3,2.2,0.5c0.7,0.2,1.4,0.3,2.1,0.5c0.7,0.2,1.4,0.3,2.1,0.4
				c0.7,0.1,1.4,0.3,2.1,0.6c0.7,0.3,1.4,0.6,2.1,0.9c0.7,0.3,1.4,0.5,2.1,0.9c0.7,0.3,1.4,0.6,2.1,0.9c0.7,0.3,1.5,0.6,2.2,1
				c0.7,0.4,1.4,0.8,2.1,1.2c0.7,0.4,1.4,0.9,2.1,1.3c0.7,0.5,1.4,0.9,2.1,1.3c0.7,0.4,1.4,0.9,2.1,1.5c0.7,0.6,1.4,1.2,2.1,1.9
				c0.7,0.7,1.4,1.3,2.1,1.9c0.7,0.6,1.5,1.3,2.3,2.1v0.5l5.6,9.4c0.5,1.4,0.9,2.4,1,3.1c0.2,0.7,0.3,1.7,0.5,2.8v0.8l0.5,0.5v28.4
				c-0.3,1.4-0.5,2.4-0.6,3.1c-0.1,0.7-0.3,1.5-0.6,2.2c-0.3,0.7-0.6,1.4-0.9,2.1c-0.3,0.7-0.5,1.4-0.9,2.1
				c-0.3,0.7-0.7,1.4-1.1,2.1c-0.4,0.7-0.8,1.4-1.2,2.1c-0.4,0.7-0.9,1.4-1.5,2.1c-0.6,0.7-1.2,1.4-1.9,2.1
				c-0.7,0.7-1.2,1.2-1.5,1.6h-0.5l-15.6,10.1l-5.6,2c-1.4,0.6-2.4,1-3.1,1.2c-0.7,0.2-1.8,0.3-3.1,0.5h-0.9
				c-1.4,0.3-2.4,0.5-3.1,0.7c-0.7,0.2-1.5,0.2-2.2,0.2c-0.7,0-1.5,0-2.3,0h-0.3l-0.5,0.3H199.3z"/>
			<path class="st1" d="M456.3,346.4c-1.7-0.3-2.9-0.5-3.7-0.5s-1.7-0.1-2.5-0.2c-0.8-0.2-1.7-0.4-2.5-0.7c-0.8-0.3-1.7-0.6-2.5-0.8
				c-0.8-0.2-1.7-0.5-2.5-0.8c-0.8-0.3-1.7-0.6-2.5-0.9c-0.8-0.3-1.7-0.7-2.5-1.2c-0.8-0.5-1.7-1-2.5-1.6c-0.8-0.5-1.7-1-2.5-1.5
				c-0.8-0.5-1.7-1-2.5-1.7c-0.8-0.7-1.7-1.4-2.5-2.3c-0.8-0.8-1.7-1.6-2.5-2.3c-0.8-0.7-1.4-1.2-1.7-1.5V330l-10-16.5l-2.5-8.4
				v-0.5c-0.3-1.7-0.5-2.9-0.7-3.7c-0.2-0.8-0.2-1.7-0.2-2.5c0-0.8,0-1.7,0-2.5c0-0.8,0-1.7,0-2.5c0-0.8,0-1.7,0-2.5
				c0-0.8,0-1.7,0-2.5c0-0.8,0-1.7,0-2.5c0-0.8,0-1.7,0-2.5c0-0.8,0-1.7,0-2.5c0-0.8,0-1.7,0-2.5c0-0.8,0-1.7,0-2.5
				c0-0.8,0-1.7,0-2.5c0-0.8,0-1.7,0-2.5c0-0.8,0-1.7,0-2.5c0-0.8,0-1.7,0-2.5c0-0.8,0-1.7,0-2.5c0-0.8,0-1.7,0-2.5
				c0-0.8,0-1.7,0-2.5c0-0.8,0-1.7,0-2.5c0-0.8,0-1.7,0-2.5c0-0.8,0-1.7,0-2.5c0-0.8,0-1.7,0-2.5c0-0.8,0-1.7,0-2.5
				c0-0.8,0-1.7,0-2.5c0-0.8,0-1.7,0-2.5c0-0.8,0-1.7,0-2.5c0-0.8,0-1.7,0-2.5c0-0.8,0-1.5,0-1.9c0.3-1.7,0.5-2.9,0.7-3.7
				c0.2-0.8,0.2-1.7,0.2-2.5c0-0.8,0.2-1.7,0.5-2.5c0.3-0.8,0.6-1.7,0.8-2.5c0.2-0.8,0.5-1.7,0.8-2.5c0.3-0.8,0.6-1.7,0.9-2.5
				c0.3-0.8,0.7-1.7,1.2-2.5c0.5-0.8,1-1.7,1.6-2.5c0.5-0.8,1-1.7,1.5-2.5c0.5-0.8,1-1.7,1.7-2.5c0.7-0.8,1.4-1.7,2-2.5
				c0.7-0.8,1.4-1.7,2-2.5c0.7-0.8,1.3-1.6,2-2.2h0.5l15-9.5l8.6-2.5h0.5c1.7-0.3,2.9-0.5,3.7-0.7c0.8-0.2,2.1-0.4,3.7-0.7h100.3
				c1.7,0.3,2.9,0.5,3.7,0.5c0.8,0,1.7,0.1,2.5,0.2c0.8,0.2,1.7,0.4,2.5,0.7c0.8,0.3,1.7,0.6,2.5,0.8c0.8,0.2,1.7,0.5,2.5,0.8
				c0.8,0.3,1.7,0.6,2.5,0.9c0.8,0.3,1.7,0.7,2.5,1.2c0.8,0.5,1.7,0.9,2.5,1.2c0.8,0.3,1.7,0.7,2.5,1.2c0.8,0.5,1.7,1.1,2.5,1.8
				c0.8,0.7,1.7,1.4,2.5,2c0.8,0.7,1.7,1.3,2.5,2c0.8,0.6,1.6,1.3,2.2,2v0.5l10,15.9l3.1,9v0.9l0.5,0.6v5.9l-0.5,0.5V303
				c-0.4,1.7-0.8,2.9-1.1,3.7c-0.3,0.8-0.5,1.7-0.7,2.5c-0.2,0.8-0.4,1.7-0.8,2.5c-0.4,0.8-0.7,1.7-1,2.5c-0.3,0.8-0.6,1.7-0.9,2.5
				c-0.3,0.8-0.7,1.7-1.2,2.5c-0.5,0.8-0.9,1.7-1.2,2.5c-0.3,0.8-0.8,1.7-1.5,2.5c-0.7,0.8-1.4,1.7-2,2.5c-0.7,0.8-1.4,1.7-2,2.5
				c-0.7,0.8-1.9,2.1-3.5,3.7h-0.5l-15.9,10l-9,3h-0.9l-0.6,0.5H456.3z M555.6,296.5v-60.4h-97.3v60.4H555.6z"/>
			<path class="st1" d="M667.3,346.4c-1.5-0.2-2.6-0.3-3.4-0.3c-0.8,0-1.5-0.1-2.3-0.2c-0.7-0.2-1.5-0.3-2.3-0.5c-0.8-0.2-1.5-0.4-2.3-0.7
				s-1.5-0.5-2.2-0.7c-0.7-0.2-1.5-0.4-2.3-0.7c-0.8-0.3-1.5-0.6-2.3-0.9c-0.7-0.3-1.5-0.6-2.3-1.1c-0.8-0.5-1.5-0.9-2.3-1.2
				s-1.5-0.7-2.3-1.2c-0.8-0.5-1.5-1-2.3-1.6c-0.7-0.6-1.5-1.2-2.3-1.8c-0.8-0.6-1.5-1.2-2.3-1.8c-0.7-0.6-1.7-1.5-3-2.7v-0.5
				l-9.8-15.8l-2.3-6.7v-1.4c-0.3-1.6-0.5-2.7-0.5-3.4c0-0.7-0.1-1.5-0.2-2.2c-0.2-0.7-0.2-1.5-0.2-2.3c0-0.8,0-1.5,0-2.3
				c0-0.7,0-1.5,0-2.3c0-0.8,0-1.5,0-2.3c0-0.7,0-1.5,0-2.3c0-0.8,0-1.5,0-2.3c0-0.7,0-1.5,0-2.3c0-0.8,0-1.5,0-2.3
				c0-0.7,0-1.5,0-2.3c0-0.8,0-1.5,0-2.3c0-0.7,0-1.5,0-2.3c0-0.8,0-1.5,0-2.3c0-0.7,0-1.5,0-2.2c0-0.7,0-1.5,0-2.3
				c0-0.8,0-1.5,0-2.3c0-0.7,0-1.5,0-2.3c0-0.8,0-1.5,0-2.3c0-0.7,0-1.5,0-2.3c0-0.8,0-1.5,0-2.3c0-0.7,0-1.5,0-2.3
				c0-0.8,0-1.5,0-2.3c0-0.7,0-1.5,0-2.3c0-0.8,0-1.5,0-2.3c0-0.7,0-1.5,0-2.3c0-0.8,0-1.5,0-2.3c0-0.7,0-1.5,0-2.2
				c0-0.7,0-1.5,0-2.3c0-0.8,0-1.5,0-2.3c0-0.7,0-1.5,0-2.3c0-0.8,0-1.5,0-2.3c0-0.7,0-1.5,0-2.3c0-0.8,0-1.5,0-2.3
				c0-0.7,0-1.5,0-2.3c0-0.8,0-1.5,0-2.3c0-0.7,0-1.5,0-2.3c0-0.8,0-1.5,0-2.3c0-0.7,0-1.5,0-2.3c0-0.8,0-1.5,0-2.3
				c0-0.7,0-1.5,0-2.3c0-0.8,0-1.5,0-2.3c0-0.7,0-1.5,0-2.2c0-0.7,0-1.5,0-2.3c0-0.8,0-1.5,0-2.3c0-0.7,0-1.5,0-2.3
				c0-0.8,0-1.5,0-2.3c0-0.7,0-1.5,0-2.3c0-0.8,0-1.5,0-2.3c0-0.7,0-1.5,0-2.3c0-0.8,0-1.5,0-2.3c0-0.7,0-1.9,0-3.4h49.3v110.1h98.3
				V187.1h49.3v159.3H667.3z"/>
			<path class="st1" d="M877.5,346.4l-0.5-0.3h-4.4c-1.5-0.3-2.5-0.5-3.3-0.7c-0.7-0.2-1.5-0.4-2.2-0.7c-0.7-0.3-1.5-0.6-2.2-0.9
				c-0.7-0.3-1.5-0.5-2.2-0.9c-0.7-0.3-1.5-0.6-2.2-0.9c-0.7-0.3-1.5-0.6-2.2-1.1c-0.7-0.5-1.5-0.9-2.2-1.3
				c-0.7-0.4-1.5-0.9-2.2-1.3c-0.7-0.5-1.5-1-2.2-1.6c-0.7-0.6-1.5-1.1-2.2-1.7c-0.7-0.6-1.5-1.1-2.2-1.7c-0.7-0.6-1.7-1.4-3-2.6
				v-0.5l-10.5-17.2c-0.5-1.5-0.9-2.5-1.2-3.3c-0.3-0.7-0.5-1.5-0.5-2.3c-0.3-1.5-0.5-2.5-0.7-3.3c-0.2-0.7-0.2-1.5-0.2-2.2
				c0-0.7,0-1.2,0-1.6v-0.9l-0.3-0.3V187.1h48.5v109.8h147.1v49.5H877.5z"/>
			<path class="st1" d="M199.3,549.3V390h222l0.3,0.5h4.4c1.5,0.3,2.5,0.5,3.2,0.7c0.7,0.2,1.4,0.3,2.1,0.4c0.7,0.1,1.5,0.3,2.2,0.6
				c0.7,0.3,1.5,0.6,2.2,0.9c0.7,0.3,1.5,0.6,2.2,1.1c0.7,0.5,1.4,0.9,2.1,1.3c0.7,0.4,1.4,0.8,2.1,1.2c0.7,0.4,1.5,0.8,2.2,1.1
				c0.7,0.3,1.5,0.8,2.2,1.3c0.7,0.6,1.4,1.1,2.1,1.7c0.7,0.6,1.4,1.2,2.1,1.9c0.7,0.7,1.8,1.6,3.3,2.7v0.5l10.3,16.7
				c0.5,1.5,0.9,2.5,1.2,3.3c0.3,0.7,0.6,1.7,0.9,2.8v2.2l0.3,0.5v4.2c0.3,1.5,0.8,2.6,1.4,3.4v110.3h-49V439h-61v110.3h-49V439h-61
				v110.3H199.3z"/>
			<path class="st1" d="M529.6,549.3c-1.7-0.3-2.9-0.5-3.7-0.5c-0.8,0-1.7-0.1-2.5-0.2c-0.8-0.2-1.7-0.4-2.5-0.7c-0.8-0.3-1.7-0.6-2.5-0.8
				c-0.8-0.2-1.7-0.5-2.5-0.8c-0.8-0.3-1.7-0.6-2.5-0.9c-0.8-0.3-1.7-0.7-2.5-1.2c-0.8-0.5-1.7-1-2.5-1.6c-0.8-0.5-1.7-1-2.5-1.5
				c-0.8-0.5-1.7-1-2.5-1.7c-0.8-0.7-1.7-1.4-2.5-2.3c-0.8-0.8-1.7-1.6-2.5-2.3c-0.8-0.7-1.4-1.2-1.7-1.5v-0.5l-10-16.5l-2.5-8.4
				v-0.5c-0.3-1.7-0.5-2.9-0.7-3.7c-0.2-0.8-0.2-1.7-0.2-2.5c0-0.8,0-1.7,0-2.5c0-0.8,0-1.7,0-2.5c0-0.8,0-1.7,0-2.5
				c0-0.8,0-1.7,0-2.5c0-0.8,0-1.7,0-2.5c0-0.8,0-1.7,0-2.5c0-0.8,0-1.7,0-2.5c0-0.8,0-1.7,0-2.5c0-0.8,0-1.7,0-2.5
				c0-0.8,0-1.7,0-2.5c0-0.8,0-1.7,0-2.5c0-0.8,0-1.7,0-2.5c0-0.8,0-1.7,0-2.5c0-0.8,0-1.7,0-2.5c0-0.8,0-1.7,0-2.5
				c0-0.8,0-1.7,0-2.5c0-0.8,0-1.7,0-2.5c0-0.8,0-1.7,0-2.5c0-0.8,0-1.7,0-2.5c0-0.8,0-1.7,0-2.5c0-0.8,0-1.7,0-2.5
				c0-0.8,0-1.7,0-2.5c0-0.8,0-1.7,0-2.5c0-0.8,0-1.7,0-2.5c0-0.8,0-1.7,0-2.5c0-0.8,0-1.5,0-1.9c0.3-1.7,0.5-2.9,0.7-3.7
				c0.2-0.8,0.2-1.7,0.2-2.5c0-0.8,0.2-1.7,0.5-2.5c0.3-0.8,0.6-1.7,0.8-2.5c0.2-0.8,0.5-1.7,0.8-2.5c0.3-0.8,0.6-1.7,0.9-2.5
				c0.3-0.8,0.7-1.7,1.2-2.5c0.5-0.8,1-1.7,1.6-2.5c0.5-0.8,1-1.7,1.5-2.5c0.5-0.8,1-1.7,1.7-2.5c0.7-0.8,1.4-1.7,2-2.5
				c0.7-0.8,1.4-1.7,2-2.5c0.7-0.8,1.3-1.6,2-2.2h0.5l15-9.5l8.6-2.5h0.5c1.7-0.3,2.9-0.5,3.7-0.7c0.8-0.2,2.1-0.4,3.7-0.7h100.3
				c1.7,0.3,2.9,0.5,3.7,0.5c0.8,0,1.7,0.1,2.5,0.2c0.8,0.2,1.7,0.4,2.5,0.7c0.8,0.3,1.7,0.6,2.5,0.8c0.8,0.2,1.7,0.5,2.5,0.8
				c0.8,0.3,1.7,0.6,2.5,0.9c0.8,0.3,1.7,0.7,2.5,1.2c0.8,0.5,1.7,0.9,2.5,1.2c0.8,0.3,1.7,0.7,2.5,1.2c0.8,0.5,1.7,1.1,2.5,1.8
				c0.8,0.7,1.7,1.4,2.5,2c0.8,0.7,1.7,1.3,2.5,2c0.8,0.6,1.6,1.3,2.2,2v0.5l10,15.9l3.1,9v0.9l0.5,0.6v5.9l-0.5,0.5v66.9
				c-0.4,1.7-0.8,2.9-1.1,3.7c-0.3,0.8-0.5,1.7-0.7,2.5c-0.2,0.8-0.4,1.7-0.8,2.5c-0.4,0.8-0.7,1.7-1,2.5c-0.3,0.8-0.6,1.7-0.9,2.5
				c-0.3,0.8-0.7,1.7-1.2,2.5c-0.5,0.8-0.9,1.7-1.2,2.5c-0.3,0.8-0.8,1.7-1.5,2.5c-0.7,0.8-1.4,1.7-2,2.5c-0.7,0.8-1.4,1.7-2,2.5
				c-0.7,0.8-1.9,2.1-3.5,3.7h-0.5l-15.9,10l-9,3h-0.9l-0.6,0.5H529.6z M629,499.4V439h-97.3v60.4H629z"/>
			<path class="st1" d="M767.6,549.3V439.2h-73.8V390h196.4v49.1h-73.8v110.1H767.6z"/>
			<path class="st1" d="M950.8,549.3c-1.7-0.3-2.9-0.5-3.7-0.5c-0.8,0-1.7-0.1-2.5-0.2c-0.8-0.2-1.7-0.4-2.5-0.7c-0.8-0.3-1.7-0.6-2.5-0.8
				c-0.8-0.2-1.7-0.5-2.5-0.8c-0.8-0.3-1.7-0.6-2.5-0.9c-0.8-0.3-1.7-0.7-2.5-1.2c-0.8-0.5-1.7-1-2.5-1.6c-0.8-0.5-1.7-1-2.5-1.5
				c-0.8-0.5-1.7-1-2.5-1.7c-0.8-0.7-1.7-1.4-2.5-2.3c-0.8-0.8-1.7-1.6-2.5-2.3c-0.8-0.7-1.4-1.2-1.7-1.5v-0.5l-10-16.5l-2.5-8.4
				v-0.5c-0.3-1.7-0.5-2.9-0.7-3.7c-0.2-0.8-0.2-1.7-0.2-2.5c0-0.8,0-1.7,0-2.5c0-0.8,0-1.7,0-2.5c0-0.8,0-1.7,0-2.5
				c0-0.8,0-1.7,0-2.5c0-0.8,0-1.7,0-2.5c0-0.8,0-1.7,0-2.5c0-0.8,0-1.7,0-2.5c0-0.8,0-1.7,0-2.5c0-0.8,0-1.7,0-2.5
				c0-0.8,0-1.7,0-2.5c0-0.8,0-1.7,0-2.5c0-0.8,0-1.7,0-2.5c0-0.8,0-1.7,0-2.5c0-0.8,0-1.7,0-2.5c0-0.8,0-1.7,0-2.5
				c0-0.8,0-1.7,0-2.5c0-0.8,0-1.7,0-2.5c0-0.8,0-1.7,0-2.5c0-0.8,0-1.7,0-2.5c0-0.8,0-1.7,0-2.5c0-0.8,0-1.7,0-2.5
				c0-0.8,0-1.7,0-2.5c0-0.8,0-1.7,0-2.5c0-0.8,0-1.7,0-2.5c0-0.8,0-1.7,0-2.5c0-0.8,0-1.5,0-1.9c0.3-1.7,0.5-2.9,0.7-3.7
				c0.2-0.8,0.2-1.7,0.2-2.5c0-0.8,0.2-1.7,0.5-2.5c0.3-0.8,0.6-1.7,0.8-2.5c0.2-0.8,0.5-1.7,0.8-2.5c0.3-0.8,0.6-1.7,0.9-2.5
				c0.3-0.8,0.7-1.7,1.2-2.5c0.5-0.8,1-1.7,1.6-2.5c0.5-0.8,1-1.7,1.5-2.5c0.5-0.8,1-1.7,1.7-2.5c0.7-0.8,1.4-1.7,2-2.5
				c0.7-0.8,1.4-1.7,2-2.5c0.7-0.8,1.3-1.6,2-2.2h0.5l15-9.5l8.6-2.5h0.5c1.7-0.3,2.9-0.5,3.7-0.7c0.8-0.2,2.1-0.4,3.7-0.7h100.3
				c1.7,0.3,2.9,0.5,3.7,0.5c0.8,0,1.7,0.1,2.5,0.2c0.8,0.2,1.7,0.4,2.5,0.7c0.8,0.3,1.7,0.6,2.5,0.8c0.8,0.2,1.7,0.5,2.5,0.8
				c0.8,0.3,1.7,0.6,2.5,0.9c0.8,0.3,1.7,0.7,2.5,1.2c0.8,0.5,1.7,0.9,2.5,1.2s1.7,0.7,2.5,1.2c0.8,0.5,1.7,1.1,2.5,1.8
				c0.8,0.7,1.7,1.4,2.5,2c0.8,0.7,1.7,1.3,2.5,2c0.8,0.6,1.6,1.3,2.2,2v0.5l10,15.9l3.1,9v0.9l0.5,0.6v5.9l-0.5,0.5v66.9
				c-0.4,1.7-0.8,2.9-1.1,3.7c-0.3,0.8-0.5,1.7-0.7,2.5c-0.2,0.8-0.4,1.7-0.8,2.5c-0.4,0.8-0.7,1.7-1,2.5c-0.3,0.8-0.6,1.7-0.9,2.5
				c-0.3,0.8-0.7,1.7-1.2,2.5c-0.5,0.8-0.9,1.7-1.2,2.5c-0.3,0.8-0.8,1.7-1.5,2.5c-0.7,0.8-1.4,1.7-2,2.5c-0.7,0.8-1.4,1.7-2,2.5
				c-0.7,0.8-1.9,2.1-3.5,3.7h-0.5l-15.9,10l-9,3h-0.9l-0.6,0.5H950.8z M1050.2,499.4V439h-97.3v60.4H1050.2z"/>
			<path class="st1" d="M242.4,752.2c-1.9-0.6-3.2-1-4.1-1.2c-0.9-0.2-2.1-0.5-3.5-0.8h-0.6c-1.8-0.7-3.1-1.3-4.1-1.6c-0.9-0.4-1.9-0.8-2.7-1.4
				c-0.9-0.6-1.8-1.1-2.7-1.6c-0.9-0.5-1.8-1.1-2.7-1.6c-0.9-0.6-1.8-1.2-2.7-2c-0.9-0.7-1.8-1.5-2.7-2.2c-0.9-0.7-2.1-1.8-3.5-3.3
				V736l-10.5-16.4V719c-0.7-1.8-1.2-3.1-1.3-4.1c-0.2-0.9-0.4-2.3-0.9-4.1v-0.6c-0.3-1.8-0.5-3.1-0.7-4.1c-0.2-0.9-0.2-1.8-0.2-2.7
				c0-0.9,0-1.8,0-2.7c0-0.9,0-1.8,0-2.7c0-0.9,0-1.8,0-2.7c0-0.9,0-1.8,0-2.7c0-0.9,0-1.8,0-2.7c0-0.9,0-1.8,0-2.7
				c0-0.9,0-1.8,0-2.7c0-0.9,0-1.8,0-2.7c0-0.9,0-1.8,0-2.7c0-0.9,0-1.8,0-2.7c0-0.9,0-1.8,0-2.7c0-0.9,0-1.8,0-2.7
				c0-0.9,0-1.8,0-2.7c0-0.9,0-1.8,0-2.7c0-0.9,0-1.8,0-2.7c0-0.9,0-1.8,0-2.7c0-0.9,0-1.8,0-2.7c0-0.9,0-1.8,0-2.7
				c0-0.9,0-1.8,0-2.7c0-0.9,0-1.8,0-2.7c0-0.9,0-1.8,0-2.7c0-0.9,0-1.8,0-2.7c0-0.9,0-2.3,0-4.1c0.3-1.8,0.5-3.1,0.7-4.1
				c0.2-0.9,0.3-1.8,0.5-2.7c0.2-0.9,0.4-1.8,0.5-2.7c0.2-0.9,0.4-1.8,0.8-2.7c0.4-0.9,0.7-1.8,1.1-2.7c0.4-0.9,0.7-1.8,1.1-2.7
				c0.4-0.9,0.8-1.8,1.4-2.7c0.6-0.9,1.1-1.8,1.6-2.7c0.5-0.9,1.1-1.8,1.9-2.7c0.7-0.9,1.5-1.8,2.2-2.7c0.7-0.9,1.8-2.1,3.3-3.5h0.6
				l15.8-10.5h0.6c1.8-0.7,3.1-1.2,4.1-1.3c0.9-0.2,2.3-0.4,4.1-0.9h0.6c1.8-0.3,3.1-0.6,4.1-0.8c0.9-0.2,1.9-0.5,3-0.8h147.7v48.5
				H247.8v61h147.1v49.6H242.4z"/>
			<path class="st1" d="M409.9,752.2V593.1h149.8c1.8,0.4,3.1,0.7,4.1,0.9c0.9,0.2,1.9,0.2,2.8,0.2s1.9,0.2,2.8,0.5c0.9,0.4,1.8,0.7,2.7,0.9
				c0.9,0.2,1.8,0.5,2.7,0.9c0.9,0.4,1.9,0.7,2.8,1.1c0.9,0.4,1.8,0.8,2.7,1.4c0.9,0.6,1.8,1.1,2.7,1.6c0.9,0.5,1.9,1.1,2.8,1.9
				c0.9,0.7,1.9,1.6,2.8,2.5c0.9,0.9,1.8,1.8,2.7,2.5c0.9,0.7,1.7,1.5,2.4,2.2v0.6l10,15.4v0.6c0.7,1.8,1.2,3.1,1.4,4.1
				c0.2,0.9,0.5,2.3,0.8,4.2v0.5c0.4,1.9,0.7,3.3,0.9,4.2c0.2,0.9,0.2,2.1,0.2,3.6c-0.3,1.9-0.6,3.3-0.8,4.1
				c-0.2,0.9-0.3,1.8-0.3,2.7s0,1.6,0,2c-0.7,1.8-1.2,3.1-1.3,4.1c-0.2,0.9-0.4,2-0.9,3.1l-6.5,11.1l7.6,12.2v0.5
				c0.7,1.9,1.1,3.3,1.1,4.1c0,0.9,0.2,1.5,0.6,2v63.5h-49.1v-61.3h-98.4v61.3H409.9z M557.5,654v-24.3h-98.4V654H557.5z"/>
			<path class="st1" d="M665.6,752.2c-1.8-0.3-3.1-0.5-3.9-0.5c-0.8,0-1.7-0.2-2.6-0.5c-0.9-0.4-1.8-0.6-2.7-0.8c-0.9-0.2-1.8-0.4-2.7-0.8
				c-0.9-0.4-1.8-0.7-2.7-1c-0.9-0.3-1.8-0.7-2.7-1c-0.9-0.4-1.8-0.8-2.7-1.3c-0.9-0.5-1.7-1-2.6-1.6c-0.8-0.5-1.7-1.1-2.6-1.9
				c-0.9-0.7-1.8-1.4-2.7-2.1c-0.9-0.7-1.8-1.4-2.7-2.1c-0.9-0.7-1.8-1.5-2.7-2.4c-0.9-0.9-1.5-1.5-1.8-1.8V734l-7.3-12.6l-2.7-8
				v-11.5l-0.5-0.5v-61c0.3-1.8,0.5-3.1,0.5-4c0-0.9,0.1-1.8,0.2-2.7c0.2-0.9,0.4-1.7,0.8-2.6c0.4-0.8,0.7-1.7,1.1-2.6
				c0.4-0.9,0.6-1.8,0.8-2.7c0.2-0.9,0.5-1.8,1-2.7c0.5-0.9,1-1.8,1.6-2.7c0.5-0.9,1-1.8,1.3-2.7c0.4-0.9,0.9-1.7,1.6-2.6
				c0.7-0.8,1.4-1.7,2.1-2.6c0.7-0.9,1.4-1.8,2-2.7c0.7-0.9,1.9-2.2,3.7-4h0.6l15.1-9.5l9-2.5h0.5c1.8-0.4,3.1-0.7,4-0.9
				c0.9-0.2,1.8-0.2,2.7-0.2c0.9,0,1.7,0,2.6,0c0.8,0,1.7,0,2.6,0c0.9,0,1.8,0,2.7,0c0.9,0,1.8,0,2.7,0c0.9,0,1.8,0,2.7,0
				c0.9,0,1.8,0,2.7,0c0.9,0,1.7,0,2.6,0c0.8,0,1.7,0,2.6,0c0.9,0,1.8,0,2.7,0c0.9,0,1.8,0,2.7,0c0.9,0,1.8,0,2.7,0
				c0.9,0,1.8,0,2.7,0c0.9,0,1.7,0,2.6,0c0.8,0,1.7,0,2.6,0c0.9,0,1.8,0,2.7,0c0.9,0,1.8,0,2.7,0c0.9,0,1.8,0,2.7,0
				c0.9,0,1.8,0,2.7,0c0.9,0,1.8,0,2.7,0c0.9,0,1.7,0,2.6,0c0.8,0,1.7,0,2.6,0c0.9,0,1.8,0,2.7,0c0.9,0,1.8,0,2.7,0
				c0.9,0,1.8,0,2.7,0c0.9,0,1.8,0,2.7,0c0.9,0,1.7,0,2.6,0c0.8,0,1.7,0,2.6,0c0.9,0,1.8,0,2.7,0c0.9,0,1.8,0,2.7,0
				c0.9,0,1.8,0,2.7,0c0.9,0,1.8,0,2.7,0c0.9,0,1.7,0,2.6,0c0.8,0,1.7,0,2.6,0c0.9,0,1.8,0,2.7,0c0.9,0,1.8,0,2.7,0
				c0.9,0,1.8,0,2.7,0c0.9,0,1.8,0,2.7,0c0.9,0,1.8,0,2.9,0c1.8,0.3,3.1,0.5,3.9,0.5c0.8,0,1.7,0.1,2.6,0.3c0.9,0.2,1.8,0.4,2.7,0.5
				c0.9,0.2,1.8,0.4,2.7,0.8c0.9,0.4,1.8,0.6,2.7,0.8c0.9,0.2,1.8,0.5,2.7,1c0.9,0.5,1.8,1,2.7,1.3c0.9,0.4,1.7,0.8,2.6,1.3
				c0.8,0.5,1.7,1.1,2.6,1.8c0.9,0.7,1.8,1.3,2.7,1.9c0.9,0.6,1.8,1.2,2.7,1.9c0.9,0.7,2,1.7,3.4,3.2v0.5l10,15.8v0.5
				c0.7,1.8,1.2,3.1,1.3,4c0.2,0.9,0.4,2.2,0.9,4v0.5c0.3,1.8,0.5,3.1,0.5,4c0,0.9,0.1,1.8,0.3,2.7c0.2,0.9,0.3,1.8,0.3,2.7
				c0,0.9,0,1.7,0,2.6c0,0.8,0,1.7,0,2.6c0,0.9,0,1.8,0,2.7c0,0.9,0,1.8,0,2.7c0,0.9,0,1.8,0,2.7c0,0.9,0,1.8,0,2.7
				c0,0.9,0,1.7,0,2.6c0,0.8,0,1.7,0,2.6c0,0.9,0,1.8,0,2.7c0,0.9,0,1.8,0,2.7c0,0.9,0,1.8,0,2.7c0,0.9,0,1.8,0,2.7
				c0,0.9,0,1.8,0,2.7c0,0.9,0,1.7,0,2.6c0,0.8,0,1.7,0,2.6c0,0.9,0,1.8,0,2.7c0,0.9,0,1.8,0,2.7c0,0.9,0,2.2,0,4H669.4v24.2H816
				v36.7H665.6z M767,653.5v-23.6h-97.7v23.6H767z"/>
			<path class="st1" d="M831.1,752.2V593h48.7v110.6h61.8V593h49.3v110.6h61.6V593h48.8v112.2c-0.3,1.4-0.5,2.4-0.6,3c-0.1,0.7-0.2,1.4-0.4,2
				c-0.2,0.7-0.3,1.4-0.4,2c-0.1,0.7-0.2,1.4-0.4,2c-0.2,0.7-0.3,1.4-0.4,2c-0.1,0.7-0.3,1.3-0.6,2c-0.3,0.6-0.6,1.3-0.9,1.9
				c-0.3,0.7-0.5,1.4-0.8,2c-0.3,0.7-0.6,1.4-1,2c-0.4,0.7-0.8,1.4-1.2,2c-0.4,0.7-0.8,1.4-1.2,2c-0.4,0.7-0.8,1.4-1.4,2
				c-0.6,0.7-1.1,1.4-1.6,2c-0.5,0.7-1.1,1.4-1.8,2c-0.7,0.7-1.3,1.4-1.8,2c-0.5,0.7-1.2,1.4-2,2.3h-0.5l-15.3,10
				c-1.4,0.5-2.4,0.9-3,1.2c-0.7,0.3-1.4,0.5-2.1,0.5c-1.4,0.5-2.4,0.8-3,0.9c-0.7,0.1-1.7,0.2-3,0.2c-1.4,0.3-2.4,0.5-3,0.6
				c-0.7,0.1-1.4,0.2-2,0.2c-0.7,0-1.4,0-2,0c-0.7,0-1.3,0-2,0c-0.7,0-1.4,0-2,0c-0.7,0-1.4,0-2,0c-0.7,0-1.4,0-2,0
				c-0.7,0-1.4,0-2,0c-0.7,0-1.4,0-2,0c-0.7,0-1.3,0-1.9,0c-0.6,0-1.3,0-2,0c-0.7,0-1.4,0-2,0c-0.7,0-1.3,0-2,0c-0.7,0-1.4,0-2,0
				c-0.7,0-1.4,0-2,0c-0.7,0-1.4,0-2,0c-0.7,0-1.4,0-2,0c-0.7,0-1.4,0-2,0c-0.7,0-1.3,0-2,0c-0.7,0-1.4,0-2,0c-0.7,0-1.4,0-2,0
				c-0.7,0-1.4,0-2,0c-0.7,0-1.4,0-2,0c-0.7,0-1.3,0-2,0c-0.6,0-1.3,0-2,0c-0.7,0-1.4,0-2,0c-0.7,0-1.4,0-2,0c-0.7,0-1.3,0-2,0
				c-0.7,0-1.4,0-2,0c-0.7,0-1.4,0-2,0c-0.7,0-1.4,0-2,0c-0.7,0-1.4,0-2,0c-0.7,0-1.4,0-2,0c-0.7,0-1.3,0-2,0c-0.7,0-1.4,0-2,0
				c-0.7,0-1.4,0-2,0c-0.7,0-1.4,0-2,0c-0.7,0-1.3,0-2,0s-1.3,0-2,0c-0.7,0-1.4,0-2,0c-0.7,0-1.4,0-2,0c-0.7,0-1.4,0-2,0
				c-0.7,0-1.3,0-2,0c-0.7,0-1.4,0-2,0c-0.7,0-1.4,0-2,0c-0.7,0-1.4,0-2,0c-0.7,0-1.4,0-2,0c-0.7,0-1.4,0-2,0c-0.7,0-1.3,0-2,0
				c-0.7,0-1.4,0-2,0c-0.7,0-1.4,0-2,0c-0.7,0-1.3,0-2,0c-0.6,0-1.3,0-2,0c-0.7,0-1.4,0-2,0c-0.7,0-1.4,0-2,0c-0.7,0-1.4,0-2,0
				c-0.7,0-1.4,0-2,0c-0.7,0-1.3,0-2,0c-0.7,0-1.4,0-2,0c-0.7,0-1.4,0-2,0c-0.7,0-1.4,0-2,0c-0.7,0-1.4,0-2,0c-0.7,0-1.4,0-2,0
				c-0.7,0-1.3,0-2,0c-0.7,0-1.4,0-2,0c-0.7,0-1.4,0-2,0c-0.7,0-1.3,0-2,0c-0.6,0-1.3,0-2,0c-0.7,0-1.4,0-2,0c-0.7,0-1.4,0-2,0
				c-0.7,0-1.4,0-2,0c-0.7,0-1.4,0-2,0c-0.7,0-1.3,0-2,0c-0.7,0-1.4,0-2,0c-0.7,0-1.4,0-2,0c-0.7,0-1.4,0-2,0c-0.7,0-1.4,0-2,0
				c-0.7,0-1.4,0-2,0c-0.7,0-1.3,0-2,0c-0.7,0-1.4,0-2,0c-0.7,0-1.3,0-2,0s-1.3,0-2,0c-0.7,0-1.4,0-2,0c-0.7,0-1.4,0-2,0
				c-0.7,0-1.4,0-2,0c-0.7,0-1.4,0-2,0c-0.7,0-1.4,0-2,0c-0.7,0-1.3,0-2,0c-0.7,0-1.4,0-2,0c-0.7,0-1.4,0-2,0c-0.7,0-1.4,0-2,0
				c-0.7,0-1.4,0-2,0c-0.7,0-1.4,0-2,0c-0.7,0-1.3,0-2,0c-0.7,0-1.3,0-2,0s-1.3,0-2,0c-0.7,0-1.3,0-2,0c-0.7,0-1.4,0-2,0
				c-0.7,0-1.4,0-2,0c-0.7,0-1.4,0-2,0c-0.7,0-1.4,0-2,0c-0.7,0-1.4,0-2,0c-0.7,0-1.3,0-2,0c-0.7,0-1.4,0-2,0c-0.7,0-1.4,0-2,0
				c-0.7,0-1.4,0-2,0c-0.7,0-1.4,0-2,0c-0.7,0-1.4,0-2,0c-0.7,0-1.3,0-1.9,0c-0.6,0-1.3,0-2,0c-0.7,0-1.4,0-2,0
				C832.3,752.2,831.7,752.2,831.1,752.2z"/>
		</g>
		<g>
			<path class="st1" d="M965.9,1778.3c-3.1,5.1-5.2,11.2-9.4,15.2c-27.4,26.1-55.1,51.9-83.1,77.4c-12.4,11.3-25.6,21.7-38.6,32.2
				c-2.7,2.2-6.3,3.2-11.2,5.5c19-18,36.5-34.7,54-51.3c-0.7-0.8-1.3-1.6-2-2.3c-4.7,3.9-9.5,7.6-14,11.7
				c-32.9,30.1-65.5,60.4-98.6,90.3c-7.4,6.6-16.3,11.6-24.7,17c-1.2,0.8-3.3,0-5,0c0.1-1.9-0.5-4.4,0.4-5.5c2.4-2.7,5.6-4.6,8.3-7
				c6.8-6,13.4-12,20.1-18c-0.5-0.7-0.9-1.3-1.4-2c-3.5,1.2-7,2.3-10.5,3.5c5.5-4.8,11.1-9.5,16.6-14.3c0.5,0.6,0.9,1.2,1.4,1.9
				c-0.2,1.1-0.4,2.2-0.7,3.8c6.8-7.3,12.9-13.9,19.1-20.5c-0.5-0.7-1-1.3-1.5-2c-16,11.4-32,22.8-48,34.2c0.4,0.6,0.9,1.3,1.3,1.9
				c4-1.8,8.1-3.6,12.1-5.4c-6.1,5.7-12.2,11.3-20.3,18.9c-2.8-17.6-5.1-32.5-7.4-47.3c-1-6.6-1.4-13.4-3-19.9
				c-2.2-9,0-15.1,7.3-21.5c31.5-27.6,62.8-55.4,93.3-84c18.5-17.3,35.3-36.4,53-54.7c18.8-19.5,38.4-38.3,56.4-58.6
				c28.2-31.8,55.3-64.5,82.9-96.8c2.6-3,4.8-6.6,7.9-8.9c9.4-6.7,12.5-15.8,11.2-29.2c-7.9,5.4-14.9,10.2-22.7,15.5
				c-8.6-1.7-18.6-2.5-27.4,7.5c-5.5-8.2-13.9-13.8-11.4-25c0.4-1.8-0.8-4-1.5-6c-0.5-1.4-2.5-2.8-2.2-3.9
				c2.5-12.3-10.2-25.3,1.8-37.3c1.1-1.1-0.6-5.2-1.4-7.8c-3.2-10.5-6.5-21-10.5-33.9c-8.4,11.8-14.3,8.1-20.7,1.2
				c-4.3-4.7-10.4-7.7-14.6-12.4c-2.3-2.5-2.6-7-3.7-10.6c-0.7-2.1-1-4.4-1.9-6.5c-0.6-1.3-2.7-2.4-2.6-3.5
				c0.2-11-7.6-21.2-2.7-32.7c1.5-3.4,1.2-7.6,2-12.8c25.5,0.2,46.9-15,69.6-25.2c15.8-7.1,29.6-19.3,43.1-30.7
				c19.1-16.1,37.2-33.5,55.6-50.5c1.8-1.7,2.1-5.1,3.1-7.7c-2.4-0.5-4.9-1.6-7.3-1.5c-6,0.4-10-0.9-13.3-6.9
				c-2.6-4.6-8.3-7.4-14.3-9.5c-0.8-6.1-1.5-12.2-2.6-20.5c-4.2-1.1-10.2-2.7-17.5-4.6c2.2-2.8,3.3-4.3,3.1-4.1
				c-2.7-6.5-5.4-11.4-6.7-16.7c-2.4-9.7-5.3-19.6-5.6-29.5c-0.2-8.7-3.4-19.6,8.7-24.9c2-0.9,3.5-5.4,3.3-8.1
				c-0.6-12.1,6.6-19.3,17.3-14.6c18,7.9,35.1,4.6,52.8,0.2c5.5-1.4,11.4-1,17.2-1.4c0.3,0.9,0.7,1.7,1,2.6c-2.3,2-4.7,4.1-7,6.1
				c0.6,0.5,1.2,0.9,1.8,1.4c2.5-3.2,5.6-6.1,7.3-9.7c2.6-5.7,5.1-10.5,13-8.6c-0.8,2-1.6,4-2.4,6c0.5,0.8,0.9,1.6,1.4,2.3
				c23.4-9.8,46.8-19.7,70.2-29.5c-0.9-0.7-1.8-1.5-2.7-2.2c0.7-2.2,0.8-5.5,2.3-6.3c7.5-4,15.4-7.4,20.9-9.9
				c3.1-4.7,5.1-7.7,7-10.7c2.5-4,5.6-7.8,7.1-12.1c3.5-10.3,6.2-20.9,9.3-31.4c0.6-2,1.1-4.1,1.7-6.1c3.1-11.7,7.4-23.2,9.2-35.1
				c3.9-25,11.1-50.5-4.9-74.4c-1.8-2.7-3.2-6-3.9-9.2c-1-4.3-1-7.5,5.7-6.2c3.7,0.7,8.2-2.1,12.1-3.2c-3.3-24.4,8.2-40.6,32.5-45.6
				c11.2-2.3,22.5-6.2,32.6,4.4c1.8,1.9,8.8,0.1,12.7-1.6c4.8-2.1,6.5-0.6,9.6,3c6.7,7.8,14.1,15.1,21.7,22c1.9,1.7,5.8,1.9,8.7,1.5
				c9.3-1.3,18.4-3.6,27.7-4.5c3.5-0.3,7.2,2.1,10.8,3.3c5.6,1.8,11.5,3.1,16.9,5.5c4.5,2,10.1,3.3,9.5,10.6
				c-0.5,6.3-0.1,12.7-0.1,20.4c2.2-0.1,5.3-0.3,11.1-0.7c0.2,5.4,0.1,10.9,0.8,16.3c2.3,19.3-15.2,23.8-25,34
				c-10.4,10.8-20.8,21.5-31.1,32.4c-5.4,5.7-10.4,11.8-15.7,17.6c-5.1,5.5-6.4,14-14.2,17.3c-0.4,0.2-0.1,2.2-0.1,4.9
				c6-2.9,11.1-5.1,16-7.7c12.9-6.7,26.4-10.3,41.1-11.7c13.3-1.3,25.4-5.4,36.7-15.5c13.8-12.3,31.8-19.9,48.2-29.2
				c1.7-0.9,4.6,0.5,6.9,0.6c3.9,0.2,7.9,0.1,11.8,0.3c2.3,0.1,5.2,0,6.8,1.2c13.3,9.8,21.2,5.8,31.1-3.7c2.1-2,4-4.3,6.2-6.6
				c3.5,10.8-7.7,13.2-12.9,22.5c6.4,0,10.9,0.6,15.2-0.1c6.8-1.2,11.2,1.1,15.9,6.2c5.2,5.6,12.6,9,18.3,14.2
				c4.6,4.2,7,11.1,12.1,14.3c8.4,5.3,14.9,12.1,21.2,19.5c6.1,7.2,8.4,15.3,6.8,24.7c-2.4,14.9-4.8,29.7-18.7,39.2
				c-2.3,1.6-3.7,4.6-6.2,7.8c-0.8-2-1.4-3.4-2-4.8c-25.3,17.7-47.2,38.6-62.9,65.5c-3.3,5.6-6.3,10.1-14.2,6.2
				c-2.2-1.1-7.8,0.7-9.3,2.9c-5.2,7.2-9,15.3-13.8,22.8c-1.9,2.9-5.4,4.8-7.4,7.7c-12.8,19.3-25.5,38.8-38.1,58.3
				c-0.6,0.9-0.5,2.3-0.8,3.4c0.7,0.6,1.4,1.3,2.1,1.9c3.4-3.6,6.7-7.2,10.1-10.8c0.7,0.2,1.3,0.5,2,0.7c-1.8,4.6-3,9.6-5.6,13.8
				c-7.8,12.7-4.3,25.9-2.2,39c0.3,1.6,4,3,6.3,3.9c3.1,1.3,8.7,1.6,9.2,3.4c1.6,5.7,2.2,12,1.4,17.9c-0.4,3.4-3.6,7.1-6.6,9.4
				c-7.8,6.2-16.2,11.7-24.4,17.4c-0.5,0.4-1.1,0.6-1.5,1.1c-10.7,12.6-21.5,25.1-32,37.9c-3.1,3.8-18.5,9.4-23.5,7.1
				c-4.6-2.1-5-1.3-6.6,3.6c-1.7,5.1-7.6,8.7-11.1,13.4c-3.9,5.3-7.8,10.8-10.7,16.7c-22.1,44.3-44,88.6-65.9,133
				c-1,2.1-1.6,4.4-3.3,9.1c8.5-5.7,14.8-9.9,18.9-12.7c0.7-4.8,0.2-7.7,1.5-9.2c7.3-8.2,14.9-16.2,22.6-24c1.8-1.9,4.3-3.7,6.8-4.3
				c4.5-1.1,5.1-3.8,7-7.6c2.7-5.4,8.9-9.7,14.5-12.7c6.1-3.3,13.1-5,19.9-6.4c3.1-0.6,6.6,1.4,9.9,1.9c5.6,0.8,3.7,4.5,4.2,8.1
				c0.4,2.9,3.9,6.3,6.8,7.6c10,4.4,20.3,8.5,30.7,11.7c9.7,3,13.5,8.5,12.2,18.6c-0.4,2.8,2.4,5.9,2.2,8.7
				c-0.4,5.5-1.8,11-2.8,16.5c-1,0.1-2,0.2-2.9,0.2c2.4,0.8,4.8,1.5,7.2,2.3c0.1,0.5,0.6,1.2,0.4,1.6c-7.5,14.8-17.2,25.8-33.2,34
				c-17.1,8.7-31,24.2-45.4,37.6c-10.9,10.2-20.4,21.8-30.3,33c-2.3,2.6-3.7,5.9-5.3,10.3c7.1-6.4,11.8-6,14.4,2.8
				c0.5,1.6,2.1,3.4,3.6,4c15,5.9,15.8,22.3,24,33.2c4.2,5.6-1,12.2-6.4,16.3c-9.5,7.3-17.7,14.8-19.2,28.2
				c-1,9.6-13.4,16.9-22.8,16.1c-2.7-0.2-5.7,1.2-8.5,2.2c-10.8,3.8-21.5,7.8-32.6,11.9c1.5,4,2.4,6.3,3.3,8.6
				c-0.4,0.7-0.9,1.5-1.3,2.2c-4.7-1.9-9.2-4.1-14-5.8c-3.7-1.3-7.6-1.8-11.4-2.9c-5.7-1.7-11.3-3.8-17.1-5.5
				c-2.6-0.7-5.3-0.7-8.2-1c0.2-1.4,0.4-3,0.7-4.8c-1.4-0.1-2.5-0.5-3.1-0.2c-14.9,9-29.8,17.9-44.5,27.2c-1.5,1-2.9,4.2-2.5,5.9
				c2.8,11.8,4.8,24,9.5,35.1c6.1,14.2,16.3,18.4,31.5,15.6c29.9-5.5,56.8-18.5,82-35c2.7-1.8,5.5-3.5,9.7-6.3
				c-0.7,4-1.1,6.2-1.5,8.2c0.5,0.3,0.9,0.7,0.9,0.6c34.4-30.2,68.8-60.4,103.6-90.2c-33.2,45.5-75.1,82.2-121.3,114.3
				c0.8,0.9,1.5,1.9,2.3,2.8c12.6-9.3,25.6-18.2,37.7-28.1c58.8-48.4,107-106.3,150.7-168.2c3.8-5.4,4.3-13.3,6.6-21.2
				c0.7,3.3,1.2,5.5,2.2,9.8c11.7-18.5,22.9-35.5,33.5-52.9c21.3-34.7,39.7-70.9,52.4-109.7c1.7-5.1,1.5-10.8,3.1-16
				c2.6-8.3,5.4-16.6,9.1-24.4c21.6-45.8,38.7-93,44.8-143.6c0.2-1.5,0.6-2.9,1.3-6c13.1,14.5,22.3,29.5,25.2,47.7
				c4.6,28.4,2.7,57.1-3,84.8c-16.6,81-48.1,155.8-95.4,224.1c-29,41.9-59.5,82.2-95.8,118c-3.3,3.2-7.3,5.6-10.1,9.2
				c16.5-1.4,117-122,147.8-170.8c40.8-64.6,62.5-137.2,87.8-208.4c-7.4,49.2-13.7,98.5-36.1,143.8c-3.7,7.4-6.4,15.3-10.3,22.5
				c-4.7,8.7-7.9,17.2-1.2,26.7c-0.9,0.3-1.8,0.6-2.6,0.9c-1.7-3-3.5-5.9-4.4-7.5c-7.8,9.9-16.7,21.2-25.5,32.5
				c-0.7,0.9-1.2,2.2-1.5,3.3c-5.5,21.6-18.7,38.8-32,55.9c-2.9,3.7-4,8.8-6,13.3c1,0.7,2.1,1.4,3.1,2.1c1.8-2.2,3.7-4.3,5.4-6.5
				c18.9-25.2,40.1-48.9,56-75.9c20.7-35.1,38.5-72.1,55.2-109.4c20-44.9,35.8-91.5,46-139.7c2.4-11.3,0.4-23.5,0.4-35.2
				c-0.8-0.2-1.6-0.3-2.5-0.5c-1.2,3.8-2.6,7.5-3.6,11.3c-0.8,3-1.3,6-1.9,9c-1-0.1-2-0.2-3-0.3c-0.8-1.8-2.2-3.6-2.4-5.4
				c-2.6-18.4-5.1-36.9-7.4-55.3c-4.8-37.6-44.7-73.3-82.5-73c-8.7,0.1-13.9-1.8-18.9-9.9c-16-25.7-41.3-38-69.8-45
				c-2.6-0.6-5.2-1.2-7.7-2.6c34.5-6.2,69.2-9.2,104.2-7.9c35.2,1.3,70.1,5.8,104,15.6c3.3,1,6,4,9,6c3.9,2.6,7.6,6.4,11.9,7.5
				c50.4,12.9,85.3,45.4,110,89.1c8.1,14.3,11.1,31.4,16.1,47.3c2.3,7.4,4,14.4,12.8,17.5c2.6,0.9,4.3,6.2,5.1,9.8
				c15.5,64.3,11,127.3-13.6,188.8c-4.6,11.6-9.2,23.1-13.9,35.1c3,1.6,5.3,2.8,8.3,4.3c-5.3,9.3-6.6,20.9-18.1,26.1
				c-2,0.9-2.8,4.5-4.2,6.9c-24.8,43.8-46.1,90.1-75.2,130.9c-51.4,72-105.1,142.6-169.9,203.6c-6.4,6-12,12.8-18.6,20
				c20.9-1.7,40.1-5.7,58-15.9c8-4.6,17.2-7.1,26-10.5c12.5-4.9,25.3-9.1,37.5-14.6c11-4.9,21.1-11.8,32.1-16.5
				c7.8-3.4,16.4-5,24.8-6.8c1.7-0.4,4,1.6,6,2.5c-1.3,1.7-2.4,3.8-4.1,4.9c-25.7,16.3-51.1,33.2-77.6,48.4
				c-17.1,9.8-35.7,17.1-53.6,25.5c-8.4,4-16.7,8.1-25.1,12.1c0.3,0.7,0.6,1.5,0.8,2.2c5.8-1.2,11.6-2.4,20-4.2
				c-3.7,5.4-6.1,8.9-7.9,11.4c7.4,1.8,14.8,4.3,22.4,5.1c4.5,0.5,9.2-2.1,13.9-2.9c38.5-6.5,77-12.9,115.5-19.4
				c1.4-0.2,2.8-0.3,4.2-0.4c0.3,0.7,0.6,1.5,0.9,2.2c-3.5,1.7-6.8,4.1-10.5,5c-15.4,3.6-31,6.8-46.5,10.1c-2.9,0.6-5.7,1.6-8.2,4.5
				c9.1-1.2,18.2-2.5,27.3-3.4c9.6-1,19.3-1.8,29-2.6c4.8-0.4,9.7-0.9,14.5-1c2.4-0.1,4.8,0.6,7.2,0.9c-1.8,1.5-3.4,3.8-5.5,4.4
				c-20.3,5.5-40.7,10.5-61,16.1c-5,1.4-9.6,4.3-13.6,8.3c44.7-7.1,89.3-14.1,134-21.2c0.2,1,0.3,2,0.5,3
				c-51.5,9.4-103.1,18.6-154.6,28.1c-14.9,2.8-30.5,3.2-43.4,13.1c-1.5,1.2-4.7,2.1-6,1.3c-13.5-8.5-26.6-0.3-39.5,1.6
				c-15.3,2.2-30,8.1-45.2,11c-17.6,3.4-35.6,4.7-53.2,7.8c-73,13-145.8,26.7-218.9,39.4c-37.8,6.6-75.8,11.6-113.8,17.3
				c-1.2,0.2-2.4,0-4.7,0c6.4-8.6,12.1-15,23.7-14.8c12.4,0.3,24.8-1.7,37.2-3.1c2.5-0.3,4.8-2.6,7.3-3.5c6.3-2.2,12.5-4.5,19-6
				c22.6-5.1,45.2-9.8,67.8-15c4.2-1,8.1-3.5,12.2-5.2c-0.3-1.1-0.6-2.2-0.9-3.3c-46.5,8.1-92.9,16.2-137.5,24
				c-4.3-1.7-7.3-3.6-10.4-4.1c-37.3-5.4-72.7-15.9-103.9-37.7c-30.9-21.5-50.5-51.2-64.4-85.9c-16-40.1-12.1-80.2-4.6-121
				c9.9-53.6,26.5-105.3,44-156.8c1-2.8,1.8-5.7,1-9.5c-4.8,8.4-9.8,16.7-14.4,25.2c-4.7,8.5-9,17.3-14,25.7
				c3.6-24.5,12.3-47.2,22.5-69.5c28.7-62.7,62.9-122.2,104.5-177.2c7.9-10.4,14.7-21.7,22.5-33.4c-15.6,3.3-30.4,6.1-44.9,9.8
				c-7.7,1.9-16.4-2-23.3,4.2c-1.3,1.1-4,1.1-4.7,2.4c-4.9,9.8-10.4,19.4-14.1,29.7c-6.4,18.3-10.8,37.4-17.9,55.4
				c-2.7,6.7-10.6,11.3-16.3,16.7c-2.4,2.3-5.9,3.7-7.7,6.4c-15.4,23-30.6,46.3-45.8,69.4c-0.9-0.5-1.7-1-2.6-1.6
				c6.2-10.2,12.4-20.3,19.2-31.3c-2.5,1.2-4.3,2-8.7,4.2c7.2-10.9,13-19.6,18.8-28.3c-0.6-0.4-1.2-0.9-1.9-1.3
				c-19.9,18.4-38.6,37.8-54.1,60.3c-16.4,23.8-34.3,46.7-51.5,70c-2.3,3.1-4.4,6.3-6.6,9.4c0.6,0.6,1.1,1.2,1.7,1.9
				c8.3-6.2,16.6-12.3,24.9-18.5c0.6,0.5,1.3,1.1,1.9,1.6c-3.6,4.5-6.9,9.4-10.9,13.6c-7.9,8.3-16.2,16.2-24.4,24.2
				c-2.1,2.1-4.6,3.7-7,5.5c3.5-6.6,7-13.1,10.3-19.2c-14.6,6.3-21.3,14.4-19.8,24.7C961.2,1781.1,963.5,1779.7,965.9,1778.3z
				 M1184.1,1651.9c-0.5-0.2-1-0.5-1.5-0.7c-1.2,1.7-2.6,3.3-3.7,5.1c-27.4,44.7-49.2,92-65.3,141.9c-12.3,38-18.3,76.7-8.7,116.3
				c10.2,42.2,27.7,78.5,76,89.3c-6.3,1.2-12.6,2.4-19,3.6c0.1,0.9,0.2,1.7,0.3,2.6c18.7-1.4,38.2-0.1,55.9-5
				c29-8,57.2-19.3,85-30.8c44.4-18.4,82.5-47.6,121.1-75.3c17.6-12.6,32.9-28.3,49.3-42.7c-7.3,2.2-13.5,6-19.4,10.1
				c-12.5,8.7-24.2,18.8-37.5,26.1c-21.7,11.8-44.3,22-66.6,32.6c-36.3,17.2-73.9,25.2-113.9,16c-30.8-7.1-51.6-23.9-59.2-56.4
				c-12-51-9.1-100.6,10.1-149.3c2.6-6.7,4.5-13.8,6.8-20.6c-1.1-0.5-2.2-0.9-3.3-1.4c-3.5,6.2-7.6,12.2-10.3,18.7
				c-14.5,34.7-26.7,70-32.6,107.4c-2.3,14.4-6.8,28.5-2.4,43.4c3.3,11.1,5.1,22.5,8.2,33.6c1.3,4.5,3.5,9.4,6.8,12.7
				c11.1,10.8,22.8,21,34.3,31.4c4.1,3.7,8.2,7.4,12.8,11.6c-10.6,0.7-19.3,2.4-27.8,1.4c-6.5-0.7-13.8-3.5-18.8-7.7
				c-7.4-6.1-13.7-13.9-19.3-21.8c-4.5-6.3-10-13.8-10.3-20.9c-1.4-33.5-3.3-67.2-1-100.6c3.3-47.7,18-92.7,39.4-135.5
				C1175.2,1675.7,1179.3,1663.6,1184.1,1651.9z M1251.8,1204.8c18.1-7.1,34.1-14.6,50.9-19.5c30.8-9,58.9-25.2,90.3-32.2
				c5.3-1.2,10.4-3.5,15.4-5.8c23.7-10.6,41.3-39.8,40.3-67.7c-8.5,2.4-16.9,4.9-25.3,7.1c-1.9,0.5-4,0.7-5.9,0.5
				c-3.1-0.4-6.4-2.5-9.1-1.8c-13.2,3.4-26.5,6.8-39.2,11.6c-9.5,3.6-18.1,9.3-27.2,14c0.3,0.7,0.7,1.4,1,2.1
				c12-4.2,23.9-8.5,35.9-12.7c0.2,0.7,0.5,1.4,0.7,2.2c-18.3,7-36.9,13.4-54.9,21c-18,7.6-35.3,16.5-49.7,30.6
				c4.4-1.6,8.9-3.1,13.4-4.7c-12.7,10.7-24.5,21.7-37.4,31c-5.7,4.1-3.9,6.8-1.9,11.5c3.1-1.3,5.8-2.4,8.4-3.5
				c0.8,0.5,1.6,1.1,2.4,1.6C1257.6,1194.5,1255.2,1198.8,1251.8,1204.8z M1253.2,1328.9c4.6-2.6,8-4.6,11.5-6.3
				c21.9-10.6,43.9-21,65.6-31.7c14.7-7.2,29-15.1,43.6-22.4c10.7-5.4,10-18.1,16.7-26c0.5-0.5,0-1.8,0.2-2.7
				c1-4.8,1.5-9.7,3.2-14.2c2-5.1,5.6-9.5,7.5-14.6c0.8-2.1-0.3-6.7-1.7-7.3c-2.7-1.1-6.2-0.3-9.3,0.2c-1.8,0.3-4.6,3-4.9,2.7
				c-6.7-7.4-10,0.4-13.9,3.3c-4.5,3.3-8.5,7.3-12.7,11.1c-4.4,4-8.6,8.3-13.1,12.1c-2.4,2-5.3,3.5-8.2,4.9
				c-3.7,1.8-7.8,2.9-11.5,4.9c-5.3,2.9-10.2,6.5-15.4,9.6c-11.5,6.9-23.4,13.1-34.6,20.6c-6.4,4.3-14.5,9.4-16.7,15.9
				C1255.6,1301.2,1255.3,1314.6,1253.2,1328.9z M1180.3,1321.8c-8,5.4-14.5,9.8-21,14c-1.2,0.8-2.8,1-4.2,1.5
				c-4.4,1.6-9.6,2.1-13,4.9c-14.8,12.2-29,25.2-43.7,37.7c-11.9,10.1-24.2,19.7-36.1,29.7c-8.9,7.5-7.6,14.6,3.2,19.1
				c8.6,3.6,16.1,0.9,23.3-3.8c13.4-8.6,26.2-18,40.2-25.5c29-15.6,29.3-15.2,42.3-45.8c2.1-5.1,4.1-10.2,5.6-15.5
				C1178.4,1332.9,1179.1,1327.6,1180.3,1321.8z M1782.7,1268.7c9,29.1,15.9,58.3,16,88.3c0.1,30.1-0.8,60.5-4.7,90.3
				c-3.8,29.1-12.1,57.6-18.4,86.3c0.2,0.1,0.4,0.1,0.7,0.2c9.3-26.2,18.6-52.5,27.9-78.7c0.9,0.2,1.8,0.5,2.6,0.7
				c-3.8,20.5-7.7,41.1-11.5,61.6c3.1-5.7,5.5-11.8,7.7-17.9c18.7-51.8,26-104.8,15.6-159.4
				C1813.5,1313,1802.2,1288.6,1782.7,1268.7z M1266.2,1688.1c6.6,2,11.5,3.3,16.4,5.1c9.2,3.3,15.6,0.7,20.6-7.8
				c4.8-8.1,10.9-15.4,16.2-23.2c11.1-16.2,22-32.6,33.6-49.8c-3.1,0.3-5.1,0-6.6,0.7c-18,8.1-36,16.3-53.9,24.7
				c-1.2,0.6-2.3,2-2.9,3.3C1282,1656.2,1274.4,1671.5,1266.2,1688.1z M1167.2,1230.6c-10.4-5.1-45,26.2-54.3,52
				C1131.9,1264.4,1149.5,1247.6,1167.2,1230.6z M1213.1,1468.7c0.1-0.8,0.1-1.6,0.2-2.3c-4-0.3-8-1.1-11.9-0.8
				c-3.5,0.2-6.9,2-10.5,2.2c-8.6,0.4-11,3.2-9.6,11.9c15.7-3.9,32.9-4,45.2-17.3C1222.1,1464.4,1217.6,1466.5,1213.1,1468.7z
				 M1245.7,1777c-0.8-0.7-1.6-1.3-2.5-2c-14.3,2.2-17.4,6.8-18.6,27.9C1232.1,1793.7,1238.9,1785.4,1245.7,1777z M1053.2,1307
				c-0.5-0.6-1-1.2-1.5-1.8c-9.5,7.4-19.1,14.7-28.6,22.1c0.8,1,1.6,1.9,2.4,2.9C1041.7,1330.8,1043.4,1314.1,1053.2,1307z
				 M926.8,1812.6c0.7,0.7,1.4,1.4,2.1,2.1c8.3-9.1,16.6-18.2,25.8-28.3C940.8,1791.5,933.1,1801.4,926.8,1812.6z M1291.1,1397.2
				c16.3-3,25.2-9.9,28-23.5c-4.6,3.5-7.8,8.3-12,12C1302.2,1390,1296.4,1393.4,1291.1,1397.2z M1306.3,1399.7c-0.5-1-1-2-1.4-3
				c-11.2,6-22.4,12-33.7,18c0.3,0.6,0.6,1.2,0.9,1.8C1283.6,1410.9,1294.9,1405.3,1306.3,1399.7z M1018.5,1593.8
				c-1-0.8-2-1.6-3-2.4c-5.7,7.7-11.4,15.3-17.1,23c0.8,0.6,1.6,1.2,2.4,1.8C1006.6,1608.7,1012.6,1601.3,1018.5,1593.8z
				 M1578.1,976.9c-0.3,1.8-0.7,3.6-1,5.4c4.1,0.6,8.2,1.4,12.3,1.5c0.6,0,1.3-3.3,2-5.1C1587,978.1,1582.6,977.5,1578.1,976.9z"/>
			<path class="st1" d="M513.2,2305c39.6-8.6,73.3-27.9,109.3-40.6c0.6,1.2,1.2,2.4,1.8,3.6c-10,5.9-20,11.7-29.9,17.8
				c-10.6,6.6-20.8,14-31.7,19.9c-10.6,5.7-22,9.9-32.5,16c2.9-0.2,5.8-0.4,9.5-0.7c-1.5,2.6-2.5,4.4-3.9,6.9
				c6.6,0.4,13,1.8,19.1,0.9c23.2-3.5,46.3-7.8,69.5-11.7c1.3-0.2,2.7,0,4.1,0c0.2,0.9,0.3,1.7,0.5,2.6c-10.7,2.4-21.4,4.8-32.1,7.2
				c0,0.4,0,0.7,0.1,1.1c13.6-1,27.2-2.1,40.8-3.1c0.2,0.9,0.3,1.9,0.5,2.8c-15.8,4.2-31.5,8.5-47.3,12.7c0.2,0.8,0.4,1.5,0.5,2.3
				c24.3-3.8,48.6-7.7,72.9-11.5c0.1,0.7,0.2,1.4,0.3,2.1c-26.5,5-53.1,9.3-79.4,15.2c-26.1,5.8-52.7,8.3-78.9,13.8
				c-26.7,5.6-53.5,10.9-80.4,15.9c-26.7,4.9-53.5,9.6-80.3,13.9c-26.7,4.3-53.6,8.1-80.3,12.1c-0.4-1-0.8-2-1.2-3.1
				c4.4-2,8.7-4.7,13.4-5.7c24.5-5.4,49.2-10.2,73.7-15.4c2.3-0.5,4.5-1.5,6.7-2.3c-0.1-0.8-0.3-1.6-0.4-2.3
				c-11.3,1.5-22.7,2.9-34,4.7c-6.9,1.1-13.8,2.7-20.7,4c-8,1.4-16.7,5.3-24.1,3.6c-33.9-7.6-68-15.9-89.9-46.8
				c-20.8-29.3-27.8-61.7-19.3-96.6c7.5-30.8,16.3-61.2,24.6-91.7c0.8-2.9,1.6-5.7,1.1-9.3c-4.2,7.5-8.3,15.1-12.5,22.6
				c-0.5-0.1-1-0.2-1.5-0.4c0.5-2.8,0.8-5.7,1.7-8.4c13.7-40.8,34.2-78.2,58.3-113.7c11.7-17.2,23.5-34.3,36-50.8
				c7.4-9.8,14.3-19.8,29.3-21c7.1-0.5,14.1-7.8,20.3-13c7.2-6.1,13.5-6.2,20.9-0.7c4.8,3.6,10.4,6.2,16.3,9.7
				c-5.8,12-11.2,23.6-16.8,35c-20.1,40.4-41.1,80.3-60.1,121.2c-11.5,24.8-21.1,50.7-28.9,76.8c-3,10.2-0.4,23,2.6,33.9
				c3.5,12.6,11.1,16.3,23.3,12.1c14.6-5,28.3-12.7,42.8-18c27.4-9.8,43.7-33.2,64.6-51c1.5-1.3,3.1-2.3,5.9-2.5
				c-1.7,2.5-3.4,4.9-6,8.6c19.5-14.7,72.1-85.2,89.8-127.3c20-47.5,40.5-95.2,50-147.2c9.1,9.4,14.6,20,15.3,32.6
				c1.3,23,0.1,46-7.4,67.9c-8.5,24.9-15.4,50.8-27.6,73.7c-13.6,25.6-32.4,48.5-49,72.6c-1.4,2.1-2.9,4.2-4,6.5
				c53.1-53,85.3-117.7,103.2-190.3c1.6,0.6,3.3,1.3,4.9,1.9c-6,23.4-10.7,47.2-18.4,70c-5.8,17.2-14.9,33.4-23.8,49.4
				c-8.8,15.8-19.3,30.7-29,46c-0.9,1.4-1.3,3.3-2.1,5.5c36.1-20.5,105.4-172.6,98.2-218.6c-1.7,5.9-2.7,9.3-3.7,12.7
				c-0.9-0.1-1.7-0.1-2.6-0.2c-1.9-11.8-4.8-23.6-5.3-35.5c-0.9-20.3-28.3-46.1-50.8-44.9c-2.6,0.1-6.7-0.8-7.8-2.7
				c-10.9-18.3-28.3-26.2-48.1-31.8c3.9-0.6,7.7-1.4,11.6-1.9c4.2-0.6,8.5-1.2,12.8-1.5c33.1-2.2,67-3.6,98,8.5
				c30.1,11.7,61.3,24.6,77.7,56.4c3.8,7.3,7.2,14.8,9.9,22.5c2.8,8.1,4.5,15.8,10.7,23.3c5.5,6.6,5.5,18.3,6.7,27.9
				c4.6,35.6-3,69.2-17.1,101.7c-1.5,3.5-4.8,7,0,11.3c1,0.9-1.9,7.1-3.8,10.3c-6.8,11.4-13.9,22.6-21,33.8
				c-16.9,26.5-32.4,53.9-51.1,79.1c-26.5,35.7-53.6,71.1-87.3,100.7C518.3,2297.9,516.7,2300.6,513.2,2305z M222.9,2322
				c50.4,7.9,149.3-53.5,177.8-87.1c-9.4,5.9-18.2,12.6-27.8,18.1c-10,5.7-20.9,10.1-31.2,15.4c-19.3,9.9-39.2,16.6-61.3,15.8
				c-31.1-1.1-47.2-14.6-52.7-45.2c-5-27.7-2.4-54.8,8.2-80.9c1.3-3.2,2.1-6.5,3.2-9.8c-0.7-0.3-1.4-0.6-2.1-0.9
				c-1.7,3-4.1,5.9-5.1,9.1c-7.1,23.3-16.1,46.3-20.2,70.1c-4.3,24.8,1.2,48.5,24.7,64c4,2.6,7.4,6.2,12.6,10.6
				c-5.3-0.2-8.2-0.9-10.8-0.4c-9.2,1.7-16.9,0.3-22.3-8.4c-4.5-7.4-12.6-14.2-13.6-22c-5.9-44.1-1.2-87.1,17.3-128.1
				c4.1-9.1,7.9-18.2,11.9-27.3c-2.5,0.6-3.7,1.8-4.5,3.3c-16,27.6-28.9,56.5-37.8,87.2c-7.8,26.9-7.5,53.6,3.5,79.8
				c6.5,15.4,17,26.7,33.2,32c1.8,0.6,3.5,1.2,5.3,1.8c-0.1,0.5-0.1,1-0.2,1.5C228.7,2320.9,226.3,2321.4,222.9,2322z M603.5,2016.4
				c18.5-36.8,19.3-108.5-10.4-135.1c15.2,48.2,11.2,94.5,0.8,141c3.8-10.1,7.6-20.2,11.4-30.3c0.4,0.2,0.8,0.3,1.2,0.5
				C605.6,1999.9,604.7,2007.3,603.5,2016.4z"/>
			<path class="st1" d="M468.9,1731.4c7.3-8.8,14.8-17.4,21.9-26.3c9.5-11.8,18.5-24.1,28.3-35.7c9.3-10.9,19.4-21.2,29.1-31.7
				c25.1-26.8,49-54.5,69.2-85.3c10.5-16,23.6-30.3,35.3-45.6c2.3-3,3.9-6.7,4.6-10.8c-20.3,23.2-40.6,46.3-60.9,69.5
				c-1-0.8-1.9-1.5-2.9-2.3c45.6-47.3,77.5-104.4,117.1-159.1c-11.5,8-21.1,14.7-31.8,22.1c0-2.9,0-4.4,0-7.5
				c-20,12.3-39.2,24.1-58.4,36c0.4,0.7,0.8,1.5,1.3,2.2c9.8-5.7,19.6-11.4,29.3-17.1c0.5,0.8,0.9,1.6,1.4,2.4
				c-16.3,10.1-33.2,19.4-48.7,30.5c-13.4,9.6-25.2,21.3-37.9,31.9c-2.7,2.2-6.1,3.5-8.9,5.5c-2.4,1.7-4.3,4.2-6.8,5.6
				c-3.1,1.7-6.8,4.1-10,3.8c-19.4-1.7-39.2-0.8-57.8-8.5c-2.9-1.2-6.2-1.4-7.4-1.7c-4.1-4.1-7.3-7.2-9.8-9.6
				c1.4-2.9,3.8-5.6,3.9-8.4c0.3-4.2-1.4-6.9-7-5.9c-1.7,0.3-5.4-4.6-6.3-7.6c-1.7-5.8-5.3-7-10.3-6.5c-8.4,0.9-16.8,1.9-25.9,3
				c0.4-4.6,0.8-9.2,1.1-13.4c5.2-0.8,10.3-1.5,15.5-2.3c-5-7.2-9.4-13.4-14.1-20c7.3-4.3,14-8.1,20.7-12.1
				c-5.9-4.7-10-7.9-14.3-11.3c4.6-5.8,8.5-4.8,14.1-4.4c13.8,1.1,28.5,1.8,41.7-1.5c21.8-5.4,42.9-13.7,64-21.4
				c21.1-7.7,42.5-15,62.6-24.6c23.1-11.1,44.8-24.8,67.4-37c52.2-28.3,105-55.5,156.6-84.8c29.8-16.9,57.5-37.2,86.5-55.6
				c7.1-4.5,15.2-7.7,23-11.2c4-1.8,26.7,5.8,29.8,9.2c5.4,5.9,10.8,11.8,16.7,17.2c2.2,2,5.8,2.5,9.4,3.9
				c-2.9,10.4-0.6,19.1,7.4,27.8c5.1,5.6,5.5,15.5,0.2,23.1c-4.4,6.4-10.1,11.7-10.7,20.6c-0.3,3.7-5.5,8.2-9.5,10.3
				c-8.4,4.4-15.5,14-27,8.5c-19.2,8.4-38.3,16.8-57.5,25.3c0.4,0.9,0.8,1.8,1.1,2.8c7.7-3.2,15.5-6.4,23.2-9.6
				c0.3,0.5,0.6,1,0.8,1.5c-3.8,2.6-7.2,6-11.4,7.6c-10.9,4.2-18.3,12-24.4,21.3c-4.9,7.4-9.9,12-20.7,11.1
				c-17.5-1.4-39,26.5-35.2,43.9c0.6,2.6,5.8,4.2,10.6,7.4c-0.2,5.6,4,7.4,11.8,6.5c3-0.4,7.8,3.4,9.7,6.6
				c14.2,23.4,27.9,47.1,42,70.6c1.6,2.7,5.2,4.2,8.3,6.5c2.7,6.1,6.2,13.5,9.2,21.2c1.1,2.9,2.6,8.3,1.5,9
				c-7.8,5.2-4.7,13.4-6.3,20.1c-0.5,2.3,0.4,5.5,1.7,7.6c4.6,7.2,4,12.9-2.9,18.3c-2.8,2.2-4.8,5.4-7.7,6.6
				c-2.1,0.8-4.6,1.1-6.2,2.4c-2.6,2.2-4.8,5-7,7.7c-4.3,5.3-8.2,10.9-12.9,15.8c-2.4,2.5-6.1,4.8-9.5,5.2c-7.6,0.9-13.3,3.2-19,9.1
				c-6.9,7.2-16.1,12.2-26.4,19.7c0.1,5.4-6.1,7.8-13.5,10.5c-11.1,4.1-21.6,9.7-31.4,14.3c-2.9-1.8-5.8-3.6-9.4-5.8
				c0.8-1.5,2.2-4.2,4.6-8.6c-7.8,2.6-13.8,4.6-20.4,6.8c0.4-2.2,0.8-4.1,1.3-6.7c-30.3,24.3-60.1,48.2-89.9,72.1
				c-1-1.1-2-2.1-3.1-3.2c6.8-7.6,13.5-15.4,20.6-22.8c14.8-15.4,29.9-30.5,43.7-47.1c-17.8,16.8-35.5,33.6-53.3,50.5
				c-0.7-0.6-1.4-1.3-2.1-1.9c3.7-4.7,7.4-9.3,11.2-14c-0.2-0.3-0.4-0.5-0.6-0.8c-20.5,16.8-41,33.6-61.4,50.5
				c-0.8-0.8-1.6-1.7-2.3-2.5c46.4-39.8,85.3-85.9,120.5-137.6c-3.5,0.6-5.4,0.9-8.2,1.4c8.8-15.8,17.6-30.5,16.9-49
				c-7.9,5.2-15,9.9-20.9,13.7c5.7-6.5,12.5-13.8,18.7-21.4c2.4-2.9,4.7-6.7,5-10.2c0.2-3-2.5-6.2-3.9-9.3c-1.8,2.1-3.6,4.1-5.4,6.2
				c-5.9,6.6-11.6,13.4-17.7,19.8c-6.7,7-13.6,13.8-20.4,20.6c0,0,0.2,0.2,0.2,0.2c6.4-8.7,12.6-17.7,19.3-26.2
				c8.1-10.3,16.6-20.3,24.9-30.5c1.6-1.9,2.7-4.2,4-6.3c-0.7-0.5-1.3-1-2-1.5c-31.3,34.1-62.5,68.2-94.2,102.7
				c2,0.4,3.5,0.7,4.9,1.1c-20,26.8-41.5,51.7-65.2,74.8c-0.8-0.6-1.5-1.1-2.3-1.7c3.2-4.6,6.5-9.3,9.7-13.9
				c0.8,0.9,1.6,1.8,2.4,2.8c-21.7,21.3-43.5,42.5-65.2,63.8c-1.4-1.3-2.7-2.6-4.1-3.8c9.3-10.9,18.7-21.8,28-32.6
				c-1-0.9-2.1-1.9-3.1-2.8c-21.8,23.6-43.7,47.2-65.8,71.1c-0.9-1.6-1.6-3-2.6-4.7c-25.2,10.4-39.7,34.4-63.5,49.9
				c0.6-4.5,0.9-6.6,1.1-8.5c-25.5,19.2-50.9,38.3-76.3,57.3l0.1,0.1c0.7-2.7,0.6-6.2,2.3-7.8c10.2-9.9,21.1-19,31.2-28.9
				c18.7-18.3,37.2-36.7,55.4-55.5c2.8-2.9,3.4-7.8,5-11.8c-1-0.6-2-1.1-3-1.7c-4.5,4.2-9.1,8.3-13.6,12.5c-0.5-0.5-1-1-1.6-1.5
				c9.6-9.6,19.2-19.2,28.9-28.9c-0.8,2.7-1.6,5.4-2.3,8.1c0.7,0.5,1.4,1.1,2,1.6c21.3-21,42.6-42,63.9-62.9c-0.7-0.7-1.3-1.4-2-2.1
				c-10.1,9.8-20,19.8-30.3,29.2C488.6,1714.8,478.7,1723,468.9,1731.4z M782.4,1279.8c0.6,1,1.2,1.9,1.9,2.9
				c14.2-9.2,28.5-18.4,42.7-27.5c-0.5-0.8-1.1-1.7-1.6-2.5C811,1261.7,796.7,1270.7,782.4,1279.8z"/>
			<path class="st1" d="M684,1154.8c-2.5-0.3-5.3-0.6-8-0.9c0.4-2.5,1.2-5,1-7.4c-0.3-3.2-0.9-6.5-2.2-9.4c-1.6-3.5-4.3-6.5-5.9-10
				c-4.2-9.1-8.1-18.3-12.1-27.4c-1.3-3-2.5-6-3.6-8.9c4.1,0,8.9,1.3,10.4-0.3c1.8-2.1,1.4-6.6,1.1-10c-0.8-7.9-4-14-11.3-18.7
				c-3.4-2.2-3.8-8.8-4.8-11.5c5.4-3.1,8.7-5.9,12.4-6.8c3.5-0.8,7.8-0.4,11.1,1c15.6,7,31.2,6.5,44.4,2.5c5.7,1.9,9.1,3.6,12.6,4.1
				c12.2,1.7,23.9-0.1,35.7-4.4c11.1-4,23.7-4.3,34.5-8.7c31.4-12.8,62.2-27,93.3-40.6c1.3-0.6,2.7-0.9,5.7-1.9
				c-2.6,3.3-4.1,5.1-5.5,6.9c0.3,0.5,0.5,1.1,0.8,1.6c15-7.7,30-15.4,45-23c0.6,0.8,1.2,1.7,1.8,2.5c-3.2,2.4-6.2,5.3-9.7,7.2
				c-12.5,6.9-26.3,12.1-32.8,26.4c-0.3,0.8-0.4,1.7-1,3.8c3-0.1,5.4-0.3,10.3-0.5c-2.9,9.2-5.5,17.7-8.8,28.1
				c10.7-5.8,20.8-11.2,30.9-16.7c1.8,5-9.6,7.5,0.2,12.5c-2.3,0.9-4,1.5-6.2,2.4c0.9,1.4,1.7,2.8,2.8,4.4c-3.2,1.9-6.2,3.8-9.3,5.6
				c0.2,0.5,0.4,1.1,0.6,1.6c3.5-0.9,6.9-1.9,12.4-3.4c-6.4,5.1-11.3,9-18,14.3c5.1-0.8,8.1-1.3,11-1.8c0.3,0.5,0.5,1,0.8,1.5
				c-15.7,11.6-31.4,23.3-47.2,34.9c0.5,0.8,1.1,1.6,1.6,2.4c4.7-2.9,9.5-5.8,14.2-8.7c0.5,0.5,0.9,0.9,1.4,1.4
				c-3.3,3.2-6.2,6.8-9.8,9.5c-33,25.2-66.1,50.1-99,75.4c-2.4,1.9-3.2,5.9-5.5,10.6c-0.1,0-2.4,0.4-4,1.5
				c-15.1,11-30.2,9.5-44.9-0.3c-4.5-3-8-7.3-12-10.9c-7.2-6.5-14.5-13-21.8-19.4C692.8,1161.9,688.6,1158.6,684,1154.8z"/>
			<path class="st1" d="M422.1,2046.7c-2.6,25.2-13.7,49.1-36.2,67c-3.3,2.6-7.3,4.5-11.3,5.9c-11,3.7-21.1-0.7-23.6-11.9
				c-1.9-8.7-2-18.2-0.6-27c3.3-20.1,12.9-37.2,27.3-51.6c1.5-1.5,3.1-3,4.8-4.3c8.2-6.2,17.1-12,27.6-7
				C420.9,2022.8,421.7,2033.4,422.1,2046.7z"/>
			<path class="st1" d="M1719.2,1292.6c-11.6-6.6-24.1-13.3-36.1-20.7c-3-1.9-5-5.8-6.6-9.3c-1.5-3.2-1.7-6.9-2.7-11.2
				C1694.5,1260.9,1712.4,1272.1,1719.2,1292.6z"/>
			<path class="st1" d="M1011.3,1720.2c13.1-16.2,26.2-32.4,39.3-48.6c1,0.8,2.1,1.7,3.1,2.5c-8.7,19.8-30.2,29.5-38.5,49.6
				C1013.9,1722.6,1012.6,1721.4,1011.3,1720.2z"/>
			<path class="st1" d="M560.5,1360.2c23.3-9.8,45.4-19.2,68.8-29C621.7,1340.1,568.1,1363.2,560.5,1360.2z"/>
			<path class="st1" d="M711.9,1564.8c-9.7,13-19.5,25.9-29.2,38.9c-1-0.8-2-1.6-3-2.4c9.8-12.9,18.7-26.5,32.3-36.3
				C712.1,1565,711.9,1564.8,711.9,1564.8z"/>
			<path class="st1" d="M1493,1298.6c6.1-8.5,12.1-17.1,18.2-25.6c1.1,0.8,2.3,1.6,3.4,2.5c-6.2,8.4-12.4,16.8-18.5,25.2
				C1495,1299.9,1494,1299.3,1493,1298.6z"/>
			<path class="st1" d="M861.7,1000.4c-7.1,3.9-14.1,7.7-21.2,11.6c-0.8-1.4-1.5-2.8-2.3-4.2c7.1-3.5,14.3-7.1,21.4-10.6
				C860.3,998.2,861,999.3,861.7,1000.4z"/>
			<path class="st1" d="M362.2,1855.7c-5,5.4-10.1,10.8-15.1,16.2c-1.1-1.2-2.2-2.4-3.3-3.7c6.1-4.2,12.3-8.3,18.4-12.5
				C362.3,1855.8,362.2,1855.7,362.2,1855.7z"/>
		</g>
	</g>
</g>
</svg>
